<?xml version="1.0" encoding="UTF-8" standalone="no"?>
<svg xmlns="http://www.w3.org/2000/svg" xmlns:xlink="http://www.w3.org/1999/xlink" contentScriptType="application/ecmascript" contentStyleType="text/css" height="1037px" preserveAspectRatio="none" style="width:760px;height:1037px;" version="1.1" viewBox="0 0 760 1037" width="760px" zoomAndPan="magnify"><defs><filter height="300%" id="f1sj1t22w2s2y1" width="300%" x="-1" y="-1"><feGaussianBlur result="blurOut" stdDeviation="2.0"/><feColorMatrix in="blurOut" result="blurOut2" type="matrix" values="0 0 0 0 0 0 0 0 0 0 0 0 0 0 0 0 0 0 .4 0"/><feOffset dx="4.0" dy="4.0" in="blurOut2" result="blurOut3"/><feBlend in="SourceGraphic" in2="blurOut3" mode="normal"/></filter></defs><g><!--MD5=[1b1562314ef50edf921bad0cd204186a]
class World--><rect codeLine="1" fill="#FEFECE" filter="url(#f1sj1t22w2s2y1)" height="99.2188" id="World" style="stroke:#A80036;stroke-width:1.5;" width="225" x="410.5" y="7"/><ellipse cx="500.75" cy="23" fill="#ADD1B2" rx="11" ry="11" style="stroke:#A80036;stroke-width:1.0;"/><path d="M503.0938,18.6719 C502.1563,18.2344 501.5625,18.0938 500.6875,18.0938 C498.0625,18.0938 496.0625,20.1719 496.0625,22.8906 L496.0625,24.0156 C496.0625,26.5938 498.1719,28.4844 501.0625,28.4844 C502.2813,28.4844 503.4375,28.1875 504.1875,27.6406 C504.7656,27.2344 505.0938,26.7813 505.0938,26.3906 C505.0938,25.9375 504.7031,25.5469 504.2344,25.5469 C504.0156,25.5469 503.8125,25.625 503.625,25.8125 C503.1719,26.2969 503.1719,26.2969 502.9844,26.3906 C502.5625,26.6563 501.875,26.7813 501.1094,26.7813 C499.0625,26.7813 497.7656,25.6875 497.7656,23.9844 L497.7656,22.8906 C497.7656,21.1094 499.0156,19.7969 500.75,19.7969 C501.3281,19.7969 501.9375,19.9531 502.4063,20.2031 C502.8906,20.4844 503.0625,20.7031 503.1563,21.1094 C503.2188,21.5156 503.25,21.6406 503.3906,21.7656 C503.5313,21.9063 503.7656,22.0156 503.9844,22.0156 C504.25,22.0156 504.5156,21.875 504.6875,21.6563 C504.7969,21.5 504.8281,21.3125 504.8281,20.8906 L504.8281,19.4688 C504.8281,19.0313 504.8125,18.9063 504.7188,18.75 C504.5625,18.4844 504.2813,18.3438 503.9844,18.3438 C503.6875,18.3438 503.4844,18.4375 503.2656,18.75 L503.0938,18.6719 Z " fill="#000000"/><text fill="#000000" font-family="sans-serif" font-size="12" lengthAdjust="spacing" textLength="36" x="521.25" y="27.1543">World</text><line style="stroke:#A80036;stroke-width:1.5;" x1="411.5" x2="634.5" y1="39" y2="39"/><text fill="#000000" font-family="sans-serif" font-size="11" lengthAdjust="spacing" textLength="213" x="416.5" y="53.2104">List&lt;DynamicEntity&gt; dynamicEntities</text><text fill="#000000" font-family="sans-serif" font-size="11" lengthAdjust="spacing" textLength="75" x="416.5" y="66.0151">Player player</text><line style="stroke:#A80036;stroke-width:1.5;" x1="411.5" x2="634.5" y1="72.6094" y2="72.6094"/><text fill="#000000" font-family="sans-serif" font-size="11" lengthAdjust="spacing" textLength="48" x="416.5" y="86.8198">update()</text><text fill="#000000" font-family="sans-serif" font-size="11" lengthAdjust="spacing" textLength="46" x="416.5" y="99.6245">render()</text><!--MD5=[1f24f7b92150e3316908f7910ce81742]
class Grid--><rect codeLine="8" fill="#FEFECE" filter="url(#f1sj1t22w2s2y1)" height="73.6094" id="Grid" style="stroke:#A80036;stroke-width:1.5;" width="80" x="209" y="166"/><ellipse cx="234.35" cy="182" fill="#ADD1B2" rx="11" ry="11" style="stroke:#A80036;stroke-width:1.0;"/><path d="M236.6938,177.6719 C235.7563,177.2344 235.1625,177.0938 234.2875,177.0938 C231.6625,177.0938 229.6625,179.1719 229.6625,181.8906 L229.6625,183.0156 C229.6625,185.5938 231.7719,187.4844 234.6625,187.4844 C235.8813,187.4844 237.0375,187.1875 237.7875,186.6406 C238.3656,186.2344 238.6938,185.7813 238.6938,185.3906 C238.6938,184.9375 238.3031,184.5469 237.8344,184.5469 C237.6156,184.5469 237.4125,184.625 237.225,184.8125 C236.7719,185.2969 236.7719,185.2969 236.5844,185.3906 C236.1625,185.6563 235.475,185.7813 234.7094,185.7813 C232.6625,185.7813 231.3656,184.6875 231.3656,182.9844 L231.3656,181.8906 C231.3656,180.1094 232.6156,178.7969 234.35,178.7969 C234.9281,178.7969 235.5375,178.9531 236.0063,179.2031 C236.4906,179.4844 236.6625,179.7031 236.7563,180.1094 C236.8188,180.5156 236.85,180.6406 236.9906,180.7656 C237.1313,180.9063 237.3656,181.0156 237.5844,181.0156 C237.85,181.0156 238.1156,180.875 238.2875,180.6563 C238.3969,180.5 238.4281,180.3125 238.4281,179.8906 L238.4281,178.4688 C238.4281,178.0313 238.4125,177.9063 238.3188,177.75 C238.1625,177.4844 237.8813,177.3438 237.5844,177.3438 C237.2875,177.3438 237.0844,177.4375 236.8656,177.75 L236.6938,177.6719 Z " fill="#000000"/><text fill="#000000" font-family="sans-serif" font-size="12" lengthAdjust="spacing" textLength="25" x="250.65" y="186.1543">Grid</text><line style="stroke:#A80036;stroke-width:1.5;" x1="210" x2="288" y1="198" y2="198"/><text fill="#000000" font-family="sans-serif" font-size="11" lengthAdjust="spacing" textLength="68" x="215" y="212.2104">Cell[][] cells</text><line style="stroke:#A80036;stroke-width:1.5;" x1="210" x2="288" y1="218.8047" y2="218.8047"/><text fill="#000000" font-family="sans-serif" font-size="11" lengthAdjust="spacing" textLength="46" x="215" y="233.0151">render()</text><!--MD5=[fea3dc74c7473bae0133d22265a91e2f]
class Cell--><rect codeLine="13" fill="#FEFECE" filter="url(#f1sj1t22w2s2y1)" height="73.6094" id="Cell" style="stroke:#A80036;stroke-width:1.5;" width="122" x="7" y="306"/><ellipse cx="52.75" cy="322" fill="#ADD1B2" rx="11" ry="11" style="stroke:#A80036;stroke-width:1.0;"/><path d="M55.0938,317.6719 C54.1563,317.2344 53.5625,317.0938 52.6875,317.0938 C50.0625,317.0938 48.0625,319.1719 48.0625,321.8906 L48.0625,323.0156 C48.0625,325.5938 50.1719,327.4844 53.0625,327.4844 C54.2813,327.4844 55.4375,327.1875 56.1875,326.6406 C56.7656,326.2344 57.0938,325.7813 57.0938,325.3906 C57.0938,324.9375 56.7031,324.5469 56.2344,324.5469 C56.0156,324.5469 55.8125,324.625 55.625,324.8125 C55.1719,325.2969 55.1719,325.2969 54.9844,325.3906 C54.5625,325.6563 53.875,325.7813 53.1094,325.7813 C51.0625,325.7813 49.7656,324.6875 49.7656,322.9844 L49.7656,321.8906 C49.7656,320.1094 51.0156,318.7969 52.75,318.7969 C53.3281,318.7969 53.9375,318.9531 54.4063,319.2031 C54.8906,319.4844 55.0625,319.7031 55.1563,320.1094 C55.2188,320.5156 55.25,320.6406 55.3906,320.7656 C55.5313,320.9063 55.7656,321.0156 55.9844,321.0156 C56.25,321.0156 56.5156,320.875 56.6875,320.6563 C56.7969,320.5 56.8281,320.3125 56.8281,319.8906 L56.8281,318.4688 C56.8281,318.0313 56.8125,317.9063 56.7188,317.75 C56.5625,317.4844 56.2813,317.3438 55.9844,317.3438 C55.6875,317.3438 55.4844,317.4375 55.2656,317.75 L55.0938,317.6719 Z " fill="#000000"/><text fill="#000000" font-family="sans-serif" font-size="12" lengthAdjust="spacing" textLength="22" x="73.25" y="326.1543">Cell</text><line style="stroke:#A80036;stroke-width:1.5;" x1="8" x2="128" y1="338" y2="338"/><text fill="#000000" font-family="sans-serif" font-size="11" lengthAdjust="spacing" textLength="110" x="13" y="352.2104">List&lt;Piece&gt; pieces</text><line style="stroke:#A80036;stroke-width:1.5;" x1="8" x2="128" y1="358.8047" y2="358.8047"/><text fill="#000000" font-family="sans-serif" font-size="11" lengthAdjust="spacing" textLength="46" x="13" y="373.0151">render()</text><!--MD5=[e05bacf3ff4416a0580578814d41bbf6]
class Piece--><rect codeLine="18" fill="#FEFECE" filter="url(#f1sj1t22w2s2y1)" height="86.4141" id="Piece" style="stroke:#A80036;stroke-width:1.5;" width="112" x="164" y="300"/><ellipse cx="200.6" cy="316" fill="#ADD1B2" rx="11" ry="11" style="stroke:#A80036;stroke-width:1.0;"/><path d="M202.9438,311.6719 C202.0063,311.2344 201.4125,311.0938 200.5375,311.0938 C197.9125,311.0938 195.9125,313.1719 195.9125,315.8906 L195.9125,317.0156 C195.9125,319.5938 198.0219,321.4844 200.9125,321.4844 C202.1313,321.4844 203.2875,321.1875 204.0375,320.6406 C204.6156,320.2344 204.9438,319.7813 204.9438,319.3906 C204.9438,318.9375 204.5531,318.5469 204.0844,318.5469 C203.8656,318.5469 203.6625,318.625 203.475,318.8125 C203.0219,319.2969 203.0219,319.2969 202.8344,319.3906 C202.4125,319.6563 201.725,319.7813 200.9594,319.7813 C198.9125,319.7813 197.6156,318.6875 197.6156,316.9844 L197.6156,315.8906 C197.6156,314.1094 198.8656,312.7969 200.6,312.7969 C201.1781,312.7969 201.7875,312.9531 202.2563,313.2031 C202.7406,313.4844 202.9125,313.7031 203.0063,314.1094 C203.0688,314.5156 203.1,314.6406 203.2406,314.7656 C203.3813,314.9063 203.6156,315.0156 203.8344,315.0156 C204.1,315.0156 204.3656,314.875 204.5375,314.6563 C204.6469,314.5 204.6781,314.3125 204.6781,313.8906 L204.6781,312.4688 C204.6781,312.0313 204.6625,311.9063 204.5688,311.75 C204.4125,311.4844 204.1313,311.3438 203.8344,311.3438 C203.5375,311.3438 203.3344,311.4375 203.1156,311.75 L202.9438,311.6719 Z " fill="#000000"/><text fill="#000000" font-family="sans-serif" font-size="12" lengthAdjust="spacing" textLength="32" x="219.4" y="320.1543">Piece</text><line style="stroke:#A80036;stroke-width:1.5;" x1="165" x2="275" y1="332" y2="332"/><text fill="#000000" font-family="sans-serif" font-size="11" lengthAdjust="spacing" textLength="69" x="170" y="346.2104">Entity entity</text><text fill="#000000" font-family="sans-serif" font-size="11" lengthAdjust="spacing" textLength="100" x="170" y="359.0151">boolean walkable</text><line style="stroke:#A80036;stroke-width:1.5;" x1="165" x2="275" y1="365.6094" y2="365.6094"/><text fill="#000000" font-family="sans-serif" font-size="11" lengthAdjust="spacing" textLength="46" x="170" y="379.8198">render()</text><!--MD5=[be996cdb8e6bf2fc7cb89c555f2cd144]
class Entity--><rect codeLine="24" fill="#FEFECE" filter="url(#f1sj1t22w2s2y1)" height="86.4141" id="Entity" style="stroke:#A80036;stroke-width:1.5;" width="118" x="311" y="300"/><ellipse cx="348.5" cy="316" fill="#A9DCDF" rx="11" ry="11" style="stroke:#A80036;stroke-width:1.0;"/><path d="M350.5781,317.8125 L350.9688,318.7969 L350.5781,318.7969 C350.125,318.7969 350.0156,318.8125 349.8594,318.9219 C349.6094,319.0781 349.4531,319.3594 349.4531,319.6563 C349.4531,319.9219 349.5938,320.1719 349.8125,320.3281 C349.9531,320.4531 350.1563,320.5 350.5781,320.5 L352.9375,320.5 C353.2969,320.5 353.5156,320.4688 353.6563,320.375 C353.9063,320.2344 354.0625,319.9375 354.0625,319.6563 C354.0625,319.375 353.9219,319.125 353.7031,318.9688 C353.5313,318.8281 353.375,318.7969 352.9063,318.7969 L349.5156,310.5938 L345.8438,310.5938 C345.3906,310.5938 345.2656,310.6094 345.1094,310.7031 C344.8594,310.875 344.7031,311.1563 344.7031,311.4375 C344.7031,311.7188 344.8438,311.9688 345.0625,312.1406 C345.2344,312.25 345.4063,312.2813 345.8438,312.2813 L346.9219,312.2813 L344.2813,318.7969 C343.8594,318.7969 343.7031,318.8125 343.5469,318.9219 C343.2969,319.0781 343.1406,319.3594 343.1406,319.6563 C343.1406,320.2188 343.5156,320.5 344.2656,320.5 L346.5313,320.5 C346.8906,320.5 347.1094,320.4688 347.2344,320.375 C347.5,320.2344 347.6406,319.9375 347.6406,319.6563 C347.6406,319.375 347.5156,319.125 347.2969,318.9531 C347.125,318.8281 346.9844,318.7969 346.5313,318.7969 L346.1406,318.7969 L346.5313,317.8125 L350.5781,317.8125 Z M349.875,316.1094 L347.2031,316.1094 L348.5469,312.8438 L349.875,316.1094 Z " fill="#000000"/><text fill="#000000" font-family="sans-serif" font-size="12" font-style="italic" lengthAdjust="spacing" textLength="36" x="367.5" y="320.1543">Entity</text><line style="stroke:#A80036;stroke-width:1.5;" x1="312" x2="428" y1="332" y2="332"/><text fill="#000000" font-family="sans-serif" font-size="11" lengthAdjust="spacing" textLength="106" x="317" y="346.2104">static Image sprite</text><text fill="#000000" font-family="sans-serif" font-size="11" lengthAdjust="spacing" textLength="89" x="317" y="359.0151">Piece[][] pieces</text><text fill="#000000" font-family="sans-serif" font-size="11" lengthAdjust="spacing" textLength="77" x="317" y="371.8198">int[2] position</text><line style="stroke:#A80036;stroke-width:1.5;" x1="312" x2="428" y1="378.4141" y2="378.4141"/><!--MD5=[222513e4f8ac55ee2a6ad0b0f8e14e8f]
class Nest--><rect codeLine="30" fill="#FEFECE" filter="url(#f1sj1t22w2s2y1)" height="60.8047" id="Nest" style="stroke:#A80036;stroke-width:1.5;" width="150" x="254" y="465"/><ellipse cx="311.25" cy="481" fill="#ADD1B2" rx="11" ry="11" style="stroke:#A80036;stroke-width:1.0;"/><path d="M313.5938,476.6719 C312.6563,476.2344 312.0625,476.0938 311.1875,476.0938 C308.5625,476.0938 306.5625,478.1719 306.5625,480.8906 L306.5625,482.0156 C306.5625,484.5938 308.6719,486.4844 311.5625,486.4844 C312.7813,486.4844 313.9375,486.1875 314.6875,485.6406 C315.2656,485.2344 315.5938,484.7813 315.5938,484.3906 C315.5938,483.9375 315.2031,483.5469 314.7344,483.5469 C314.5156,483.5469 314.3125,483.625 314.125,483.8125 C313.6719,484.2969 313.6719,484.2969 313.4844,484.3906 C313.0625,484.6563 312.375,484.7813 311.6094,484.7813 C309.5625,484.7813 308.2656,483.6875 308.2656,481.9844 L308.2656,480.8906 C308.2656,479.1094 309.5156,477.7969 311.25,477.7969 C311.8281,477.7969 312.4375,477.9531 312.9063,478.2031 C313.3906,478.4844 313.5625,478.7031 313.6563,479.1094 C313.7188,479.5156 313.75,479.6406 313.8906,479.7656 C314.0313,479.9063 314.2656,480.0156 314.4844,480.0156 C314.75,480.0156 315.0156,479.875 315.1875,479.6563 C315.2969,479.5 315.3281,479.3125 315.3281,478.8906 L315.3281,477.4688 C315.3281,477.0313 315.3125,476.9063 315.2188,476.75 C315.0625,476.4844 314.7813,476.3438 314.4844,476.3438 C314.1875,476.3438 313.9844,476.4375 313.7656,476.75 L313.5938,476.6719 Z " fill="#000000"/><text fill="#000000" font-family="sans-serif" font-size="12" lengthAdjust="spacing" textLength="27" x="331.75" y="485.1543">Nest</text><line style="stroke:#A80036;stroke-width:1.5;" x1="255" x2="403" y1="497" y2="497"/><text fill="#000000" font-family="sans-serif" font-size="11" lengthAdjust="spacing" textLength="138" x="260" y="511.2104">float[] paperProbabilities</text><line style="stroke:#A80036;stroke-width:1.5;" x1="255" x2="403" y1="517.8047" y2="517.8047"/><!--MD5=[8560f289a30852a9f75d64e53f926853]
class Building--><rect codeLine="34" fill="#FEFECE" filter="url(#f1sj1t22w2s2y1)" height="73.6094" id="Building" style="stroke:#A80036;stroke-width:1.5;" width="122" x="197" y="605"/><ellipse cx="231.35" cy="621" fill="#ADD1B2" rx="11" ry="11" style="stroke:#A80036;stroke-width:1.0;"/><path d="M233.6938,616.6719 C232.7563,616.2344 232.1625,616.0938 231.2875,616.0938 C228.6625,616.0938 226.6625,618.1719 226.6625,620.8906 L226.6625,622.0156 C226.6625,624.5938 228.7719,626.4844 231.6625,626.4844 C232.8813,626.4844 234.0375,626.1875 234.7875,625.6406 C235.3656,625.2344 235.6938,624.7813 235.6938,624.3906 C235.6938,623.9375 235.3031,623.5469 234.8344,623.5469 C234.6156,623.5469 234.4125,623.625 234.225,623.8125 C233.7719,624.2969 233.7719,624.2969 233.5844,624.3906 C233.1625,624.6563 232.475,624.7813 231.7094,624.7813 C229.6625,624.7813 228.3656,623.6875 228.3656,621.9844 L228.3656,620.8906 C228.3656,619.1094 229.6156,617.7969 231.35,617.7969 C231.9281,617.7969 232.5375,617.9531 233.0063,618.2031 C233.4906,618.4844 233.6625,618.7031 233.7563,619.1094 C233.8188,619.5156 233.85,619.6406 233.9906,619.7656 C234.1313,619.9063 234.3656,620.0156 234.5844,620.0156 C234.85,620.0156 235.1156,619.875 235.2875,619.6563 C235.3969,619.5 235.4281,619.3125 235.4281,618.8906 L235.4281,617.4688 C235.4281,617.0313 235.4125,616.9063 235.3188,616.75 C235.1625,616.4844 234.8813,616.3438 234.5844,616.3438 C234.2875,616.3438 234.0844,616.4375 233.8656,616.75 L233.6938,616.6719 Z " fill="#000000"/><text fill="#000000" font-family="sans-serif" font-size="12" lengthAdjust="spacing" textLength="47" x="249.65" y="625.1543">Building</text><line style="stroke:#A80036;stroke-width:1.5;" x1="198" x2="318" y1="637" y2="637"/><text fill="#000000" font-family="sans-serif" font-size="11" lengthAdjust="spacing" textLength="39" x="203" y="651.2104">AI dino</text><text fill="#000000" font-family="sans-serif" font-size="11" lengthAdjust="spacing" textLength="110" x="203" y="664.0151">int type // 0: House</text><line style="stroke:#A80036;stroke-width:1.5;" x1="198" x2="318" y1="670.6094" y2="670.6094"/><!--MD5=[fb4c30fb1fb270e3f19f5aaa9eb17fad]
class DynamicEntity--><rect codeLine="39" fill="#FEFECE" filter="url(#f1sj1t22w2s2y1)" height="99.2188" id="DynamicEntity" style="stroke:#A80036;stroke-width:1.5;" width="168" x="439" y="446"/><ellipse cx="475.15" cy="462" fill="#A9DCDF" rx="11" ry="11" style="stroke:#A80036;stroke-width:1.0;"/><path d="M477.2281,463.8125 L477.6188,464.7969 L477.2281,464.7969 C476.775,464.7969 476.6656,464.8125 476.5094,464.9219 C476.2594,465.0781 476.1031,465.3594 476.1031,465.6563 C476.1031,465.9219 476.2438,466.1719 476.4625,466.3281 C476.6031,466.4531 476.8063,466.5 477.2281,466.5 L479.5875,466.5 C479.9469,466.5 480.1656,466.4688 480.3063,466.375 C480.5563,466.2344 480.7125,465.9375 480.7125,465.6563 C480.7125,465.375 480.5719,465.125 480.3531,464.9688 C480.1813,464.8281 480.025,464.7969 479.5563,464.7969 L476.1656,456.5938 L472.4938,456.5938 C472.0406,456.5938 471.9156,456.6094 471.7594,456.7031 C471.5094,456.875 471.3531,457.1563 471.3531,457.4375 C471.3531,457.7188 471.4938,457.9688 471.7125,458.1406 C471.8844,458.25 472.0563,458.2813 472.4938,458.2813 L473.5719,458.2813 L470.9313,464.7969 C470.5094,464.7969 470.3531,464.8125 470.1969,464.9219 C469.9469,465.0781 469.7906,465.3594 469.7906,465.6563 C469.7906,466.2188 470.1656,466.5 470.9156,466.5 L473.1813,466.5 C473.5406,466.5 473.7594,466.4688 473.8844,466.375 C474.15,466.2344 474.2906,465.9375 474.2906,465.6563 C474.2906,465.375 474.1656,465.125 473.9469,464.9531 C473.775,464.8281 473.6344,464.7969 473.1813,464.7969 L472.7906,464.7969 L473.1813,463.8125 L477.2281,463.8125 Z M476.525,462.1094 L473.8531,462.1094 L475.1969,458.8438 L476.525,462.1094 Z " fill="#000000"/><text fill="#000000" font-family="sans-serif" font-size="12" font-style="italic" lengthAdjust="spacing" textLength="89" x="493.85" y="466.1543">DynamicEntity</text><line style="stroke:#A80036;stroke-width:1.5;" x1="440" x2="606" y1="478" y2="478"/><text fill="#000000" font-family="sans-serif" font-size="11" lengthAdjust="spacing" textLength="66" x="445" y="492.2104">World world</text><line style="stroke:#A80036;stroke-width:1.5;" x1="440" x2="606" y1="498.8047" y2="498.8047"/><text fill="#000000" font-family="sans-serif" font-size="11" lengthAdjust="spacing" textLength="156" x="445" y="513.0151">DynamicEntity(World world)</text><text fill="#000000" font-family="sans-serif" font-size="11" lengthAdjust="spacing" textLength="48" x="445" y="525.8198">update()</text><text fill="#000000" font-family="sans-serif" font-size="11" lengthAdjust="spacing" textLength="41" x="445" y="538.6245">move()</text><!--MD5=[0b747b16fd15de0ba6a1fc1f13282ea0]
class Dino--><rect codeLine="46" fill="#FEFECE" filter="url(#f1sj1t22w2s2y1)" height="48" id="Dino" style="stroke:#A80036;stroke-width:1.5;" width="59" x="410.5" y="618"/><ellipse cx="425.5" cy="634" fill="#ADD1B2" rx="11" ry="11" style="stroke:#A80036;stroke-width:1.0;"/><path d="M427.8438,629.6719 C426.9063,629.2344 426.3125,629.0938 425.4375,629.0938 C422.8125,629.0938 420.8125,631.1719 420.8125,633.8906 L420.8125,635.0156 C420.8125,637.5938 422.9219,639.4844 425.8125,639.4844 C427.0313,639.4844 428.1875,639.1875 428.9375,638.6406 C429.5156,638.2344 429.8438,637.7813 429.8438,637.3906 C429.8438,636.9375 429.4531,636.5469 428.9844,636.5469 C428.7656,636.5469 428.5625,636.625 428.375,636.8125 C427.9219,637.2969 427.9219,637.2969 427.7344,637.3906 C427.3125,637.6563 426.625,637.7813 425.8594,637.7813 C423.8125,637.7813 422.5156,636.6875 422.5156,634.9844 L422.5156,633.8906 C422.5156,632.1094 423.7656,630.7969 425.5,630.7969 C426.0781,630.7969 426.6875,630.9531 427.1563,631.2031 C427.6406,631.4844 427.8125,631.7031 427.9063,632.1094 C427.9688,632.5156 428,632.6406 428.1406,632.7656 C428.2813,632.9063 428.5156,633.0156 428.7344,633.0156 C429,633.0156 429.2656,632.875 429.4375,632.6563 C429.5469,632.5 429.5781,632.3125 429.5781,631.8906 L429.5781,630.4688 C429.5781,630.0313 429.5625,629.9063 429.4688,629.75 C429.3125,629.4844 429.0313,629.3438 428.7344,629.3438 C428.4375,629.3438 428.2344,629.4375 428.0156,629.75 L427.8438,629.6719 Z " fill="#000000"/><text fill="#000000" font-family="sans-serif" font-size="12" lengthAdjust="spacing" textLength="27" x="439.5" y="638.1543">Dino</text><line style="stroke:#A80036;stroke-width:1.5;" x1="411.5" x2="468.5" y1="650" y2="650"/><line style="stroke:#A80036;stroke-width:1.5;" x1="411.5" x2="468.5" y1="658" y2="658"/><!--MD5=[d755c5174fbc4166a0b82a39f0ad1a0e]
class AI--><rect codeLine="48" fill="#FEFECE" filter="url(#f1sj1t22w2s2y1)" height="99.2188" id="AI" style="stroke:#A80036;stroke-width:1.5;" width="118" x="267" y="758.5"/><ellipse cx="316.25" cy="774.5" fill="#ADD1B2" rx="11" ry="11" style="stroke:#A80036;stroke-width:1.0;"/><path d="M318.5938,770.1719 C317.6563,769.7344 317.0625,769.5938 316.1875,769.5938 C313.5625,769.5938 311.5625,771.6719 311.5625,774.3906 L311.5625,775.5156 C311.5625,778.0938 313.6719,779.9844 316.5625,779.9844 C317.7813,779.9844 318.9375,779.6875 319.6875,779.1406 C320.2656,778.7344 320.5938,778.2813 320.5938,777.8906 C320.5938,777.4375 320.2031,777.0469 319.7344,777.0469 C319.5156,777.0469 319.3125,777.125 319.125,777.3125 C318.6719,777.7969 318.6719,777.7969 318.4844,777.8906 C318.0625,778.1563 317.375,778.2813 316.6094,778.2813 C314.5625,778.2813 313.2656,777.1875 313.2656,775.4844 L313.2656,774.3906 C313.2656,772.6094 314.5156,771.2969 316.25,771.2969 C316.8281,771.2969 317.4375,771.4531 317.9063,771.7031 C318.3906,771.9844 318.5625,772.2031 318.6563,772.6094 C318.7188,773.0156 318.75,773.1406 318.8906,773.2656 C319.0313,773.4063 319.2656,773.5156 319.4844,773.5156 C319.75,773.5156 320.0156,773.375 320.1875,773.1563 C320.2969,773 320.3281,772.8125 320.3281,772.3906 L320.3281,770.9688 C320.3281,770.5313 320.3125,770.4063 320.2188,770.25 C320.0625,769.9844 319.7813,769.8438 319.4844,769.8438 C319.1875,769.8438 318.9844,769.9375 318.7656,770.25 L318.5938,770.1719 Z " fill="#000000"/><text fill="#000000" font-family="sans-serif" font-size="12" lengthAdjust="spacing" textLength="11" x="336.75" y="778.6543">AI</text><line style="stroke:#A80036;stroke-width:1.5;" x1="268" x2="384" y1="790.5" y2="790.5"/><text fill="#000000" font-family="sans-serif" font-size="11" lengthAdjust="spacing" textLength="93" x="273" y="804.7104">Building building</text><text fill="#000000" font-family="sans-serif" font-size="11" lengthAdjust="spacing" textLength="106" x="273" y="817.5151">SpeciesColor color</text><text fill="#000000" font-family="sans-serif" font-size="11" lengthAdjust="spacing" textLength="87" x="273" y="830.3198">Activity activity</text><text fill="#000000" font-family="sans-serif" font-size="11" lengthAdjust="spacing" textLength="95" x="273" y="843.1245">boolean pacified</text><line style="stroke:#A80036;stroke-width:1.5;" x1="268" x2="384" y1="849.7188" y2="849.7188"/><!--MD5=[2cb47ba637a0d19583e6199456f6ad0b]
class Player--><rect codeLine="55" fill="#FEFECE" filter="url(#f1sj1t22w2s2y1)" height="137.6328" id="Player" style="stroke:#A80036;stroke-width:1.5;" width="173" x="573.5" y="739"/><ellipse cx="637.75" cy="755" fill="#ADD1B2" rx="11" ry="11" style="stroke:#A80036;stroke-width:1.0;"/><path d="M640.0938,750.6719 C639.1563,750.2344 638.5625,750.0938 637.6875,750.0938 C635.0625,750.0938 633.0625,752.1719 633.0625,754.8906 L633.0625,756.0156 C633.0625,758.5938 635.1719,760.4844 638.0625,760.4844 C639.2813,760.4844 640.4375,760.1875 641.1875,759.6406 C641.7656,759.2344 642.0938,758.7813 642.0938,758.3906 C642.0938,757.9375 641.7031,757.5469 641.2344,757.5469 C641.0156,757.5469 640.8125,757.625 640.625,757.8125 C640.1719,758.2969 640.1719,758.2969 639.9844,758.3906 C639.5625,758.6563 638.875,758.7813 638.1094,758.7813 C636.0625,758.7813 634.7656,757.6875 634.7656,755.9844 L634.7656,754.8906 C634.7656,753.1094 636.0156,751.7969 637.75,751.7969 C638.3281,751.7969 638.9375,751.9531 639.4063,752.2031 C639.8906,752.4844 640.0625,752.7031 640.1563,753.1094 C640.2188,753.5156 640.25,753.6406 640.3906,753.7656 C640.5313,753.9063 640.7656,754.0156 640.9844,754.0156 C641.25,754.0156 641.5156,753.875 641.6875,753.6563 C641.7969,753.5 641.8281,753.3125 641.8281,752.8906 L641.8281,751.4688 C641.8281,751.0313 641.8125,750.9063 641.7188,750.75 C641.5625,750.4844 641.2813,750.3438 640.9844,750.3438 C640.6875,750.3438 640.4844,750.4375 640.2656,750.75 L640.0938,750.6719 Z " fill="#000000"/><text fill="#000000" font-family="sans-serif" font-size="12" lengthAdjust="spacing" textLength="36" x="658.25" y="759.1543">Player</text><line style="stroke:#A80036;stroke-width:1.5;" x1="574.5" x2="745.5" y1="771" y2="771"/><text fill="#000000" font-family="sans-serif" font-size="11" lengthAdjust="spacing" textLength="98" x="579.5" y="785.2104">int[] paperCounts</text><text fill="#000000" font-family="sans-serif" font-size="11" lengthAdjust="spacing" textLength="121" x="579.5" y="798.0151">int[] paperMaxCounts</text><text fill="#000000" font-family="sans-serif" font-size="11" lengthAdjust="spacing" textLength="161" x="579.5" y="810.8198">SpeciesColor selectedPaper</text><line style="stroke:#A80036;stroke-width:1.5;" x1="574.5" x2="745.5" y1="817.4141" y2="817.4141"/><text fill="#000000" font-family="sans-serif" font-size="11" lengthAdjust="spacing" textLength="83" x="579.5" y="831.6245">collectPapers()</text><text fill="#000000" font-family="sans-serif" font-size="11" lengthAdjust="spacing" textLength="75" x="579.5" y="844.4292">selectPaper()</text><text fill="#000000" font-family="sans-serif" font-size="11" lengthAdjust="spacing" textLength="71" x="579.5" y="857.2339">throwPaper()</text><text fill="#000000" font-family="sans-serif" font-size="11" lengthAdjust="spacing" textLength="99" x="579.5" y="870.0386">punchWithPaper()</text><!--MD5=[574ae5e535ab9d722dfd5b5dd8886d51]
class Paper--><rect codeLine="65" fill="#FEFECE" filter="url(#f1sj1t22w2s2y1)" height="73.6094" id="Paper" style="stroke:#A80036;stroke-width:1.5;" width="118" x="420" y="771"/><ellipse cx="458.4" cy="787" fill="#ADD1B2" rx="11" ry="11" style="stroke:#A80036;stroke-width:1.0;"/><path d="M460.7438,782.6719 C459.8063,782.2344 459.2125,782.0938 458.3375,782.0938 C455.7125,782.0938 453.7125,784.1719 453.7125,786.8906 L453.7125,788.0156 C453.7125,790.5938 455.8219,792.4844 458.7125,792.4844 C459.9313,792.4844 461.0875,792.1875 461.8375,791.6406 C462.4156,791.2344 462.7438,790.7813 462.7438,790.3906 C462.7438,789.9375 462.3531,789.5469 461.8844,789.5469 C461.6656,789.5469 461.4625,789.625 461.275,789.8125 C460.8219,790.2969 460.8219,790.2969 460.6344,790.3906 C460.2125,790.6563 459.525,790.7813 458.7594,790.7813 C456.7125,790.7813 455.4156,789.6875 455.4156,787.9844 L455.4156,786.8906 C455.4156,785.1094 456.6656,783.7969 458.4,783.7969 C458.9781,783.7969 459.5875,783.9531 460.0563,784.2031 C460.5406,784.4844 460.7125,784.7031 460.8063,785.1094 C460.8688,785.5156 460.9,785.6406 461.0406,785.7656 C461.1813,785.9063 461.4156,786.0156 461.6344,786.0156 C461.9,786.0156 462.1656,785.875 462.3375,785.6563 C462.4469,785.5 462.4781,785.3125 462.4781,784.8906 L462.4781,783.4688 C462.4781,783.0313 462.4625,782.9063 462.3688,782.75 C462.2125,782.4844 461.9313,782.3438 461.6344,782.3438 C461.3375,782.3438 461.1344,782.4375 460.9156,782.75 L460.7438,782.6719 Z " fill="#000000"/><text fill="#000000" font-family="sans-serif" font-size="12" lengthAdjust="spacing" textLength="34" x="477.6" y="791.1543">Paper</text><line style="stroke:#A80036;stroke-width:1.5;" x1="421" x2="537" y1="803" y2="803"/><text fill="#000000" font-family="sans-serif" font-size="11" lengthAdjust="spacing" textLength="106" x="426" y="817.2104">SpeciesColor color</text><text fill="#000000" font-family="sans-serif" font-size="11" lengthAdjust="spacing" textLength="80" x="426" y="830.0151">float[2] speed</text><line style="stroke:#A80036;stroke-width:1.5;" x1="421" x2="537" y1="836.6094" y2="836.6094"/><!--MD5=[c881b25adf3665c6568c9693d41a70f3]
class Activity--><rect codeLine="70" fill="#FEFECE" filter="url(#f1sj1t22w2s2y1)" height="86.4141" id="Activity" style="stroke:#A80036;stroke-width:1.5;" width="75" x="288.5" y="937"/><ellipse cx="303.5" cy="953" fill="#EB937F" rx="11" ry="11" style="stroke:#A80036;stroke-width:1.0;"/><path d="M302.2969,953.875 L303.75,953.875 L303.75,953.9844 C303.75,954.3906 303.7813,954.5469 303.8594,954.7031 C304.0156,954.9531 304.2969,955.1094 304.5938,955.1094 C304.8438,955.1094 305.1094,954.9688 305.2656,954.75 C305.3906,954.5938 305.4219,954.4375 305.4219,953.9844 L305.4219,952.0625 C305.4219,951.9063 305.4219,951.8594 305.4063,951.7031 C305.3438,951.2344 305.0313,950.9219 304.5781,950.9219 C304.3281,950.9219 304.0625,951.0625 303.8906,951.2813 C303.7813,951.4531 303.75,951.6094 303.75,952.0625 L303.75,952.1875 L302.2969,952.1875 L302.2969,949.7813 L306.2813,949.7813 L306.2813,950.6406 C306.2813,951.0469 306.3125,951.2188 306.3906,951.375 C306.5625,951.625 306.8438,951.7813 307.125,951.7813 C307.3906,951.7813 307.6563,951.6406 307.8281,951.4219 C307.9375,951.25 307.9688,951.1094 307.9688,950.6406 L307.9688,948.0938 L300.3438,948.0938 C299.9063,948.0938 299.7813,948.1094 299.625,948.2031 C299.375,948.3594 299.2188,948.6563 299.2188,948.9375 C299.2188,949.2188 299.3594,949.4688 299.5781,949.6406 C299.7344,949.75 299.9219,949.7813 300.3438,949.7813 L300.5938,949.7813 L300.5938,956.2969 L300.3438,956.2969 C299.9375,956.2969 299.7813,956.3125 299.625,956.4219 C299.375,956.5938 299.2188,956.8594 299.2188,957.1563 C299.2188,957.4219 299.3594,957.6719 299.5781,957.8281 C299.7188,957.9531 299.9531,958 300.3438,958 L308.3438,958 L308.3438,955.4219 C308.3438,954.9844 308.3125,954.8438 308.2344,954.6875 C308.0625,954.4375 307.7813,954.2813 307.5,954.2813 C307.2344,954.2813 306.9688,954.3906 306.7969,954.6406 C306.6875,954.7969 306.6563,954.9375 306.6563,955.4219 L306.6563,956.2969 L302.2969,956.2969 L302.2969,953.875 Z " fill="#000000"/><text fill="#000000" font-family="sans-serif" font-size="12" lengthAdjust="spacing" textLength="43" x="317.5" y="957.1543">Activity</text><line style="stroke:#A80036;stroke-width:1.5;" x1="289.5" x2="362.5" y1="969" y2="969"/><text fill="#000000" font-family="sans-serif" font-size="11" lengthAdjust="spacing" textLength="59" x="294.5" y="983.2104">wandering</text><text fill="#000000" font-family="sans-serif" font-size="11" lengthAdjust="spacing" textLength="39" x="294.5" y="996.0151">resting</text><text fill="#000000" font-family="sans-serif" font-size="11" lengthAdjust="spacing" textLength="39" x="294.5" y="1008.8198">hangry</text><line style="stroke:#A80036;stroke-width:1.5;" x1="289.5" x2="362.5" y1="1015.4141" y2="1015.4141"/><!--MD5=[bdc64ea1417373d8993b223e9e2d2b5f]
class SpeciesColor--><rect codeLine="76" fill="#FEFECE" filter="url(#f1sj1t22w2s2y1)" height="73.6094" id="SpeciesColor" style="stroke:#A80036;stroke-width:1.5;" width="113" x="422.5" y="943"/><ellipse cx="437.5" cy="959" fill="#EB937F" rx="11" ry="11" style="stroke:#A80036;stroke-width:1.0;"/><path d="M436.2969,959.875 L437.75,959.875 L437.75,959.9844 C437.75,960.3906 437.7813,960.5469 437.8594,960.7031 C438.0156,960.9531 438.2969,961.1094 438.5938,961.1094 C438.8438,961.1094 439.1094,960.9688 439.2656,960.75 C439.3906,960.5938 439.4219,960.4375 439.4219,959.9844 L439.4219,958.0625 C439.4219,957.9063 439.4219,957.8594 439.4063,957.7031 C439.3438,957.2344 439.0313,956.9219 438.5781,956.9219 C438.3281,956.9219 438.0625,957.0625 437.8906,957.2813 C437.7813,957.4531 437.75,957.6094 437.75,958.0625 L437.75,958.1875 L436.2969,958.1875 L436.2969,955.7813 L440.2813,955.7813 L440.2813,956.6406 C440.2813,957.0469 440.3125,957.2188 440.3906,957.375 C440.5625,957.625 440.8438,957.7813 441.125,957.7813 C441.3906,957.7813 441.6563,957.6406 441.8281,957.4219 C441.9375,957.25 441.9688,957.1094 441.9688,956.6406 L441.9688,954.0938 L434.3438,954.0938 C433.9063,954.0938 433.7813,954.1094 433.625,954.2031 C433.375,954.3594 433.2188,954.6563 433.2188,954.9375 C433.2188,955.2188 433.3594,955.4688 433.5781,955.6406 C433.7344,955.75 433.9219,955.7813 434.3438,955.7813 L434.5938,955.7813 L434.5938,962.2969 L434.3438,962.2969 C433.9375,962.2969 433.7813,962.3125 433.625,962.4219 C433.375,962.5938 433.2188,962.8594 433.2188,963.1563 C433.2188,963.4219 433.3594,963.6719 433.5781,963.8281 C433.7188,963.9531 433.9531,964 434.3438,964 L442.3438,964 L442.3438,961.4219 C442.3438,960.9844 442.3125,960.8438 442.2344,960.6875 C442.0625,960.4375 441.7813,960.2813 441.5,960.2813 C441.2344,960.2813 440.9688,960.3906 440.7969,960.6406 C440.6875,960.7969 440.6563,960.9375 440.6563,961.4219 L440.6563,962.2969 L436.2969,962.2969 L436.2969,959.875 Z " fill="#000000"/><text fill="#000000" font-family="sans-serif" font-size="12" lengthAdjust="spacing" textLength="81" x="451.5" y="963.1543">SpeciesColor</text><line style="stroke:#A80036;stroke-width:1.5;" x1="423.5" x2="534.5" y1="975" y2="975"/><text fill="#000000" font-family="sans-serif" font-size="11" lengthAdjust="spacing" textLength="19" x="428.5" y="989.2104">red</text><text fill="#000000" font-family="sans-serif" font-size="11" lengthAdjust="spacing" textLength="25" x="428.5" y="1002.0151">blue</text><line style="stroke:#A80036;stroke-width:1.5;" x1="423.5" x2="534.5" y1="1008.6094" y2="1008.6094"/><!--MD5=[9b42e2c40c5c3250f6f2cff3a893cb2e]
reverse link Entity to Nest--><path d="M353.194,405.69 C347.622,426.143 341.674,447.977 337.07,464.878 " fill="none" id="Entity-backto-Nest" style="stroke:#A80036;stroke-width:1.0;"/><polygon fill="none" points="346.459,403.78,358.47,386.323,359.967,407.46,346.459,403.78" style="stroke:#A80036;stroke-width:1.0;"/><!--MD5=[bf7f4d8930ae200ca6b27288c56a3d7a]
reverse link Entity to Building--><path d="M294.089,393.387 C268.132,412.028 243.87,432.073 237,446 C211.919,496.843 228.346,564.037 242.898,604.806 " fill="none" id="Entity-backto-Building" style="stroke:#A80036;stroke-width:1.0;"/><polygon fill="none" points="290.372,387.445,310.775,381.726,298.392,398.92,290.372,387.445" style="stroke:#A80036;stroke-width:1.0;"/><!--MD5=[544e9875717ef78f0a495c51cccde454]
reverse link Entity to DynamicEntity--><path d="M427.683,400.74 C442.782,415.593 458.923,431.47 473.551,445.859 " fill="none" id="Entity-backto-DynamicEntity" style="stroke:#A80036;stroke-width:1.0;"/><polygon fill="none" points="422.376,405.339,413.026,386.323,432.193,395.358,422.376,405.339" style="stroke:#A80036;stroke-width:1.0;"/><!--MD5=[992b618b077310a5d94725a48563bc7b]
reverse link DynamicEntity to Dino--><path d="M485.078,562.52 C473.677,582.37 461.913,602.851 453.262,617.911 " fill="none" id="DynamicEntity-backto-Dino" style="stroke:#A80036;stroke-width:1.0;"/><polygon fill="none" points="479.1,558.875,495.131,545.018,491.24,565.848,479.1,558.875" style="stroke:#A80036;stroke-width:1.0;"/><!--MD5=[baa2962affdb08c86284bf861b27f29c]
reverse link Dino to AI--><path d="M412.26,682.906 C396.462,705.634 376.548,734.282 359.836,758.323 " fill="none" id="Dino-backto-AI" style="stroke:#A80036;stroke-width:1.0;"/><polygon fill="none" points="406.745,678.576,423.908,666.149,418.241,686.567,406.745,678.576" style="stroke:#A80036;stroke-width:1.0;"/><!--MD5=[4aeec6e5b5c55acc33d746391462528e]
reverse link Dino to Player--><path d="M485.987,677.281 C511.326,696.17 543.615,720.24 573.482,742.505 " fill="none" id="Dino-backto-Player" style="stroke:#A80036;stroke-width:1.0;"/><polygon fill="none" points="481.521,682.683,469.67,665.118,489.889,671.459,481.521,682.683" style="stroke:#A80036;stroke-width:1.0;"/><!--MD5=[6cd0be0e1da4a575eaa73052b6316d8e]
reverse link DynamicEntity to Paper--><path d="M513.299,564.961 C504.293,628.509 491.238,720.641 484.112,770.926 " fill="none" id="DynamicEntity-backto-Paper" style="stroke:#A80036;stroke-width:1.0;"/><polygon fill="none" points="506.388,563.836,516.125,545.016,520.25,565.8,506.388,563.836" style="stroke:#A80036;stroke-width:1.0;"/><!--MD5=[2447db2d5398c13e17973605d13e2ad0]
link World to Grid--><path codeLine="81" d="M431,106.018 C382.804,131.435 326.251,161.26 289.129,180.837 " fill="none" id="World-Grid" style="stroke:#A80036;stroke-width:1.0;"/><text fill="#000000" font-family="sans-serif" font-size="13" lengthAdjust="spacing" textLength="8" x="408.9" y="126.4531">0</text><text fill="#000000" font-family="sans-serif" font-size="13" lengthAdjust="spacing" textLength="8" x="296.9895" y="172.6668">1</text><!--MD5=[4002627d21c3ad16fb74c62a082ce548]
link World to DynamicEntity--><path codeLine="82" d="M523,106.357 C523,190.546 523,361.986 523,445.957 " fill="none" id="World-DynamicEntity" style="stroke:#A80036;stroke-width:1.0;"/><text fill="#000000" font-family="sans-serif" font-size="13" lengthAdjust="spacing" textLength="8" x="514.4625" y="126.1255">1</text><text fill="#000000" font-family="sans-serif" font-size="13" lengthAdjust="spacing" textLength="7" x="515.5078" y="434.9962">*</text><!--MD5=[aca5a173d2d190bf3d99ef9c47e1596c]
link World to Player--><path codeLine="83" d="M563.364,106.486 C603.775,160.621 660,252.094 660,342 C660,342 660,342 660,496.5 C660,579.92 660,675.947 660,738.856 " fill="none" id="World-Player" style="stroke:#A80036;stroke-width:1.0;"/><text fill="#000000" font-family="sans-serif" font-size="13" lengthAdjust="spacing" textLength="8" x="560.2504" y="126.2718">0</text><text fill="#000000" font-family="sans-serif" font-size="13" lengthAdjust="spacing" textLength="8" x="651.5875" y="728.0448">1</text><!--MD5=[d31bdcbbaabb43506266532ce7787e4b]
link Grid to Cell--><path codeLine="84" d="M208.83,234.627 C181.231,255.669 144.475,283.693 115.434,305.835 " fill="none" id="Grid-Cell" style="stroke:#A80036;stroke-width:1.0;"/><text fill="#000000" font-family="sans-serif" font-size="13" lengthAdjust="spacing" textLength="8" x="192.9622" y="236.0381">0</text><text fill="#000000" font-family="sans-serif" font-size="13" lengthAdjust="spacing" textLength="7" x="116.2597" y="294.9926">*</text><!--MD5=[625c4cddad4da778bd8c968c984df8b1]
link Cell to Piece--><path codeLine="85" d="M129.156,343 C140.748,343 152.34,343 163.932,343 " fill="none" id="Cell-Piece" style="stroke:#A80036;stroke-width:1.0;"/><text fill="#000000" font-family="sans-serif" font-size="13" lengthAdjust="spacing" textLength="8" x="137.0969" y="339.1847">0</text><text fill="#000000" font-family="sans-serif" font-size="13" lengthAdjust="spacing" textLength="7" x="148.9276" y="339.0402">*</text><!--MD5=[8130f8c65851955adfcb1602526b4bb3]
link Piece to Entity--><path codeLine="86" d="M276.25,343 C287.725,343 299.199,343 310.674,343 " fill="none" id="Piece-Entity" style="stroke:#A80036;stroke-width:1.0;"/><text fill="#000000" font-family="sans-serif" font-size="13" lengthAdjust="spacing" textLength="10" x="284.0977" y="339.0879">+</text><text fill="#000000" font-family="sans-serif" font-size="13" lengthAdjust="spacing" textLength="8" x="294.9561" y="339.1357">1</text><!--MD5=[311976ed05cb909bcfa8bded70f9b41d]
link Building to AI--><path codeLine="87" d="M273.091,679.397 C282.717,702.611 295.307,732.975 305.79,758.259 " fill="none" id="Building-AI" style="stroke:#A80036;stroke-width:1.0;"/><text fill="#000000" font-family="sans-serif" font-size="13" lengthAdjust="spacing" textLength="8" x="266.8586" y="698.6611">1</text><text fill="#000000" font-family="sans-serif" font-size="13" lengthAdjust="spacing" textLength="8" x="294.3855" y="747.2703">1</text><!--MD5=[678289fa504f8c99d40a55ed50cc38cc]
link AI to Activity--><path codeLine="88" d="M326,857.715 C326,882.734 326,912.917 326,936.9136 " fill="none" id="AI-Activity" style="stroke:#A80036;stroke-width:1.0;"/><!--MD5=[551cf52d423e0769c9b6976e3e85987b]
link AI to SpeciesColor--><path codeLine="89" d="M369.844,857.715 C394.304,884.893 424.247,918.163 446.581,942.979 " fill="none" id="AI-SpeciesColor" style="stroke:#A80036;stroke-width:1.0;"/><!--MD5=[e75a45a3ef897ffd12f1bd18f7d46960]
link Player to SpeciesColor--><path codeLine="90" d="M587.423,877.166 C563.524,899.613 537.888,923.6912 517.546,942.7962 " fill="none" id="Player-SpeciesColor" style="stroke:#A80036;stroke-width:1.0;"/><!--MD5=[99cc7005e9ebf5af8f8ecf140a4a427c]
link Paper to SpeciesColor--><path codeLine="91" d="M479,845.053 C479,873.902 479,914.163 479,942.9993 " fill="none" id="Paper-SpeciesColor" style="stroke:#A80036;stroke-width:1.0;"/><!--MD5=[ecc7825b08c9bfff5a57a7e1f432005f]
@startuml
class World {
	List<DynamicEntity> dynamicEntities
	Player player
	update()
	render()
}

class Grid {
	Cell[][] cells
	render()
}

class Cell {
	List<Piece> pieces
	render()
}

class Piece {
	Entity entity
	boolean walkable
	render()
}

abstract class Entity {
	static Image sprite
	Piece[][] pieces
	int[2] position
}

class Nest extends Entity {
	float[] paperProbabilities
}

class Building extends Entity {
	AI dino
	int type // 0: House
}

abstract class DynamicEntity extends Entity {
	World world
	DynamicEntity(World world)
	update()
	move()
}

class Dino extends DynamicEntity

class AI extends Dino {
	Building building
	SpeciesColor color
	Activity activity
	boolean pacified
}

class Player extends Dino {
	int[] paperCounts
	int[] paperMaxCounts
	SpeciesColor selectedPaper
	collectPapers()
	selectPaper()
	throwPaper()
	punchWithPaper()
}

class Paper extends DynamicEntity {
	SpeciesColor color
	float[2] speed
}

enum Activity {
	wandering
	resting
	hangry
}

enum SpeciesColor {
	red
	blue
}

World "0"- -down"1" Grid
World "1"- -down"*" DynamicEntity
World "0"- -"1" Player
Grid "0"- -down"*" Cell
Cell "0"- -right"*" Piece
Piece "+"- -right"1" Entity
Building "1"- -"1" AI
AI - - Activity
AI - - SpeciesColor
Player - - SpeciesColor
Paper - - SpeciesColor
@enduml

PlantUML version 1.2021.2beta2(Unknown compile time)
(GPL source distribution)
Java Runtime: Java(TM) SE Runtime Environment
JVM: Java HotSpot(TM) 64-Bit Server VM
Default Encoding: UTF-8
Language: en
Country: US
--></g></svg>