<?xml version="1.0" encoding="UTF-8" standalone="no"?><svg xmlns="http://www.w3.org/2000/svg" xmlns:xlink="http://www.w3.org/1999/xlink" contentScriptType="application/ecmascript" contentStyleType="text/css" height="1166px" preserveAspectRatio="none" style="width:1041px;height:1166px;" version="1.1" viewBox="0 0 1041 1166" width="1041px" zoomAndPan="magnify">
    <defs>
        <filter height="300%" id="fxpqy0t2mdtp5" width="300%" x="-1" y="-1">
            <feGaussianBlur result="blurOut" stdDeviation="2.0" />
            <feColorMatrix in="blurOut" result="blurOut2" type="matrix" values="0 0 0 0 0 0 0 0 0 0 0 0 0 0 0 0 0 0 .4 0" />
            <feOffset dx="4.0" dy="4.0" in="blurOut2" result="blurOut3" />
            <feBlend in="SourceGraphic" in2="blurOut3" mode="normal" />
        </filter>
    </defs>
    <g>
        <!--MD5=[2a013135f1f90689be40a3c084fed702]
cluster entities-->
        <polygon fill="#FFFFFF" filter="url(#fxpqy0t2mdtp5)" points="22,462,81,462,88,485.6094,984,485.6094,984,1050,22,1050,22,462" style="stroke: #000000; stroke-width: 1.5;" />
        <line style="stroke: #000000; stroke-width: 1.5;" x1="22" x2="88" y1="485.6094" y2="485.6094" /><text fill="#000000" font-family="sans-serif" font-size="14" font-weight="bold" lengthAdjust="spacingAndGlyphs" textLength="53" x="26" y="478.5332">entities</text>
        <!--MD5=[efcbed1fd1e0b4524ff82ab934a6aa1b]
cluster stationary-->
        <polygon fill="#FFFFFF" filter="url(#fxpqy0t2mdtp5)" points="509,625,584,625,591,648.6094,960,648.6094,960,767,509,767,509,625" style="stroke: #000000; stroke-width: 1.5;" />
        <line style="stroke: #000000; stroke-width: 1.5;" x1="509" x2="591" y1="648.6094" y2="648.6094" /><text fill="#000000" font-family="sans-serif" font-size="14" font-weight="bold" lengthAdjust="spacingAndGlyphs" textLength="69" x="513" y="641.5332">stationary</text>
        <!--MD5=[f2e08e0b22987c606f6efdecb21fca7b]
cluster dynamic-->
        <polygon fill="#FFFFFF" filter="url(#fxpqy0t2mdtp5)" points="46,625,109,625,116,648.6094,485,648.6094,485,1026,46,1026,46,625" style="stroke: #000000; stroke-width: 1.5;" />
        <line style="stroke: #000000; stroke-width: 1.5;" x1="46" x2="116" y1="648.6094" y2="648.6094" /><text fill="#000000" font-family="sans-serif" font-size="14" font-weight="bold" lengthAdjust="spacingAndGlyphs" textLength="57" x="50" y="641.5332">dynamic</text>
        <!--MD5=[e8fde4a48cb0b04cf8ca51574c841ea1]
cluster dinos-->
        <polygon fill="#FFFFFF" filter="url(#fxpqy0t2mdtp5)" points="70,791,115,791,122,814.6094,461,814.6094,461,1002,70,1002,70,791" style="stroke: #000000; stroke-width: 1.5;" />
        <line style="stroke: #000000; stroke-width: 1.5;" x1="70" x2="122" y1="814.6094" y2="814.6094" /><text fill="#000000" font-family="sans-serif" font-size="14" font-weight="bold" lengthAdjust="spacingAndGlyphs" textLength="39" x="74" y="807.5332">dinos</text>
        <!--MD5=[a9d92df23f780163d0221e16483f0121]
class StationaryEntity-->
        <rect fill="#FEFECE" filter="url(#fxpqy0t2mdtp5)" height="61.8359" id="StationaryEntity" style="stroke: #A80036; stroke-width: 1.5;" width="152" x="541" y="518.5" />
        <ellipse cx="571.75" cy="534.5" fill="#A9DCDF" rx="11" ry="11" style="stroke: #A80036; stroke-width: 1.0;" />
        <path d="M573.9375,536.2656 L569.7969,536.2656 L569.375,537.2969 L569.7969,537.2969 Q570.4063,537.2969 570.6719,537.5313 Q570.9375,537.7656 570.9375,538.1563 Q570.9375,538.5313 570.6719,538.7656 Q570.4063,539 569.7969,539 L567.5,539 Q566.8906,539 566.6328,538.7656 Q566.375,538.5313 566.375,538.1406 Q566.375,537.7656 566.6484,537.5234 Q566.9219,537.2813 567.5469,537.2969 L570.2188,530.6406 L569.1094,530.6406 Q568.5,530.6406 568.2344,530.4063 Q567.9688,530.1719 567.9688,529.7813 Q567.9688,529.4063 568.2344,529.1719 Q568.5,528.9375 569.1094,528.9375 L572.7813,528.9375 L576.1719,537.2969 Q576.7656,537.2969 576.9531,537.4375 Q577.3438,537.7031 577.3438,538.1563 Q577.3438,538.5313 577.0859,538.7656 Q576.8281,539 576.2188,539 L573.9219,539 Q573.3125,539 573.0469,538.7656 Q572.7813,538.5313 572.7813,538.1406 Q572.7813,537.7656 573.0469,537.5313 Q573.3125,537.2969 573.9219,537.2969 L574.3438,537.2969 L573.9375,536.2656 Z M573.2188,534.5625 L571.8594,531.1875 L570.4844,534.5625 L573.2188,534.5625 Z " /><text fill="#000000" font-family="sans-serif" font-size="12" font-style="italic" lengthAdjust="spacingAndGlyphs" textLength="85" x="589.25" y="539.4102">StationaryEntity</text>
        <line style="stroke: #A80036; stroke-width: 1.5;" x1="542" x2="692" y1="550.5" y2="550.5" />
        <line style="stroke: #A80036; stroke-width: 1.5;" x1="542" x2="692" y1="558.5" y2="558.5" /><text fill="#000000" font-family="sans-serif" font-size="11" lengthAdjust="spacingAndGlyphs" textLength="140" x="547" y="573.9189">StationaryEntity(int[] position)</text>
        <!--MD5=[fb4c30fb1fb270e3f19f5aaa9eb17fad]
class DynamicEntity-->
        <rect fill="#FEFECE" filter="url(#fxpqy0t2mdtp5)" height="103.3438" id="DynamicEntity" style="stroke: #A80036; stroke-width: 1.5;" width="209" x="249.5" y="498" />
        <ellipse cx="310.25" cy="514" fill="#A9DCDF" rx="11" ry="11" style="stroke: #A80036; stroke-width: 1.0;" />
        <path d="M312.4375,515.7656 L308.2969,515.7656 L307.875,516.7969 L308.2969,516.7969 Q308.9063,516.7969 309.1719,517.0313 Q309.4375,517.2656 309.4375,517.6563 Q309.4375,518.0313 309.1719,518.2656 Q308.9063,518.5 308.2969,518.5 L306,518.5 Q305.3906,518.5 305.1328,518.2656 Q304.875,518.0313 304.875,517.6406 Q304.875,517.2656 305.1484,517.0234 Q305.4219,516.7813 306.0469,516.7969 L308.7188,510.1406 L307.6094,510.1406 Q307,510.1406 306.7344,509.9063 Q306.4688,509.6719 306.4688,509.2813 Q306.4688,508.9063 306.7344,508.6719 Q307,508.4375 307.6094,508.4375 L311.2813,508.4375 L314.6719,516.7969 Q315.2656,516.7969 315.4531,516.9375 Q315.8438,517.2031 315.8438,517.6563 Q315.8438,518.0313 315.5859,518.2656 Q315.3281,518.5 314.7188,518.5 L312.4219,518.5 Q311.8125,518.5 311.5469,518.2656 Q311.2813,518.0313 311.2813,517.6406 Q311.2813,517.2656 311.5469,517.0313 Q311.8125,516.7969 312.4219,516.7969 L312.8438,516.7969 L312.4375,515.7656 Z M311.7188,514.0625 L310.3594,510.6875 L308.9844,514.0625 L311.7188,514.0625 Z " /><text fill="#000000" font-family="sans-serif" font-size="12" font-style="italic" lengthAdjust="spacingAndGlyphs" textLength="79" x="330.75" y="518.9102">DynamicEntity</text>
        <line style="stroke: #A80036; stroke-width: 1.5;" x1="250.5" x2="457.5" y1="530" y2="530" /><text fill="#000000" font-family="sans-serif" font-size="11" lengthAdjust="spacingAndGlyphs" textLength="59" x="255.5" y="545.4189">World world</text>
        <line style="stroke: #A80036; stroke-width: 1.5;" x1="250.5" x2="457.5" y1="551.8359" y2="551.8359" /><text fill="#000000" font-family="sans-serif" font-size="11" lengthAdjust="spacingAndGlyphs" textLength="197" x="255.5" y="567.2549">DynamicEntity(World world, int[] position)</text><text fill="#000000" font-family="sans-serif" font-size="11" lengthAdjust="spacingAndGlyphs" textLength="41" x="255.5" y="581.0908">update()</text><text fill="#000000" font-family="sans-serif" font-size="11" lengthAdjust="spacingAndGlyphs" textLength="34" x="255.5" y="594.9268">move()</text>
        <!--MD5=[222513e4f8ac55ee2a6ad0b0f8e14e8f]
class Nest-->
        <rect fill="#FEFECE" filter="url(#fxpqy0t2mdtp5)" height="75.6719" id="Nest" style="stroke: #A80036; stroke-width: 1.5;" width="164" x="525" y="668" />
        <ellipse cx="589.75" cy="684" fill="#ADD1B2" rx="11" ry="11" style="stroke: #A80036; stroke-width: 1.0;" />
        <path d="M592.5156,679.875 Q592.6719,679.6563 592.8594,679.5469 Q593.0469,679.4375 593.2656,679.4375 Q593.6406,679.4375 593.875,679.6953 Q594.1094,679.9531 594.1094,680.5625 L594.1094,682.0156 Q594.1094,682.625 593.875,682.8906 Q593.6406,683.1563 593.2656,683.1563 Q592.9219,683.1563 592.7188,682.9531 Q592.5156,682.7656 592.4063,682.25 Q592.3594,681.8906 592.1719,681.7031 Q591.8438,681.3281 591.2344,681.1094 Q590.625,680.8906 590,680.8906 Q589.2344,680.8906 588.6016,681.2188 Q587.9688,681.5469 587.4766,682.2969 Q586.9844,683.0469 586.9844,684.0781 L586.9844,685.1719 Q586.9844,686.4063 587.875,687.2266 Q588.7656,688.0469 590.3594,688.0469 Q591.2969,688.0469 591.9531,687.7969 Q592.3438,687.6406 592.7656,687.2031 Q593.0313,686.9375 593.1797,686.8594 Q593.3281,686.7813 593.5313,686.7813 Q593.8594,686.7813 594.1172,687.0391 Q594.375,687.2969 594.375,687.6406 Q594.375,687.9844 594.0313,688.3906 Q593.5313,688.9688 592.7344,689.2969 Q591.6563,689.75 590.3594,689.75 Q588.8438,689.75 587.6406,689.125 Q586.6563,688.625 585.9688,687.5547 Q585.2813,686.4844 585.2813,685.2031 L585.2813,684.0469 Q585.2813,682.7188 585.8984,681.5703 Q586.5156,680.4219 587.6094,679.8047 Q588.7031,679.1875 589.9375,679.1875 Q590.6719,679.1875 591.3203,679.3516 Q591.9688,679.5156 592.5156,679.875 Z " /><text fill="#000000" font-family="sans-serif" font-size="12" lengthAdjust="spacingAndGlyphs" textLength="26" x="610.25" y="688.9102">Nest</text>
        <line style="stroke: #A80036; stroke-width: 1.5;" x1="526" x2="688" y1="700" y2="700" /><text fill="#000000" font-family="sans-serif" font-size="11" lengthAdjust="spacingAndGlyphs" textLength="115" x="531" y="715.4189">float[] paperProbabilities</text>
        <line style="stroke: #A80036; stroke-width: 1.5;" x1="526" x2="688" y1="721.8359" y2="721.8359" /><text fill="#000000" font-family="sans-serif" font-size="11" lengthAdjust="spacingAndGlyphs" textLength="152" x="531" y="737.2549">Nest(World world, int[] position)</text>
        <!--MD5=[8560f289a30852a9f75d64e53f926853]
class Building-->
        <rect fill="#FEFECE" filter="url(#fxpqy0t2mdtp5)" height="89.5078" id="Building" style="stroke: #A80036; stroke-width: 1.5;" width="220" x="724" y="661" />
        <ellipse cx="807.25" cy="677" fill="#ADD1B2" rx="11" ry="11" style="stroke: #A80036; stroke-width: 1.0;" />
        <path d="M810.0156,672.875 Q810.1719,672.6563 810.3594,672.5469 Q810.5469,672.4375 810.7656,672.4375 Q811.1406,672.4375 811.375,672.6953 Q811.6094,672.9531 811.6094,673.5625 L811.6094,675.0156 Q811.6094,675.625 811.375,675.8906 Q811.1406,676.1563 810.7656,676.1563 Q810.4219,676.1563 810.2188,675.9531 Q810.0156,675.7656 809.9063,675.25 Q809.8594,674.8906 809.6719,674.7031 Q809.3438,674.3281 808.7344,674.1094 Q808.125,673.8906 807.5,673.8906 Q806.7344,673.8906 806.1016,674.2188 Q805.4688,674.5469 804.9766,675.2969 Q804.4844,676.0469 804.4844,677.0781 L804.4844,678.1719 Q804.4844,679.4063 805.375,680.2266 Q806.2656,681.0469 807.8594,681.0469 Q808.7969,681.0469 809.4531,680.7969 Q809.8438,680.6406 810.2656,680.2031 Q810.5313,679.9375 810.6797,679.8594 Q810.8281,679.7813 811.0313,679.7813 Q811.3594,679.7813 811.6172,680.0391 Q811.875,680.2969 811.875,680.6406 Q811.875,680.9844 811.5313,681.3906 Q811.0313,681.9688 810.2344,682.2969 Q809.1563,682.75 807.8594,682.75 Q806.3438,682.75 805.1406,682.125 Q804.1563,681.625 803.4688,680.5547 Q802.7813,679.4844 802.7813,678.2031 L802.7813,677.0469 Q802.7813,675.7188 803.3984,674.5703 Q804.0156,673.4219 805.1094,672.8047 Q806.2031,672.1875 807.4375,672.1875 Q808.1719,672.1875 808.8203,672.3516 Q809.4688,672.5156 810.0156,672.875 Z " /><text fill="#000000" font-family="sans-serif" font-size="12" lengthAdjust="spacingAndGlyphs" textLength="45" x="827.75" y="681.9102">Building</text>
        <line style="stroke: #A80036; stroke-width: 1.5;" x1="725" x2="943" y1="693" y2="693" /><text fill="#000000" font-family="sans-serif" font-size="11" lengthAdjust="spacingAndGlyphs" textLength="33" x="730" y="708.4189">AI dino</text><text fill="#000000" font-family="sans-serif" font-size="11" lengthAdjust="spacingAndGlyphs" textLength="90" x="730" y="722.2549">int type // 0: House</text>
        <line style="stroke: #A80036; stroke-width: 1.5;" x1="725" x2="943" y1="728.6719" y2="728.6719" /><text fill="#000000" font-family="sans-serif" font-size="11" lengthAdjust="spacingAndGlyphs" textLength="208" x="730" y="744.0908">Building(World world, int type, int[] position)</text>
        <!--MD5=[0b747b16fd15de0ba6a1fc1f13282ea0]
class Dino-->
        <rect fill="#FEFECE" filter="url(#fxpqy0t2mdtp5)" height="61.8359" id="Dino" style="stroke: #A80036; stroke-width: 1.5;" width="163" x="272.5" y="675" />
        <ellipse cx="336.75" cy="691" fill="#ADD1B2" rx="11" ry="11" style="stroke: #A80036; stroke-width: 1.0;" />
        <path d="M339.5156,686.875 Q339.6719,686.6563 339.8594,686.5469 Q340.0469,686.4375 340.2656,686.4375 Q340.6406,686.4375 340.875,686.6953 Q341.1094,686.9531 341.1094,687.5625 L341.1094,689.0156 Q341.1094,689.625 340.875,689.8906 Q340.6406,690.1563 340.2656,690.1563 Q339.9219,690.1563 339.7188,689.9531 Q339.5156,689.7656 339.4063,689.25 Q339.3594,688.8906 339.1719,688.7031 Q338.8438,688.3281 338.2344,688.1094 Q337.625,687.8906 337,687.8906 Q336.2344,687.8906 335.6016,688.2188 Q334.9688,688.5469 334.4766,689.2969 Q333.9844,690.0469 333.9844,691.0781 L333.9844,692.1719 Q333.9844,693.4063 334.875,694.2266 Q335.7656,695.0469 337.3594,695.0469 Q338.2969,695.0469 338.9531,694.7969 Q339.3438,694.6406 339.7656,694.2031 Q340.0313,693.9375 340.1797,693.8594 Q340.3281,693.7813 340.5313,693.7813 Q340.8594,693.7813 341.1172,694.0391 Q341.375,694.2969 341.375,694.6406 Q341.375,694.9844 341.0313,695.3906 Q340.5313,695.9688 339.7344,696.2969 Q338.6563,696.75 337.3594,696.75 Q335.8438,696.75 334.6406,696.125 Q333.6563,695.625 332.9688,694.5547 Q332.2813,693.4844 332.2813,692.2031 L332.2813,691.0469 Q332.2813,689.7188 332.8984,688.5703 Q333.5156,687.4219 334.6094,686.8047 Q335.7031,686.1875 336.9375,686.1875 Q337.6719,686.1875 338.3203,686.3516 Q338.9688,686.5156 339.5156,686.875 Z " /><text fill="#000000" font-family="sans-serif" font-size="12" lengthAdjust="spacingAndGlyphs" textLength="26" x="357.25" y="695.9102">Dino</text>
        <line style="stroke: #A80036; stroke-width: 1.5;" x1="273.5" x2="434.5" y1="707" y2="707" />
        <line style="stroke: #A80036; stroke-width: 1.5;" x1="273.5" x2="434.5" y1="715" y2="715" /><text fill="#000000" font-family="sans-serif" font-size="11" lengthAdjust="spacingAndGlyphs" textLength="151" x="278.5" y="730.4189">Dino(World world, int[] position)</text>
        <!--MD5=[574ae5e535ab9d722dfd5b5dd8886d51]
class Paper-->
        <rect fill="#FEFECE" filter="url(#fxpqy0t2mdtp5)" height="89.5078" id="Paper" style="stroke: #A80036; stroke-width: 1.5;" width="170" x="65" y="661" />
        <ellipse cx="129.25" cy="677" fill="#ADD1B2" rx="11" ry="11" style="stroke: #A80036; stroke-width: 1.0;" />
        <path d="M132.0156,672.875 Q132.1719,672.6563 132.3594,672.5469 Q132.5469,672.4375 132.7656,672.4375 Q133.1406,672.4375 133.375,672.6953 Q133.6094,672.9531 133.6094,673.5625 L133.6094,675.0156 Q133.6094,675.625 133.375,675.8906 Q133.1406,676.1563 132.7656,676.1563 Q132.4219,676.1563 132.2188,675.9531 Q132.0156,675.7656 131.9063,675.25 Q131.8594,674.8906 131.6719,674.7031 Q131.3438,674.3281 130.7344,674.1094 Q130.125,673.8906 129.5,673.8906 Q128.7344,673.8906 128.1016,674.2188 Q127.4688,674.5469 126.9766,675.2969 Q126.4844,676.0469 126.4844,677.0781 L126.4844,678.1719 Q126.4844,679.4063 127.375,680.2266 Q128.2656,681.0469 129.8594,681.0469 Q130.7969,681.0469 131.4531,680.7969 Q131.8438,680.6406 132.2656,680.2031 Q132.5313,679.9375 132.6797,679.8594 Q132.8281,679.7813 133.0313,679.7813 Q133.3594,679.7813 133.6172,680.0391 Q133.875,680.2969 133.875,680.6406 Q133.875,680.9844 133.5313,681.3906 Q133.0313,681.9688 132.2344,682.2969 Q131.1563,682.75 129.8594,682.75 Q128.3438,682.75 127.1406,682.125 Q126.1563,681.625 125.4688,680.5547 Q124.7813,679.4844 124.7813,678.2031 L124.7813,677.0469 Q124.7813,675.7188 125.3984,674.5703 Q126.0156,673.4219 127.1094,672.8047 Q128.2031,672.1875 129.4375,672.1875 Q130.1719,672.1875 130.8203,672.3516 Q131.4688,672.5156 132.0156,672.875 Z " /><text fill="#000000" font-family="sans-serif" font-size="12" lengthAdjust="spacingAndGlyphs" textLength="33" x="149.75" y="681.9102">Paper</text>
        <line style="stroke: #A80036; stroke-width: 1.5;" x1="66" x2="234" y1="693" y2="693" /><text fill="#000000" font-family="sans-serif" font-size="11" lengthAdjust="spacingAndGlyphs" textLength="91" x="71" y="708.4189">SpeciesColor color</text><text fill="#000000" font-family="sans-serif" font-size="11" lengthAdjust="spacingAndGlyphs" textLength="66" x="71" y="722.2549">float[2] speed</text>
        <line style="stroke: #A80036; stroke-width: 1.5;" x1="66" x2="234" y1="728.6719" y2="728.6719" /><text fill="#000000" font-family="sans-serif" font-size="11" lengthAdjust="spacingAndGlyphs" textLength="158" x="71" y="744.0908">Paper(World world, int[] position)</text>
        <!--MD5=[d755c5174fbc4166a0b82a39f0ad1a0e]
class AI-->
        <rect fill="#FEFECE" filter="url(#fxpqy0t2mdtp5)" height="117.1797" id="AI" style="stroke: #A80036; stroke-width: 1.5;" width="152" x="86" y="848" />
        <ellipse cx="152.75" cy="864" fill="#ADD1B2" rx="11" ry="11" style="stroke: #A80036; stroke-width: 1.0;" />
        <path d="M155.5156,859.875 Q155.6719,859.6563 155.8594,859.5469 Q156.0469,859.4375 156.2656,859.4375 Q156.6406,859.4375 156.875,859.6953 Q157.1094,859.9531 157.1094,860.5625 L157.1094,862.0156 Q157.1094,862.625 156.875,862.8906 Q156.6406,863.1563 156.2656,863.1563 Q155.9219,863.1563 155.7188,862.9531 Q155.5156,862.7656 155.4063,862.25 Q155.3594,861.8906 155.1719,861.7031 Q154.8438,861.3281 154.2344,861.1094 Q153.625,860.8906 153,860.8906 Q152.2344,860.8906 151.6016,861.2188 Q150.9688,861.5469 150.4766,862.2969 Q149.9844,863.0469 149.9844,864.0781 L149.9844,865.1719 Q149.9844,866.4063 150.875,867.2266 Q151.7656,868.0469 153.3594,868.0469 Q154.2969,868.0469 154.9531,867.7969 Q155.3438,867.6406 155.7656,867.2031 Q156.0313,866.9375 156.1797,866.8594 Q156.3281,866.7813 156.5313,866.7813 Q156.8594,866.7813 157.1172,867.0391 Q157.375,867.2969 157.375,867.6406 Q157.375,867.9844 157.0313,868.3906 Q156.5313,868.9688 155.7344,869.2969 Q154.6563,869.75 153.3594,869.75 Q151.8438,869.75 150.6406,869.125 Q149.6563,868.625 148.9688,867.5547 Q148.2813,866.4844 148.2813,865.2031 L148.2813,864.0469 Q148.2813,862.7188 148.8984,861.5703 Q149.5156,860.4219 150.6094,859.8047 Q151.7031,859.1875 152.9375,859.1875 Q153.6719,859.1875 154.3203,859.3516 Q154.9688,859.5156 155.5156,859.875 Z " /><text fill="#000000" font-family="sans-serif" font-size="12" lengthAdjust="spacingAndGlyphs" textLength="10" x="173.25" y="868.9102">AI</text>
        <line style="stroke: #A80036; stroke-width: 1.5;" x1="87" x2="237" y1="880" y2="880" /><text fill="#000000" font-family="sans-serif" font-size="11" lengthAdjust="spacingAndGlyphs" textLength="76" x="92" y="895.4189">Building building</text><text fill="#000000" font-family="sans-serif" font-size="11" lengthAdjust="spacingAndGlyphs" textLength="91" x="92" y="909.2549">SpeciesColor color</text><text fill="#000000" font-family="sans-serif" font-size="11" lengthAdjust="spacingAndGlyphs" textLength="73" x="92" y="923.0908">Activity activity</text><text fill="#000000" font-family="sans-serif" font-size="11" lengthAdjust="spacingAndGlyphs" textLength="79" x="92" y="936.9268">boolean pacified</text>
        <line style="stroke: #A80036; stroke-width: 1.5;" x1="87" x2="237" y1="943.3438" y2="943.3438" /><text fill="#000000" font-family="sans-serif" font-size="11" lengthAdjust="spacingAndGlyphs" textLength="140" x="92" y="958.7627">AI(World world, int[] position)</text>
        <!--MD5=[2cb47ba637a0d19583e6199456f6ad0b]
class Player-->
        <rect fill="#FEFECE" filter="url(#fxpqy0t2mdtp5)" height="158.6875" id="Player" style="stroke: #A80036; stroke-width: 1.5;" width="172" x="273" y="827" />
        <ellipse cx="337.75" cy="843" fill="#ADD1B2" rx="11" ry="11" style="stroke: #A80036; stroke-width: 1.0;" />
        <path d="M340.5156,838.875 Q340.6719,838.6563 340.8594,838.5469 Q341.0469,838.4375 341.2656,838.4375 Q341.6406,838.4375 341.875,838.6953 Q342.1094,838.9531 342.1094,839.5625 L342.1094,841.0156 Q342.1094,841.625 341.875,841.8906 Q341.6406,842.1563 341.2656,842.1563 Q340.9219,842.1563 340.7188,841.9531 Q340.5156,841.7656 340.4063,841.25 Q340.3594,840.8906 340.1719,840.7031 Q339.8438,840.3281 339.2344,840.1094 Q338.625,839.8906 338,839.8906 Q337.2344,839.8906 336.6016,840.2188 Q335.9688,840.5469 335.4766,841.2969 Q334.9844,842.0469 334.9844,843.0781 L334.9844,844.1719 Q334.9844,845.4063 335.875,846.2266 Q336.7656,847.0469 338.3594,847.0469 Q339.2969,847.0469 339.9531,846.7969 Q340.3438,846.6406 340.7656,846.2031 Q341.0313,845.9375 341.1797,845.8594 Q341.3281,845.7813 341.5313,845.7813 Q341.8594,845.7813 342.1172,846.0391 Q342.375,846.2969 342.375,846.6406 Q342.375,846.9844 342.0313,847.3906 Q341.5313,847.9688 340.7344,848.2969 Q339.6563,848.75 338.3594,848.75 Q336.8438,848.75 335.6406,848.125 Q334.6563,847.625 333.9688,846.5547 Q333.2813,845.4844 333.2813,844.2031 L333.2813,843.0469 Q333.2813,841.7188 333.8984,840.5703 Q334.5156,839.4219 335.6094,838.8047 Q336.7031,838.1875 337.9375,838.1875 Q338.6719,838.1875 339.3203,838.3516 Q339.9688,838.5156 340.5156,838.875 Z " /><text fill="#000000" font-family="sans-serif" font-size="12" lengthAdjust="spacingAndGlyphs" textLength="34" x="358.25" y="847.9102">Player</text>
        <line style="stroke: #A80036; stroke-width: 1.5;" x1="274" x2="444" y1="859" y2="859" /><text fill="#000000" font-family="sans-serif" font-size="11" lengthAdjust="spacingAndGlyphs" textLength="82" x="279" y="874.4189">int[] paperCounts</text><text fill="#000000" font-family="sans-serif" font-size="11" lengthAdjust="spacingAndGlyphs" textLength="102" x="279" y="888.2549">int[] paperMaxCounts</text><text fill="#000000" font-family="sans-serif" font-size="11" lengthAdjust="spacingAndGlyphs" textLength="136" x="279" y="902.0908">SpeciesColor selectedPaper</text>
        <line style="stroke: #A80036; stroke-width: 1.5;" x1="274" x2="444" y1="908.5078" y2="908.5078" /><text fill="#000000" font-family="sans-serif" font-size="11" lengthAdjust="spacingAndGlyphs" textLength="73" x="279" y="923.9268">collectPapers()</text><text fill="#000000" font-family="sans-serif" font-size="11" lengthAdjust="spacingAndGlyphs" textLength="65" x="279" y="937.7627">selectPaper()</text><text fill="#000000" font-family="sans-serif" font-size="11" lengthAdjust="spacingAndGlyphs" textLength="65" x="279" y="951.5986">throwPaper()</text><text fill="#000000" font-family="sans-serif" font-size="11" lengthAdjust="spacingAndGlyphs" textLength="87" x="279" y="965.4346">punchWithPaper()</text><text fill="#000000" font-family="sans-serif" font-size="11" lengthAdjust="spacingAndGlyphs" textLength="160" x="279" y="979.2705">Player(World world, int[] position)</text>
        <!--MD5=[1b1562314ef50edf921bad0cd204186a]
class World-->
        <rect fill="#FEFECE" filter="url(#fxpqy0t2mdtp5)" height="117.1797" id="World" style="stroke: #A80036; stroke-width: 1.5;" width="201" x="390.5" y="8" />
        <ellipse cx="470.75" cy="24" fill="#ADD1B2" rx="11" ry="11" style="stroke: #A80036; stroke-width: 1.0;" />
        <path d="M473.5156,19.875 Q473.6719,19.6563 473.8594,19.5469 Q474.0469,19.4375 474.2656,19.4375 Q474.6406,19.4375 474.875,19.6953 Q475.1094,19.9531 475.1094,20.5625 L475.1094,22.0156 Q475.1094,22.625 474.875,22.8906 Q474.6406,23.1563 474.2656,23.1563 Q473.9219,23.1563 473.7188,22.9531 Q473.5156,22.7656 473.4063,22.25 Q473.3594,21.8906 473.1719,21.7031 Q472.8438,21.3281 472.2344,21.1094 Q471.625,20.8906 471,20.8906 Q470.2344,20.8906 469.6016,21.2188 Q468.9688,21.5469 468.4766,22.2969 Q467.9844,23.0469 467.9844,24.0781 L467.9844,25.1719 Q467.9844,26.4063 468.875,27.2266 Q469.7656,28.0469 471.3594,28.0469 Q472.2969,28.0469 472.9531,27.7969 Q473.3438,27.6406 473.7656,27.2031 Q474.0313,26.9375 474.1797,26.8594 Q474.3281,26.7813 474.5313,26.7813 Q474.8594,26.7813 475.1172,27.0391 Q475.375,27.2969 475.375,27.6406 Q475.375,27.9844 475.0313,28.3906 Q474.5313,28.9688 473.7344,29.2969 Q472.6563,29.75 471.3594,29.75 Q469.8438,29.75 468.6406,29.125 Q467.6563,28.625 466.9688,27.5547 Q466.2813,26.4844 466.2813,25.2031 L466.2813,24.0469 Q466.2813,22.7188 466.8984,21.5703 Q467.5156,20.4219 468.6094,19.8047 Q469.7031,19.1875 470.9375,19.1875 Q471.6719,19.1875 472.3203,19.3516 Q472.9688,19.5156 473.5156,19.875 Z " /><text fill="#000000" font-family="sans-serif" font-size="12" lengthAdjust="spacingAndGlyphs" textLength="32" x="491.25" y="28.9102">World</text>
        <line style="stroke: #A80036; stroke-width: 1.5;" x1="391.5" x2="590.5" y1="40" y2="40" /><text fill="#000000" font-family="sans-serif" font-size="11" lengthAdjust="spacingAndGlyphs" textLength="173" x="396.5" y="55.4189">List&lt;DynamicEntity&gt; dynamicEntities</text><text fill="#000000" font-family="sans-serif" font-size="11" lengthAdjust="spacingAndGlyphs" textLength="189" x="396.5" y="69.2549">List&lt;StationaryEntity&gt; stationaryEntities</text><text fill="#000000" font-family="sans-serif" font-size="11" lengthAdjust="spacingAndGlyphs" textLength="63" x="396.5" y="83.0908">Player player</text>
        <line style="stroke: #A80036; stroke-width: 1.5;" x1="391.5" x2="590.5" y1="89.5078" y2="89.5078" /><text fill="#000000" font-family="sans-serif" font-size="11" lengthAdjust="spacingAndGlyphs" textLength="41" x="396.5" y="104.9268">update()</text><text fill="#000000" font-family="sans-serif" font-size="11" lengthAdjust="spacingAndGlyphs" textLength="40" x="396.5" y="118.7627">render()</text>
        <!--MD5=[1f24f7b92150e3316908f7910ce81742]
class Grid-->
        <rect fill="#FEFECE" filter="url(#fxpqy0t2mdtp5)" height="89.5078" id="Grid" style="stroke: #A80036; stroke-width: 1.5;" width="183" x="72.5" y="185" />
        <ellipse cx="148.25" cy="201" fill="#ADD1B2" rx="11" ry="11" style="stroke: #A80036; stroke-width: 1.0;" />
        <path d="M151.0156,196.875 Q151.1719,196.6563 151.3594,196.5469 Q151.5469,196.4375 151.7656,196.4375 Q152.1406,196.4375 152.375,196.6953 Q152.6094,196.9531 152.6094,197.5625 L152.6094,199.0156 Q152.6094,199.625 152.375,199.8906 Q152.1406,200.1563 151.7656,200.1563 Q151.4219,200.1563 151.2188,199.9531 Q151.0156,199.7656 150.9063,199.25 Q150.8594,198.8906 150.6719,198.7031 Q150.3438,198.3281 149.7344,198.1094 Q149.125,197.8906 148.5,197.8906 Q147.7344,197.8906 147.1016,198.2188 Q146.4688,198.5469 145.9766,199.2969 Q145.4844,200.0469 145.4844,201.0781 L145.4844,202.1719 Q145.4844,203.4063 146.375,204.2266 Q147.2656,205.0469 148.8594,205.0469 Q149.7969,205.0469 150.4531,204.7969 Q150.8438,204.6406 151.2656,204.2031 Q151.5313,203.9375 151.6797,203.8594 Q151.8281,203.7813 152.0313,203.7813 Q152.3594,203.7813 152.6172,204.0391 Q152.875,204.2969 152.875,204.6406 Q152.875,204.9844 152.5313,205.3906 Q152.0313,205.9688 151.2344,206.2969 Q150.1563,206.75 148.8594,206.75 Q147.3438,206.75 146.1406,206.125 Q145.1563,205.625 144.4688,204.5547 Q143.7813,203.4844 143.7813,202.2031 L143.7813,201.0469 Q143.7813,199.7188 144.3984,198.5703 Q145.0156,197.4219 146.1094,196.8047 Q147.2031,196.1875 148.4375,196.1875 Q149.1719,196.1875 149.8203,196.3516 Q150.4688,196.5156 151.0156,196.875 Z " /><text fill="#000000" font-family="sans-serif" font-size="12" lengthAdjust="spacingAndGlyphs" textLength="23" x="168.75" y="205.9102">Grid</text>
        <line style="stroke: #A80036; stroke-width: 1.5;" x1="73.5" x2="254.5" y1="217" y2="217" /><text fill="#000000" font-family="sans-serif" font-size="11" lengthAdjust="spacingAndGlyphs" textLength="54" x="78.5" y="232.4189">Cell[][] cells</text>
        <line style="stroke: #A80036; stroke-width: 1.5;" x1="73.5" x2="254.5" y1="238.8359" y2="238.8359" /><text fill="#000000" font-family="sans-serif" font-size="11" lengthAdjust="spacingAndGlyphs" textLength="40" x="78.5" y="254.2549">render()</text><text fill="#000000" font-family="sans-serif" font-size="11" lengthAdjust="spacingAndGlyphs" textLength="171" x="78.5" y="268.0908">insert(Piece[][] pieces, int[] position)</text>
        <!--MD5=[fea3dc74c7473bae0133d22265a91e2f]
class Cell-->
        <rect fill="#FEFECE" filter="url(#fxpqy0t2mdtp5)" height="75.6719" id="Cell" style="stroke: #A80036; stroke-width: 1.5;" width="102" x="68" y="348.5" />
        <ellipse cx="104.6" cy="364.5" fill="#ADD1B2" rx="11" ry="11" style="stroke: #A80036; stroke-width: 1.0;" />
        <path d="M107.3656,360.375 Q107.5219,360.1563 107.7094,360.0469 Q107.8969,359.9375 108.1156,359.9375 Q108.4906,359.9375 108.725,360.1953 Q108.9594,360.4531 108.9594,361.0625 L108.9594,362.5156 Q108.9594,363.125 108.725,363.3906 Q108.4906,363.6563 108.1156,363.6563 Q107.7719,363.6563 107.5688,363.4531 Q107.3656,363.2656 107.2563,362.75 Q107.2094,362.3906 107.0219,362.2031 Q106.6938,361.8281 106.0844,361.6094 Q105.475,361.3906 104.85,361.3906 Q104.0844,361.3906 103.4516,361.7188 Q102.8188,362.0469 102.3266,362.7969 Q101.8344,363.5469 101.8344,364.5781 L101.8344,365.6719 Q101.8344,366.9063 102.725,367.7266 Q103.6156,368.5469 105.2094,368.5469 Q106.1469,368.5469 106.8031,368.2969 Q107.1938,368.1406 107.6156,367.7031 Q107.8813,367.4375 108.0297,367.3594 Q108.1781,367.2813 108.3813,367.2813 Q108.7094,367.2813 108.9672,367.5391 Q109.225,367.7969 109.225,368.1406 Q109.225,368.4844 108.8813,368.8906 Q108.3813,369.4688 107.5844,369.7969 Q106.5063,370.25 105.2094,370.25 Q103.6938,370.25 102.4906,369.625 Q101.5063,369.125 100.8188,368.0547 Q100.1313,366.9844 100.1313,365.7031 L100.1313,364.5469 Q100.1313,363.2188 100.7484,362.0703 Q101.3656,360.9219 102.4594,360.3047 Q103.5531,359.6875 104.7875,359.6875 Q105.5219,359.6875 106.1703,359.8516 Q106.8188,360.0156 107.3656,360.375 Z " /><text fill="#000000" font-family="sans-serif" font-size="12" lengthAdjust="spacingAndGlyphs" textLength="22" x="123.4" y="369.4102">Cell</text>
        <line style="stroke: #A80036; stroke-width: 1.5;" x1="69" x2="169" y1="380.5" y2="380.5" /><text fill="#000000" font-family="sans-serif" font-size="11" lengthAdjust="spacingAndGlyphs" textLength="90" x="74" y="395.9189">List&lt;Piece&gt; pieces</text>
        <line style="stroke: #A80036; stroke-width: 1.5;" x1="69" x2="169" y1="402.3359" y2="402.3359" /><text fill="#000000" font-family="sans-serif" font-size="11" lengthAdjust="spacingAndGlyphs" textLength="40" x="74" y="417.7549">render()</text>
        <!--MD5=[e05bacf3ff4416a0580578814d41bbf6]
class Piece-->
        <rect fill="#FEFECE" filter="url(#fxpqy0t2mdtp5)" height="89.5078" id="Piece" style="stroke: #A80036; stroke-width: 1.5;" width="96" x="205" y="341.5" />
        <ellipse cx="234.85" cy="357.5" fill="#ADD1B2" rx="11" ry="11" style="stroke: #A80036; stroke-width: 1.0;" />
        <path d="M237.6156,353.375 Q237.7719,353.1563 237.9594,353.0469 Q238.1469,352.9375 238.3656,352.9375 Q238.7406,352.9375 238.975,353.1953 Q239.2094,353.4531 239.2094,354.0625 L239.2094,355.5156 Q239.2094,356.125 238.975,356.3906 Q238.7406,356.6563 238.3656,356.6563 Q238.0219,356.6563 237.8188,356.4531 Q237.6156,356.2656 237.5063,355.75 Q237.4594,355.3906 237.2719,355.2031 Q236.9438,354.8281 236.3344,354.6094 Q235.725,354.3906 235.1,354.3906 Q234.3344,354.3906 233.7016,354.7188 Q233.0688,355.0469 232.5766,355.7969 Q232.0844,356.5469 232.0844,357.5781 L232.0844,358.6719 Q232.0844,359.9063 232.975,360.7266 Q233.8656,361.5469 235.4594,361.5469 Q236.3969,361.5469 237.0531,361.2969 Q237.4438,361.1406 237.8656,360.7031 Q238.1313,360.4375 238.2797,360.3594 Q238.4281,360.2813 238.6313,360.2813 Q238.9594,360.2813 239.2172,360.5391 Q239.475,360.7969 239.475,361.1406 Q239.475,361.4844 239.1313,361.8906 Q238.6313,362.4688 237.8344,362.7969 Q236.7563,363.25 235.4594,363.25 Q233.9438,363.25 232.7406,362.625 Q231.7563,362.125 231.0688,361.0547 Q230.3813,359.9844 230.3813,358.7031 L230.3813,357.5469 Q230.3813,356.2188 230.9984,355.0703 Q231.6156,353.9219 232.7094,353.3047 Q233.8031,352.6875 235.0375,352.6875 Q235.7719,352.6875 236.4203,352.8516 Q237.0688,353.0156 237.6156,353.375 Z " /><text fill="#000000" font-family="sans-serif" font-size="12" lengthAdjust="spacingAndGlyphs" textLength="31" x="252.15" y="362.4102">Piece</text>
        <line style="stroke: #A80036; stroke-width: 1.5;" x1="206" x2="300" y1="373.5" y2="373.5" /><text fill="#000000" font-family="sans-serif" font-size="11" lengthAdjust="spacingAndGlyphs" textLength="55" x="211" y="388.9189">Entity entity</text><text fill="#000000" font-family="sans-serif" font-size="11" lengthAdjust="spacingAndGlyphs" textLength="84" x="211" y="402.7549">boolean walkable</text>
        <line style="stroke: #A80036; stroke-width: 1.5;" x1="206" x2="300" y1="409.1719" y2="409.1719" /><text fill="#000000" font-family="sans-serif" font-size="11" lengthAdjust="spacingAndGlyphs" textLength="40" x="211" y="424.5908">render()</text>
        <!--MD5=[be996cdb8e6bf2fc7cb89c555f2cd144]
class Entity-->
        <rect fill="#FEFECE" filter="url(#fxpqy0t2mdtp5)" height="103.3438" id="Entity" style="stroke: #A80036; stroke-width: 1.5;" width="168" x="407" y="335" />
        <ellipse cx="471.75" cy="351" fill="#A9DCDF" rx="11" ry="11" style="stroke: #A80036; stroke-width: 1.0;" />
        <path d="M473.9375,352.7656 L469.7969,352.7656 L469.375,353.7969 L469.7969,353.7969 Q470.4063,353.7969 470.6719,354.0313 Q470.9375,354.2656 470.9375,354.6563 Q470.9375,355.0313 470.6719,355.2656 Q470.4063,355.5 469.7969,355.5 L467.5,355.5 Q466.8906,355.5 466.6328,355.2656 Q466.375,355.0313 466.375,354.6406 Q466.375,354.2656 466.6484,354.0234 Q466.9219,353.7813 467.5469,353.7969 L470.2188,347.1406 L469.1094,347.1406 Q468.5,347.1406 468.2344,346.9063 Q467.9688,346.6719 467.9688,346.2813 Q467.9688,345.9063 468.2344,345.6719 Q468.5,345.4375 469.1094,345.4375 L472.7813,345.4375 L476.1719,353.7969 Q476.7656,353.7969 476.9531,353.9375 Q477.3438,354.2031 477.3438,354.6563 Q477.3438,355.0313 477.0859,355.2656 Q476.8281,355.5 476.2188,355.5 L473.9219,355.5 Q473.3125,355.5 473.0469,355.2656 Q472.7813,355.0313 472.7813,354.6406 Q472.7813,354.2656 473.0469,354.0313 Q473.3125,353.7969 473.9219,353.7969 L474.3438,353.7969 L473.9375,352.7656 Z M473.2188,351.0625 L471.8594,347.6875 L470.4844,351.0625 L473.2188,351.0625 Z " /><text fill="#000000" font-family="sans-serif" font-size="12" font-style="italic" lengthAdjust="spacingAndGlyphs" textLength="30" x="492.25" y="355.9102">Entity</text>
        <line style="stroke: #A80036; stroke-width: 1.5;" x1="408" x2="574" y1="367" y2="367" /><text fill="#000000" font-family="sans-serif" font-size="11" lengthAdjust="spacingAndGlyphs" textLength="87" x="413" y="382.4189">static Image sprite</text><text fill="#000000" font-family="sans-serif" font-size="11" lengthAdjust="spacingAndGlyphs" textLength="73" x="413" y="396.2549">Piece[][] pieces</text><text fill="#000000" font-family="sans-serif" font-size="11" lengthAdjust="spacingAndGlyphs" textLength="63" x="413" y="410.0908">int[2] position</text>
        <line style="stroke: #A80036; stroke-width: 1.5;" x1="408" x2="574" y1="416.5078" y2="416.5078" /><text fill="#000000" font-family="sans-serif" font-size="11" lengthAdjust="spacingAndGlyphs" textLength="156" x="413" y="431.9268">Entity(World world, int[] position)</text>
        <!--MD5=[c881b25adf3665c6568c9693d41a70f3]
class Activity-->
        <rect fill="#FEFECE" filter="url(#fxpqy0t2mdtp5)" height="89.5078" id="Activity" style="stroke: #A80036; stroke-width: 1.5;" width="67" x="67.5" y="1066" />
        <ellipse cx="82.5" cy="1082" fill="#EB937F" rx="11" ry="11" style="stroke: #A80036; stroke-width: 1.0;" />
        <path d="M81.3594,1082.7969 L81.3594,1085.2969 L85.6875,1085.2969 L85.6875,1084.375 Q85.6875,1083.7656 85.9297,1083.5 Q86.1719,1083.2344 86.5469,1083.2344 Q86.9219,1083.2344 87.1563,1083.5 Q87.3906,1083.7656 87.3906,1084.375 L87.3906,1087 L79.3906,1087 Q78.7656,1087 78.5078,1086.7656 Q78.25,1086.5313 78.25,1086.1406 Q78.25,1085.7656 78.5156,1085.5313 Q78.7813,1085.2969 79.3906,1085.2969 L79.6563,1085.2969 L79.6563,1078.6406 L79.3906,1078.6406 Q78.7656,1078.6406 78.5078,1078.4063 Q78.25,1078.1719 78.25,1077.7813 Q78.25,1077.4063 78.5078,1077.1719 Q78.7656,1076.9375 79.3906,1076.9375 L87.0156,1076.9375 L87.0156,1079.5313 Q87.0156,1080.1406 86.7891,1080.3984 Q86.5625,1080.6563 86.1719,1080.6563 Q85.7969,1080.6563 85.5625,1080.3984 Q85.3281,1080.1406 85.3281,1079.5313 L85.3281,1078.6406 L81.3594,1078.6406 L81.3594,1081.0938 L82.8438,1081.0938 Q82.8438,1080.4375 82.9688,1080.25 Q83.2344,1079.8438 83.7031,1079.8438 Q84.0781,1079.8438 84.3125,1080.1016 Q84.5469,1080.3594 84.5469,1080.9688 L84.5469,1082.9375 Q84.5469,1083.4844 84.4219,1083.6719 Q84.1563,1084.0625 83.7031,1084.0625 Q83.2344,1084.0625 82.9688,1083.6563 Q82.8438,1083.4688 82.8438,1082.7969 L81.3594,1082.7969 Z " /><text fill="#000000" font-family="sans-serif" font-size="12" lengthAdjust="spacingAndGlyphs" textLength="35" x="96.5" y="1086.9102">Activity</text>
        <line style="stroke: #A80036; stroke-width: 1.5;" x1="68.5" x2="133.5" y1="1098" y2="1098" /><text fill="#000000" font-family="sans-serif" font-size="11" lengthAdjust="spacingAndGlyphs" textLength="52" x="73.5" y="1113.4189">wandering</text><text fill="#000000" font-family="sans-serif" font-size="11" lengthAdjust="spacingAndGlyphs" textLength="33" x="73.5" y="1127.2549">resting</text><text fill="#000000" font-family="sans-serif" font-size="11" lengthAdjust="spacingAndGlyphs" textLength="34" x="73.5" y="1141.0908">hangry</text>
        <line style="stroke: #A80036; stroke-width: 1.5;" x1="68.5" x2="133.5" y1="1147.5078" y2="1147.5078" />
        <!--MD5=[bdc64ea1417373d8993b223e9e2d2b5f]
class SpeciesColor-->
        <rect fill="#FEFECE" filter="url(#fxpqy0t2mdtp5)" height="75.6719" id="SpeciesColor" style="stroke: #A80036; stroke-width: 1.5;" width="107" x="169.5" y="1073" />
        <ellipse cx="184.5" cy="1089" fill="#EB937F" rx="11" ry="11" style="stroke: #A80036; stroke-width: 1.0;" />
        <path d="M183.3594,1089.7969 L183.3594,1092.2969 L187.6875,1092.2969 L187.6875,1091.375 Q187.6875,1090.7656 187.9297,1090.5 Q188.1719,1090.2344 188.5469,1090.2344 Q188.9219,1090.2344 189.1563,1090.5 Q189.3906,1090.7656 189.3906,1091.375 L189.3906,1094 L181.3906,1094 Q180.7656,1094 180.5078,1093.7656 Q180.25,1093.5313 180.25,1093.1406 Q180.25,1092.7656 180.5156,1092.5313 Q180.7813,1092.2969 181.3906,1092.2969 L181.6563,1092.2969 L181.6563,1085.6406 L181.3906,1085.6406 Q180.7656,1085.6406 180.5078,1085.4063 Q180.25,1085.1719 180.25,1084.7813 Q180.25,1084.4063 180.5078,1084.1719 Q180.7656,1083.9375 181.3906,1083.9375 L189.0156,1083.9375 L189.0156,1086.5313 Q189.0156,1087.1406 188.7891,1087.3984 Q188.5625,1087.6563 188.1719,1087.6563 Q187.7969,1087.6563 187.5625,1087.3984 Q187.3281,1087.1406 187.3281,1086.5313 L187.3281,1085.6406 L183.3594,1085.6406 L183.3594,1088.0938 L184.8438,1088.0938 Q184.8438,1087.4375 184.9688,1087.25 Q185.2344,1086.8438 185.7031,1086.8438 Q186.0781,1086.8438 186.3125,1087.1016 Q186.5469,1087.3594 186.5469,1087.9688 L186.5469,1089.9375 Q186.5469,1090.4844 186.4219,1090.6719 Q186.1563,1091.0625 185.7031,1091.0625 Q185.2344,1091.0625 184.9688,1090.6563 Q184.8438,1090.4688 184.8438,1089.7969 L183.3594,1089.7969 Z " /><text fill="#000000" font-family="sans-serif" font-size="12" lengthAdjust="spacingAndGlyphs" textLength="75" x="198.5" y="1093.9102">SpeciesColor</text>
        <line style="stroke: #A80036; stroke-width: 1.5;" x1="170.5" x2="275.5" y1="1105" y2="1105" /><text fill="#000000" font-family="sans-serif" font-size="11" lengthAdjust="spacingAndGlyphs" textLength="16" x="175.5" y="1120.4189">red</text><text fill="#000000" font-family="sans-serif" font-size="11" lengthAdjust="spacingAndGlyphs" textLength="20" x="175.5" y="1134.2549">blue</text>
        <line style="stroke: #A80036; stroke-width: 1.5;" x1="170.5" x2="275.5" y1="1140.6719" y2="1140.6719" />
        <!--MD5=[68cb7de483df9e038dce65b78a534b80]
reverse link Entity to StationaryEntity-->
        <path d="M543.22,454.225 C560.564,476.387 579.032,499.985 593.152,518.028 " fill="none" id="Entity&lt;-StationaryEntity" style="stroke: #A80036; stroke-width: 1.0;" />
        <polygon fill="none" points="537.681,458.506,530.867,438.441,548.706,449.877,537.681,458.506" style="stroke: #A80036; stroke-width: 1.0;" />
        <!--MD5=[4d35ad448a0fa2c085b27e87d55c06ca]
reverse link StationaryEntity to Nest-->
        <path d="M613.751,600.703 C612.337,622.549 610.709,647.696 609.406,667.824 " fill="none" id="StationaryEntity&lt;-Nest" style="stroke: #A80036; stroke-width: 1.0;" />
        <polygon fill="none" points="606.771,600.162,615.048,580.656,620.742,601.066,606.771,600.162" style="stroke: #A80036; stroke-width: 1.0;" />
        <!--MD5=[d505af35f4f5468766796e2572c8b05c]
reverse link StationaryEntity to Building-->
        <path d="M676.053,592.545 C705.809,613.73 741.877,639.41 772.03,660.878 " fill="none" id="StationaryEntity&lt;-Building" style="stroke: #A80036; stroke-width: 1.0;" />
        <polygon fill="none" points="671.587,597.958,659.355,580.656,679.707,586.554,671.587,597.958" style="stroke: #A80036; stroke-width: 1.0;" />
        <!--MD5=[544e9875717ef78f0a495c51cccde454]
reverse link Entity to DynamicEntity-->
        <path d="M434.407,454.007 C421.929,468.672 408.906,483.975 397.066,497.89 " fill="none" id="Entity&lt;-DynamicEntity" style="stroke: #A80036; stroke-width: 1.0;" />
        <polygon fill="none" points="429.36,449.137,447.652,438.441,440.022,458.21,429.36,449.137" style="stroke: #A80036; stroke-width: 1.0;" />
        <!--MD5=[992b618b077310a5d94725a48563bc7b]
reverse link DynamicEntity to Dino-->
        <path d="M354,621.38 C354,640.097 354,659.317 354,674.603 " fill="none" id="DynamicEntity&lt;-Dino" style="stroke: #A80036; stroke-width: 1.0;" />
        <polygon fill="none" points="347,621.089,354,601.089,361,621.089,347,621.089" style="stroke: #A80036; stroke-width: 1.0;" />
        <!--MD5=[6cd0be0e1da4a575eaa73052b6316d8e]
reverse link DynamicEntity to Paper-->
        <path d="M260.683,612.774 C258.765,614.186 256.869,615.596 255,617 C236.747,630.719 217.418,646.523 200.387,660.92 " fill="none" id="DynamicEntity&lt;-Paper" style="stroke: #A80036; stroke-width: 1.0;" />
        <polygon fill="none" points="256.631,607.065,276.958,601.078,264.801,618.434,256.631,607.065" style="stroke: #A80036; stroke-width: 1.0;" />
        <!--MD5=[baa2962affdb08c86284bf861b27f29c]
reverse link Dino to AI-->
        <path d="M293.187,749.591 C280.034,759.902 266.604,771.334 255,783 C235.511,802.594 216.579,826.368 200.939,847.739 " fill="none" id="Dino&lt;-AI" style="stroke: #A80036; stroke-width: 1.0;" />
        <polygon fill="none" points="289.372,743.699,309.54,737.198,297.829,754.857,289.372,743.699" style="stroke: #A80036; stroke-width: 1.0;" />
        <!--MD5=[4aeec6e5b5c55acc33d746391462528e]
reverse link Dino to Player-->
        <path d="M355.263,757.148 C355.796,778.308 356.429,803.45 357.022,826.967 " fill="none" id="Dino&lt;-Player" style="stroke: #A80036; stroke-width: 1.0;" />
        <polygon fill="none" points="348.265,757.318,354.759,737.148,362.261,756.965,348.265,757.318" style="stroke: #A80036; stroke-width: 1.0;" />
        <!--MD5=[2447db2d5398c13e17973605d13e2ad0]
link World to Grid-->
        <path d="M390.221,117.27 C346.403,138.91 295.501,164.054 253.09,185 " fill="none" id="World-Grid" style="stroke: #A80036; stroke-width: 1.0;" /><text fill="#000000" font-family="sans-serif" font-size="13" lengthAdjust="spacingAndGlyphs" textLength="7" x="375.563" y="117.9124">0</text><text fill="#000000" font-family="sans-serif" font-size="13" lengthAdjust="spacingAndGlyphs" textLength="7" x="259.7309" y="174.1155">1</text>
        <!--MD5=[4002627d21c3ad16fb74c62a082ce548]
link World to DynamicEntity-->
        <path d="M465.508,125.13 C442.765,178.593 410.048,260.843 390,335 C375.187,389.793 365.324,454.227 359.725,497.866 " fill="none" id="World-DynamicEntity" style="stroke: #A80036; stroke-width: 1.0;" /><text fill="#000000" font-family="sans-serif" font-size="13" lengthAdjust="spacingAndGlyphs" textLength="7" x="454.9746" y="146.7561">1</text><text fill="#000000" font-family="sans-serif" font-size="13" lengthAdjust="spacingAndGlyphs" textLength="5" x="355.1785" y="486.9756">*</text>
        <!--MD5=[c9f8a5aea65a544f88edfe22fb04589a]
link World to StationaryEntity-->
        <path d="M517.846,125.12 C541.486,178.394 574.887,260.376 593,335 C608.572,399.157 614.084,476.659 616.003,518.383 " fill="none" id="World-StationaryEntity" style="stroke: #A80036; stroke-width: 1.0;" /><text fill="#000000" font-family="sans-serif" font-size="13" lengthAdjust="spacingAndGlyphs" textLength="7" x="513.6913" y="146.7449">1</text><text fill="#000000" font-family="sans-serif" font-size="13" lengthAdjust="spacingAndGlyphs" textLength="5" x="610.2817" y="507.8634">*</text>
        <!--MD5=[aca5a173d2d190bf3d99ef9c47e1596c]
link World to Player-->
        <path d="M591.574,84.13 C739.139,114.94 997,195.888 997,385.5 C997,385.5 997,385.5 997,550.5 C997,651.624 1029.68,701.713 960,775 C890.247,848.366 594.078,884.646 445.188,898.527 " fill="none" id="World-Player" style="stroke: #A80036; stroke-width: 1.0;" /><text fill="#000000" font-family="sans-serif" font-size="13" lengthAdjust="spacingAndGlyphs" textLength="7" x="599.5422" y="82.369">0</text><text fill="#000000" font-family="sans-serif" font-size="13" lengthAdjust="spacingAndGlyphs" textLength="7" x="452.8956" y="894.678">1</text>
        <!--MD5=[d31bdcbbaabb43506266532ce7787e4b]
link Grid to Cell-->
        <path d="M151.105,275.273 C144.378,298.368 136.242,326.304 129.843,348.273 " fill="none" id="Grid-Cell" style="stroke: #A80036; stroke-width: 1.0;" /><text fill="#000000" font-family="sans-serif" font-size="13" lengthAdjust="spacingAndGlyphs" textLength="7" x="141.9019" y="295.9834">0</text><text fill="#000000" font-family="sans-serif" font-size="13" lengthAdjust="spacingAndGlyphs" textLength="5" x="126.3291" y="337.5945">*</text>
        <!--MD5=[625c4cddad4da778bd8c968c984df8b1]
link Cell to Piece-->
        <path d="M170.035,386.5 C181.594,386.5 193.153,386.5 204.712,386.5 " fill="none" id="Cell-Piece" style="stroke: #A80036; stroke-width: 1.0;" /><text fill="#000000" font-family="sans-serif" font-size="13" lengthAdjust="spacingAndGlyphs" textLength="7" x="178.0448" y="382.87">0</text><text fill="#000000" font-family="sans-serif" font-size="13" lengthAdjust="spacingAndGlyphs" textLength="5" x="191.9351" y="382.8347">*</text>
        <!--MD5=[8130f8c65851955adfcb1602526b4bb3]
link Piece to Entity-->
        <path d="M301.344,386.5 C336.534,386.5 371.724,386.5 406.914,386.5 " fill="none" id="Piece-Entity" style="stroke: #A80036; stroke-width: 1.0;" /><text fill="#000000" font-family="sans-serif" font-size="13" lengthAdjust="spacingAndGlyphs" textLength="8" x="309.032" y="382.8821">+</text><text fill="#000000" font-family="sans-serif" font-size="13" lengthAdjust="spacingAndGlyphs" textLength="7" x="392.1134" y="383.283">1</text>
        <!--MD5=[311976ed05cb909bcfa8bded70f9b41d]
link Building to AI-->
        <path d="M765.916,751.027 C747.502,760.785 727.089,769.771 707,775 C682.695,781.327 277.397,771.635 255,783 C227.497,796.955 205.881,823.254 190.438,847.917 " fill="none" id="Building-AI" style="stroke: #A80036; stroke-width: 1.0;" /><text fill="#000000" font-family="sans-serif" font-size="13" lengthAdjust="spacingAndGlyphs" textLength="7" x="748.8495" y="772.0384">1</text><text fill="#000000" font-family="sans-serif" font-size="13" lengthAdjust="spacingAndGlyphs" textLength="7" x="186.4773" y="837.3078">1</text>
        <!--MD5=[678289fa504f8c99d40a55ed50cc38cc]
link AI to Activity-->
        <path d="M144.601,965.257 C134.988,997.171 123.23,1036.203 114.348,1065.6891 " fill="none" id="AI-Activity" style="stroke: #A80036; stroke-width: 1.0;" />
        <!--MD5=[551cf52d423e0769c9b6976e3e85987b]
link AI to SpeciesColor-->
        <path d="M179.399,965.257 C189.822,999.86 202.766,1042.831 211.833,1072.9283 " fill="none" id="AI-SpeciesColor" style="stroke: #A80036; stroke-width: 1.0;" />
        <!--MD5=[e75a45a3ef897ffd12f1bd18f7d46960]
link Player to SpeciesColor-->
        <path d="M306.224,986.082 C286.139,1015.988 264.186,1048.675 247.872,1072.9656 " fill="none" id="Player-SpeciesColor" style="stroke: #A80036; stroke-width: 1.0;" />
        <!--MD5=[99cc7005e9ebf5af8f8ecf140a4a427c]
link Paper to SpeciesColor-->
        <path d="M91.4529,751.251 C82.7212,760.703 74.9879,771.382 70,783 C21.7841,895.31 -12.1211,967.477 70,1058 C82.3016,1071.5602 134.656,1060.1361 152,1066 C157.77,1067.9507 163.557,1070.4456 169.202,1073.2537 " fill="none" id="Paper-SpeciesColor" style="stroke: #A80036; stroke-width: 1.0;" />
        <!--MD5=[637e95e9fc0a5e26543457a6c64ba116]
@startuml

class World {
	List<DynamicEntity> dynamicEntities
	List<StationaryEntity> stationaryEntities
	Player player
	update()
	render()
}

class Grid {
	Cell[][] cells
	render()
	 insert(Piece[][] pieces, int[] position)
}

class Cell {
	List<Piece> pieces
	render()
}

class Piece {
	Entity entity
	boolean walkable
	render()
}

abstract class Entity {
	static Image sprite
	Piece[][] pieces
	int[2] position
	Entity(World world, int[] position)
}

package entities{

	abstract class StationaryEntity extends Entity{
		StationaryEntity(int[] position)
	}

	package stationary {
		class Nest extends StationaryEntity {
			Nest(World world, int[] position)
			float[] paperProbabilities
		}

		class Building extends StationaryEntity {
			AI dino
			int type // 0: House
			Building(World world, int type, int[] position)
		}
	}


	abstract class DynamicEntity extends Entity {
		World world
		DynamicEntity(World world, int[] position)
		update()
		move()
	}

	package dynamic{
		class Dino extends DynamicEntity{
			Dino(World world, int[] position)
		}

		class Paper extends DynamicEntity {
			SpeciesColor color
			float[2] speed
			Paper(World world, int[] position)
		}

		package dinos{
			class AI extends Dino {
				Building building
				SpeciesColor color
				Activity activity
				boolean pacified
				AI(World world, int[] position)
			}

			class Player extends Dino {
				int[] paperCounts
				int[] paperMaxCounts
				SpeciesColor selectedPaper
				collectPapers()
				selectPaper()
				throwPaper()
				punchWithPaper()
				Player(World world, int[] position)
			}
		}
	}
}

enum Activity {
	wandering
	resting
	hangry
}

enum SpeciesColor {
	red
	blue
}

World "0"- -down"1" Grid
World "1"- -down"*" DynamicEntity
World "1"- -down"*" StationaryEntity
World "0"- -"1" Player
Grid "0"- -down"*" Cell
Cell "0"- -right"*" Piece
Piece "+"- -right"1" Entity
Building "1"- -"1" AI
AI - - Activity
AI - - SpeciesColor
Player - - SpeciesColor
Paper - - SpeciesColor

@enduml

PlantUML version 1.2020.10(Sun May 17 11:35:57 CEST 2020)
(GPL source distribution)
Java Runtime: Java(TM) SE Runtime Environment
JVM: Java HotSpot(TM) 64-Bit Server VM
Java Version: 1.8.0_221-b11
Operating System: Windows 10
Default Encoding: Cp1252
Language: fr
Country: FR
-->
    </g>
</svg>