<?xml version="1.0" encoding="UTF-8" standalone="no"?>
<svg xmlns="http://www.w3.org/2000/svg" xmlns:xlink="http://www.w3.org/1999/xlink" contentScriptType="application/ecmascript" contentStyleType="text/css" height="1037px" preserveAspectRatio="none" style="width:814px;height:1037px;" version="1.1" viewBox="0 0 814 1037" width="814px" zoomAndPan="magnify"><defs><filter height="300%" id="f17fp8q34a9nhm" width="300%" x="-1" y="-1"><feGaussianBlur result="blurOut" stdDeviation="2.0"/><feColorMatrix in="blurOut" result="blurOut2" type="matrix" values="0 0 0 0 0 0 0 0 0 0 0 0 0 0 0 0 0 0 .4 0"/><feOffset dx="4.0" dy="4.0" in="blurOut2" result="blurOut3"/><feBlend in="SourceGraphic" in2="blurOut3" mode="normal"/></filter></defs><g><!--MD5=[1b1562314ef50edf921bad0cd204186a]
class World--><rect codeLine="1" fill="#FEFECE" filter="url(#f17fp8q34a9nhm)" height="99.2188" id="World" style="stroke:#A80036;stroke-width:1.5;" width="225" x="242.5" y="7"/><ellipse cx="332.75" cy="23" fill="#ADD1B2" rx="11" ry="11" style="stroke:#A80036;stroke-width:1.0;"/><path d="M335.0938,18.6719 C334.1563,18.2344 333.5625,18.0938 332.6875,18.0938 C330.0625,18.0938 328.0625,20.1719 328.0625,22.8906 L328.0625,24.0156 C328.0625,26.5938 330.1719,28.4844 333.0625,28.4844 C334.2813,28.4844 335.4375,28.1875 336.1875,27.6406 C336.7656,27.2344 337.0938,26.7813 337.0938,26.3906 C337.0938,25.9375 336.7031,25.5469 336.2344,25.5469 C336.0156,25.5469 335.8125,25.625 335.625,25.8125 C335.1719,26.2969 335.1719,26.2969 334.9844,26.3906 C334.5625,26.6563 333.875,26.7813 333.1094,26.7813 C331.0625,26.7813 329.7656,25.6875 329.7656,23.9844 L329.7656,22.8906 C329.7656,21.1094 331.0156,19.7969 332.75,19.7969 C333.3281,19.7969 333.9375,19.9531 334.4063,20.2031 C334.8906,20.4844 335.0625,20.7031 335.1563,21.1094 C335.2188,21.5156 335.25,21.6406 335.3906,21.7656 C335.5313,21.9063 335.7656,22.0156 335.9844,22.0156 C336.25,22.0156 336.5156,21.875 336.6875,21.6563 C336.7969,21.5 336.8281,21.3125 336.8281,20.8906 L336.8281,19.4688 C336.8281,19.0313 336.8125,18.9063 336.7188,18.75 C336.5625,18.4844 336.2813,18.3438 335.9844,18.3438 C335.6875,18.3438 335.4844,18.4375 335.2656,18.75 L335.0938,18.6719 Z " fill="#000000"/><text fill="#000000" font-family="sans-serif" font-size="12" lengthAdjust="spacing" textLength="36" x="353.25" y="27.1543">World</text><line style="stroke:#A80036;stroke-width:1.5;" x1="243.5" x2="466.5" y1="39" y2="39"/><text fill="#000000" font-family="sans-serif" font-size="11" lengthAdjust="spacing" textLength="108" x="248.5" y="53.2104">static Color[] colors</text><text fill="#000000" font-family="sans-serif" font-size="11" lengthAdjust="spacing" textLength="213" x="248.5" y="66.0151">List&lt;DynamicEntity&gt; dynamicEntities</text><line style="stroke:#A80036;stroke-width:1.5;" x1="243.5" x2="466.5" y1="72.6094" y2="72.6094"/><text fill="#000000" font-family="sans-serif" font-size="11" lengthAdjust="spacing" textLength="48" x="248.5" y="86.8198">update()</text><text fill="#000000" font-family="sans-serif" font-size="11" lengthAdjust="spacing" textLength="46" x="248.5" y="99.6245">render()</text><!--MD5=[1f24f7b92150e3316908f7910ce81742]
class Grid--><rect codeLine="8" fill="#FEFECE" filter="url(#f17fp8q34a9nhm)" height="73.6094" id="Grid" style="stroke:#A80036;stroke-width:1.5;" width="80" x="189" y="166"/><ellipse cx="214.35" cy="182" fill="#ADD1B2" rx="11" ry="11" style="stroke:#A80036;stroke-width:1.0;"/><path d="M216.6938,177.6719 C215.7563,177.2344 215.1625,177.0938 214.2875,177.0938 C211.6625,177.0938 209.6625,179.1719 209.6625,181.8906 L209.6625,183.0156 C209.6625,185.5938 211.7719,187.4844 214.6625,187.4844 C215.8813,187.4844 217.0375,187.1875 217.7875,186.6406 C218.3656,186.2344 218.6938,185.7813 218.6938,185.3906 C218.6938,184.9375 218.3031,184.5469 217.8344,184.5469 C217.6156,184.5469 217.4125,184.625 217.225,184.8125 C216.7719,185.2969 216.7719,185.2969 216.5844,185.3906 C216.1625,185.6563 215.475,185.7813 214.7094,185.7813 C212.6625,185.7813 211.3656,184.6875 211.3656,182.9844 L211.3656,181.8906 C211.3656,180.1094 212.6156,178.7969 214.35,178.7969 C214.9281,178.7969 215.5375,178.9531 216.0063,179.2031 C216.4906,179.4844 216.6625,179.7031 216.7563,180.1094 C216.8188,180.5156 216.85,180.6406 216.9906,180.7656 C217.1313,180.9063 217.3656,181.0156 217.5844,181.0156 C217.85,181.0156 218.1156,180.875 218.2875,180.6563 C218.3969,180.5 218.4281,180.3125 218.4281,179.8906 L218.4281,178.4688 C218.4281,178.0313 218.4125,177.9063 218.3188,177.75 C218.1625,177.4844 217.8813,177.3438 217.5844,177.3438 C217.2875,177.3438 217.0844,177.4375 216.8656,177.75 L216.6938,177.6719 Z " fill="#000000"/><text fill="#000000" font-family="sans-serif" font-size="12" lengthAdjust="spacing" textLength="25" x="230.65" y="186.1543">Grid</text><line style="stroke:#A80036;stroke-width:1.5;" x1="190" x2="268" y1="198" y2="198"/><text fill="#000000" font-family="sans-serif" font-size="11" lengthAdjust="spacing" textLength="68" x="195" y="212.2104">Cell[][] cells</text><line style="stroke:#A80036;stroke-width:1.5;" x1="190" x2="268" y1="218.8047" y2="218.8047"/><text fill="#000000" font-family="sans-serif" font-size="11" lengthAdjust="spacing" textLength="46" x="195" y="233.0151">render()</text><!--MD5=[fea3dc74c7473bae0133d22265a91e2f]
class Cell--><rect codeLine="13" fill="#FEFECE" filter="url(#f17fp8q34a9nhm)" height="73.6094" id="Cell" style="stroke:#A80036;stroke-width:1.5;" width="122" x="7" y="312.5"/><ellipse cx="52.75" cy="328.5" fill="#ADD1B2" rx="11" ry="11" style="stroke:#A80036;stroke-width:1.0;"/><path d="M55.0938,324.1719 C54.1563,323.7344 53.5625,323.5938 52.6875,323.5938 C50.0625,323.5938 48.0625,325.6719 48.0625,328.3906 L48.0625,329.5156 C48.0625,332.0938 50.1719,333.9844 53.0625,333.9844 C54.2813,333.9844 55.4375,333.6875 56.1875,333.1406 C56.7656,332.7344 57.0938,332.2813 57.0938,331.8906 C57.0938,331.4375 56.7031,331.0469 56.2344,331.0469 C56.0156,331.0469 55.8125,331.125 55.625,331.3125 C55.1719,331.7969 55.1719,331.7969 54.9844,331.8906 C54.5625,332.1563 53.875,332.2813 53.1094,332.2813 C51.0625,332.2813 49.7656,331.1875 49.7656,329.4844 L49.7656,328.3906 C49.7656,326.6094 51.0156,325.2969 52.75,325.2969 C53.3281,325.2969 53.9375,325.4531 54.4063,325.7031 C54.8906,325.9844 55.0625,326.2031 55.1563,326.6094 C55.2188,327.0156 55.25,327.1406 55.3906,327.2656 C55.5313,327.4063 55.7656,327.5156 55.9844,327.5156 C56.25,327.5156 56.5156,327.375 56.6875,327.1563 C56.7969,327 56.8281,326.8125 56.8281,326.3906 L56.8281,324.9688 C56.8281,324.5313 56.8125,324.4063 56.7188,324.25 C56.5625,323.9844 56.2813,323.8438 55.9844,323.8438 C55.6875,323.8438 55.4844,323.9375 55.2656,324.25 L55.0938,324.1719 Z " fill="#000000"/><text fill="#000000" font-family="sans-serif" font-size="12" lengthAdjust="spacing" textLength="22" x="73.25" y="332.6543">Cell</text><line style="stroke:#A80036;stroke-width:1.5;" x1="8" x2="128" y1="344.5" y2="344.5"/><text fill="#000000" font-family="sans-serif" font-size="11" lengthAdjust="spacing" textLength="110" x="13" y="358.7104">List&lt;Piece&gt; pieces</text><line style="stroke:#A80036;stroke-width:1.5;" x1="8" x2="128" y1="365.3047" y2="365.3047"/><text fill="#000000" font-family="sans-serif" font-size="11" lengthAdjust="spacing" textLength="46" x="13" y="379.5151">render()</text><!--MD5=[e05bacf3ff4416a0580578814d41bbf6]
class Piece--><rect codeLine="18" fill="#FEFECE" filter="url(#f17fp8q34a9nhm)" height="86.4141" id="Piece" style="stroke:#A80036;stroke-width:1.5;" width="112" x="164" y="306.5"/><ellipse cx="200.6" cy="322.5" fill="#ADD1B2" rx="11" ry="11" style="stroke:#A80036;stroke-width:1.0;"/><path d="M202.9438,318.1719 C202.0063,317.7344 201.4125,317.5938 200.5375,317.5938 C197.9125,317.5938 195.9125,319.6719 195.9125,322.3906 L195.9125,323.5156 C195.9125,326.0938 198.0219,327.9844 200.9125,327.9844 C202.1313,327.9844 203.2875,327.6875 204.0375,327.1406 C204.6156,326.7344 204.9438,326.2813 204.9438,325.8906 C204.9438,325.4375 204.5531,325.0469 204.0844,325.0469 C203.8656,325.0469 203.6625,325.125 203.475,325.3125 C203.0219,325.7969 203.0219,325.7969 202.8344,325.8906 C202.4125,326.1563 201.725,326.2813 200.9594,326.2813 C198.9125,326.2813 197.6156,325.1875 197.6156,323.4844 L197.6156,322.3906 C197.6156,320.6094 198.8656,319.2969 200.6,319.2969 C201.1781,319.2969 201.7875,319.4531 202.2563,319.7031 C202.7406,319.9844 202.9125,320.2031 203.0063,320.6094 C203.0688,321.0156 203.1,321.1406 203.2406,321.2656 C203.3813,321.4063 203.6156,321.5156 203.8344,321.5156 C204.1,321.5156 204.3656,321.375 204.5375,321.1563 C204.6469,321 204.6781,320.8125 204.6781,320.3906 L204.6781,318.9688 C204.6781,318.5313 204.6625,318.4063 204.5688,318.25 C204.4125,317.9844 204.1313,317.8438 203.8344,317.8438 C203.5375,317.8438 203.3344,317.9375 203.1156,318.25 L202.9438,318.1719 Z " fill="#000000"/><text fill="#000000" font-family="sans-serif" font-size="12" lengthAdjust="spacing" textLength="32" x="219.4" y="326.6543">Piece</text><line style="stroke:#A80036;stroke-width:1.5;" x1="165" x2="275" y1="338.5" y2="338.5"/><text fill="#000000" font-family="sans-serif" font-size="11" lengthAdjust="spacing" textLength="69" x="170" y="352.7104">Entity entity</text><text fill="#000000" font-family="sans-serif" font-size="11" lengthAdjust="spacing" textLength="100" x="170" y="365.5151">boolean walkable</text><line style="stroke:#A80036;stroke-width:1.5;" x1="165" x2="275" y1="372.1094" y2="372.1094"/><text fill="#000000" font-family="sans-serif" font-size="11" lengthAdjust="spacing" textLength="46" x="170" y="386.3198">render()</text><!--MD5=[be996cdb8e6bf2fc7cb89c555f2cd144]
class Entity--><rect codeLine="24" fill="#FEFECE" filter="url(#f17fp8q34a9nhm)" height="99.2188" id="Entity" style="stroke:#A80036;stroke-width:1.5;" width="118" x="311" y="300"/><ellipse cx="350.3" cy="316" fill="#ADD1B2" rx="11" ry="11" style="stroke:#A80036;stroke-width:1.0;"/><path d="M352.6438,311.6719 C351.7063,311.2344 351.1125,311.0938 350.2375,311.0938 C347.6125,311.0938 345.6125,313.1719 345.6125,315.8906 L345.6125,317.0156 C345.6125,319.5938 347.7219,321.4844 350.6125,321.4844 C351.8313,321.4844 352.9875,321.1875 353.7375,320.6406 C354.3156,320.2344 354.6438,319.7813 354.6438,319.3906 C354.6438,318.9375 354.2531,318.5469 353.7844,318.5469 C353.5656,318.5469 353.3625,318.625 353.175,318.8125 C352.7219,319.2969 352.7219,319.2969 352.5344,319.3906 C352.1125,319.6563 351.425,319.7813 350.6594,319.7813 C348.6125,319.7813 347.3156,318.6875 347.3156,316.9844 L347.3156,315.8906 C347.3156,314.1094 348.5656,312.7969 350.3,312.7969 C350.8781,312.7969 351.4875,312.9531 351.9563,313.2031 C352.4406,313.4844 352.6125,313.7031 352.7063,314.1094 C352.7688,314.5156 352.8,314.6406 352.9406,314.7656 C353.0813,314.9063 353.3156,315.0156 353.5344,315.0156 C353.8,315.0156 354.0656,314.875 354.2375,314.6563 C354.3469,314.5 354.3781,314.3125 354.3781,313.8906 L354.3781,312.4688 C354.3781,312.0313 354.3625,311.9063 354.2688,311.75 C354.1125,311.4844 353.8313,311.3438 353.5344,311.3438 C353.2375,311.3438 353.0344,311.4375 352.8156,311.75 L352.6438,311.6719 Z " fill="#000000"/><text fill="#000000" font-family="sans-serif" font-size="12" lengthAdjust="spacing" textLength="32" x="369.7" y="320.1543">Entity</text><line style="stroke:#A80036;stroke-width:1.5;" x1="312" x2="428" y1="332" y2="332"/><text fill="#000000" font-family="sans-serif" font-size="11" lengthAdjust="spacing" textLength="106" x="317" y="346.2104">static Image sprite</text><text fill="#000000" font-family="sans-serif" font-size="11" lengthAdjust="spacing" textLength="89" x="317" y="359.0151">Piece[][] pieces</text><text fill="#000000" font-family="sans-serif" font-size="11" lengthAdjust="spacing" textLength="77" x="317" y="371.8198">int[2] position</text><line style="stroke:#A80036;stroke-width:1.5;" x1="312" x2="428" y1="378.4141" y2="378.4141"/><text fill="#000000" font-family="sans-serif" font-size="11" lengthAdjust="spacing" textLength="106" x="317" y="392.6245">Entity(World world)</text><!--MD5=[222513e4f8ac55ee2a6ad0b0f8e14e8f]
class Nest--><rect codeLine="31" fill="#FEFECE" filter="url(#f17fp8q34a9nhm)" height="60.8047" id="Nest" style="stroke:#A80036;stroke-width:1.5;" width="150" x="167" y="471.5"/><ellipse cx="224.25" cy="487.5" fill="#ADD1B2" rx="11" ry="11" style="stroke:#A80036;stroke-width:1.0;"/><path d="M226.5938,483.1719 C225.6563,482.7344 225.0625,482.5938 224.1875,482.5938 C221.5625,482.5938 219.5625,484.6719 219.5625,487.3906 L219.5625,488.5156 C219.5625,491.0938 221.6719,492.9844 224.5625,492.9844 C225.7813,492.9844 226.9375,492.6875 227.6875,492.1406 C228.2656,491.7344 228.5938,491.2813 228.5938,490.8906 C228.5938,490.4375 228.2031,490.0469 227.7344,490.0469 C227.5156,490.0469 227.3125,490.125 227.125,490.3125 C226.6719,490.7969 226.6719,490.7969 226.4844,490.8906 C226.0625,491.1563 225.375,491.2813 224.6094,491.2813 C222.5625,491.2813 221.2656,490.1875 221.2656,488.4844 L221.2656,487.3906 C221.2656,485.6094 222.5156,484.2969 224.25,484.2969 C224.8281,484.2969 225.4375,484.4531 225.9063,484.7031 C226.3906,484.9844 226.5625,485.2031 226.6563,485.6094 C226.7188,486.0156 226.75,486.1406 226.8906,486.2656 C227.0313,486.4063 227.2656,486.5156 227.4844,486.5156 C227.75,486.5156 228.0156,486.375 228.1875,486.1563 C228.2969,486 228.3281,485.8125 228.3281,485.3906 L228.3281,483.9688 C228.3281,483.5313 228.3125,483.4063 228.2188,483.25 C228.0625,482.9844 227.7813,482.8438 227.4844,482.8438 C227.1875,482.8438 226.9844,482.9375 226.7656,483.25 L226.5938,483.1719 Z " fill="#000000"/><text fill="#000000" font-family="sans-serif" font-size="12" lengthAdjust="spacing" textLength="27" x="244.75" y="491.6543">Nest</text><line style="stroke:#A80036;stroke-width:1.5;" x1="168" x2="316" y1="503.5" y2="503.5"/><text fill="#000000" font-family="sans-serif" font-size="11" lengthAdjust="spacing" textLength="138" x="173" y="517.7104">float[] paperProbabilities</text><line style="stroke:#A80036;stroke-width:1.5;" x1="168" x2="316" y1="524.3047" y2="524.3047"/><!--MD5=[8560f289a30852a9f75d64e53f926853]
class Building--><rect codeLine="35" fill="#FEFECE" filter="url(#f17fp8q34a9nhm)" height="73.6094" id="Building" style="stroke:#A80036;stroke-width:1.5;" width="122" x="249" y="605"/><ellipse cx="283.35" cy="621" fill="#ADD1B2" rx="11" ry="11" style="stroke:#A80036;stroke-width:1.0;"/><path d="M285.6938,616.6719 C284.7563,616.2344 284.1625,616.0938 283.2875,616.0938 C280.6625,616.0938 278.6625,618.1719 278.6625,620.8906 L278.6625,622.0156 C278.6625,624.5938 280.7719,626.4844 283.6625,626.4844 C284.8813,626.4844 286.0375,626.1875 286.7875,625.6406 C287.3656,625.2344 287.6938,624.7813 287.6938,624.3906 C287.6938,623.9375 287.3031,623.5469 286.8344,623.5469 C286.6156,623.5469 286.4125,623.625 286.225,623.8125 C285.7719,624.2969 285.7719,624.2969 285.5844,624.3906 C285.1625,624.6563 284.475,624.7813 283.7094,624.7813 C281.6625,624.7813 280.3656,623.6875 280.3656,621.9844 L280.3656,620.8906 C280.3656,619.1094 281.6156,617.7969 283.35,617.7969 C283.9281,617.7969 284.5375,617.9531 285.0063,618.2031 C285.4906,618.4844 285.6625,618.7031 285.7563,619.1094 C285.8188,619.5156 285.85,619.6406 285.9906,619.7656 C286.1313,619.9063 286.3656,620.0156 286.5844,620.0156 C286.85,620.0156 287.1156,619.875 287.2875,619.6563 C287.3969,619.5 287.4281,619.3125 287.4281,618.8906 L287.4281,617.4688 C287.4281,617.0313 287.4125,616.9063 287.3188,616.75 C287.1625,616.4844 286.8813,616.3438 286.5844,616.3438 C286.2875,616.3438 286.0844,616.4375 285.8656,616.75 L285.6938,616.6719 Z " fill="#000000"/><text fill="#000000" font-family="sans-serif" font-size="12" lengthAdjust="spacing" textLength="47" x="301.65" y="625.1543">Building</text><line style="stroke:#A80036;stroke-width:1.5;" x1="250" x2="370" y1="637" y2="637"/><text fill="#000000" font-family="sans-serif" font-size="11" lengthAdjust="spacing" textLength="110" x="255" y="651.2104">int type // 0: House</text><text fill="#000000" font-family="sans-serif" font-size="11" lengthAdjust="spacing" textLength="39" x="255" y="664.0151">AI dino</text><line style="stroke:#A80036;stroke-width:1.5;" x1="250" x2="370" y1="670.6094" y2="670.6094"/><!--MD5=[fb4c30fb1fb270e3f19f5aaa9eb17fad]
class DynamicEntity--><rect codeLine="40" fill="#FEFECE" filter="url(#f17fp8q34a9nhm)" height="86.4141" id="DynamicEntity" style="stroke:#A80036;stroke-width:1.5;" width="115" x="424.5" y="459"/><ellipse cx="439.5" cy="475" fill="#ADD1B2" rx="11" ry="11" style="stroke:#A80036;stroke-width:1.0;"/><path d="M441.8438,470.6719 C440.9063,470.2344 440.3125,470.0938 439.4375,470.0938 C436.8125,470.0938 434.8125,472.1719 434.8125,474.8906 L434.8125,476.0156 C434.8125,478.5938 436.9219,480.4844 439.8125,480.4844 C441.0313,480.4844 442.1875,480.1875 442.9375,479.6406 C443.5156,479.2344 443.8438,478.7813 443.8438,478.3906 C443.8438,477.9375 443.4531,477.5469 442.9844,477.5469 C442.7656,477.5469 442.5625,477.625 442.375,477.8125 C441.9219,478.2969 441.9219,478.2969 441.7344,478.3906 C441.3125,478.6563 440.625,478.7813 439.8594,478.7813 C437.8125,478.7813 436.5156,477.6875 436.5156,475.9844 L436.5156,474.8906 C436.5156,473.1094 437.7656,471.7969 439.5,471.7969 C440.0781,471.7969 440.6875,471.9531 441.1563,472.2031 C441.6406,472.4844 441.8125,472.7031 441.9063,473.1094 C441.9688,473.5156 442,473.6406 442.1406,473.7656 C442.2813,473.9063 442.5156,474.0156 442.7344,474.0156 C443,474.0156 443.2656,473.875 443.4375,473.6563 C443.5469,473.5 443.5781,473.3125 443.5781,472.8906 L443.5781,471.4688 C443.5781,471.0313 443.5625,470.9063 443.4688,470.75 C443.3125,470.4844 443.0313,470.3438 442.7344,470.3438 C442.4375,470.3438 442.2344,470.4375 442.0156,470.75 L441.8438,470.6719 Z " fill="#000000"/><text fill="#000000" font-family="sans-serif" font-size="12" lengthAdjust="spacing" textLength="83" x="453.5" y="479.1543">DynamicEntity</text><line style="stroke:#A80036;stroke-width:1.5;" x1="425.5" x2="538.5" y1="491" y2="491"/><text fill="#000000" font-family="sans-serif" font-size="11" lengthAdjust="spacing" textLength="66" x="430.5" y="505.2104">World world</text><line style="stroke:#A80036;stroke-width:1.5;" x1="425.5" x2="538.5" y1="511.8047" y2="511.8047"/><text fill="#000000" font-family="sans-serif" font-size="11" lengthAdjust="spacing" textLength="48" x="430.5" y="526.0151">update()</text><text fill="#000000" font-family="sans-serif" font-size="11" lengthAdjust="spacing" textLength="41" x="430.5" y="538.8198">move()</text><!--MD5=[0b747b16fd15de0ba6a1fc1f13282ea0]
class Dino--><rect codeLine="46" fill="#FEFECE" filter="url(#f17fp8q34a9nhm)" height="48" id="Dino" style="stroke:#A80036;stroke-width:1.5;" width="59" x="452.5" y="618"/><ellipse cx="467.5" cy="634" fill="#ADD1B2" rx="11" ry="11" style="stroke:#A80036;stroke-width:1.0;"/><path d="M469.8438,629.6719 C468.9063,629.2344 468.3125,629.0938 467.4375,629.0938 C464.8125,629.0938 462.8125,631.1719 462.8125,633.8906 L462.8125,635.0156 C462.8125,637.5938 464.9219,639.4844 467.8125,639.4844 C469.0313,639.4844 470.1875,639.1875 470.9375,638.6406 C471.5156,638.2344 471.8438,637.7813 471.8438,637.3906 C471.8438,636.9375 471.4531,636.5469 470.9844,636.5469 C470.7656,636.5469 470.5625,636.625 470.375,636.8125 C469.9219,637.2969 469.9219,637.2969 469.7344,637.3906 C469.3125,637.6563 468.625,637.7813 467.8594,637.7813 C465.8125,637.7813 464.5156,636.6875 464.5156,634.9844 L464.5156,633.8906 C464.5156,632.1094 465.7656,630.7969 467.5,630.7969 C468.0781,630.7969 468.6875,630.9531 469.1563,631.2031 C469.6406,631.4844 469.8125,631.7031 469.9063,632.1094 C469.9688,632.5156 470,632.6406 470.1406,632.7656 C470.2813,632.9063 470.5156,633.0156 470.7344,633.0156 C471,633.0156 471.2656,632.875 471.4375,632.6563 C471.5469,632.5 471.5781,632.3125 471.5781,631.8906 L471.5781,630.4688 C471.5781,630.0313 471.5625,629.9063 471.4688,629.75 C471.3125,629.4844 471.0313,629.3438 470.7344,629.3438 C470.4375,629.3438 470.2344,629.4375 470.0156,629.75 L469.8438,629.6719 Z " fill="#000000"/><text fill="#000000" font-family="sans-serif" font-size="12" lengthAdjust="spacing" textLength="27" x="481.5" y="638.1543">Dino</text><line style="stroke:#A80036;stroke-width:1.5;" x1="453.5" x2="510.5" y1="650" y2="650"/><line style="stroke:#A80036;stroke-width:1.5;" x1="453.5" x2="510.5" y1="658" y2="658"/><!--MD5=[d755c5174fbc4166a0b82a39f0ad1a0e]
class AI--><rect codeLine="48" fill="#FEFECE" filter="url(#f17fp8q34a9nhm)" height="86.4141" id="AI" style="stroke:#A80036;stroke-width:1.5;" width="155" x="209.5" y="765"/><ellipse cx="277.25" cy="781" fill="#ADD1B2" rx="11" ry="11" style="stroke:#A80036;stroke-width:1.0;"/><path d="M279.5938,776.6719 C278.6563,776.2344 278.0625,776.0938 277.1875,776.0938 C274.5625,776.0938 272.5625,778.1719 272.5625,780.8906 L272.5625,782.0156 C272.5625,784.5938 274.6719,786.4844 277.5625,786.4844 C278.7813,786.4844 279.9375,786.1875 280.6875,785.6406 C281.2656,785.2344 281.5938,784.7813 281.5938,784.3906 C281.5938,783.9375 281.2031,783.5469 280.7344,783.5469 C280.5156,783.5469 280.3125,783.625 280.125,783.8125 C279.6719,784.2969 279.6719,784.2969 279.4844,784.3906 C279.0625,784.6563 278.375,784.7813 277.6094,784.7813 C275.5625,784.7813 274.2656,783.6875 274.2656,781.9844 L274.2656,780.8906 C274.2656,779.1094 275.5156,777.7969 277.25,777.7969 C277.8281,777.7969 278.4375,777.9531 278.9063,778.2031 C279.3906,778.4844 279.5625,778.7031 279.6563,779.1094 C279.7188,779.5156 279.75,779.6406 279.8906,779.7656 C280.0313,779.9063 280.2656,780.0156 280.4844,780.0156 C280.75,780.0156 281.0156,779.875 281.1875,779.6563 C281.2969,779.5 281.3281,779.3125 281.3281,778.8906 L281.3281,777.4688 C281.3281,777.0313 281.3125,776.9063 281.2188,776.75 C281.0625,776.4844 280.7813,776.3438 280.4844,776.3438 C280.1875,776.3438 279.9844,776.4375 279.7656,776.75 L279.5938,776.6719 Z " fill="#000000"/><text fill="#000000" font-family="sans-serif" font-size="12" lengthAdjust="spacing" textLength="11" x="297.75" y="785.1543">AI</text><line style="stroke:#A80036;stroke-width:1.5;" x1="210.5" x2="363.5" y1="797" y2="797"/><text fill="#000000" font-family="sans-serif" font-size="11" lengthAdjust="spacing" textLength="143" x="215.5" y="811.2104">enum SpeciesColor color</text><text fill="#000000" font-family="sans-serif" font-size="11" lengthAdjust="spacing" textLength="124" x="215.5" y="824.0151">enum Activity activity</text><text fill="#000000" font-family="sans-serif" font-size="11" lengthAdjust="spacing" textLength="93" x="215.5" y="836.8198">Building building</text><line style="stroke:#A80036;stroke-width:1.5;" x1="210.5" x2="363.5" y1="843.4141" y2="843.4141"/><!--MD5=[2cb47ba637a0d19583e6199456f6ad0b]
class Player--><rect codeLine="54" fill="#FEFECE" filter="url(#f17fp8q34a9nhm)" height="137.6328" id="Player" style="stroke:#A80036;stroke-width:1.5;" width="210" x="400" y="739"/><ellipse cx="482.75" cy="755" fill="#ADD1B2" rx="11" ry="11" style="stroke:#A80036;stroke-width:1.0;"/><path d="M485.0938,750.6719 C484.1563,750.2344 483.5625,750.0938 482.6875,750.0938 C480.0625,750.0938 478.0625,752.1719 478.0625,754.8906 L478.0625,756.0156 C478.0625,758.5938 480.1719,760.4844 483.0625,760.4844 C484.2813,760.4844 485.4375,760.1875 486.1875,759.6406 C486.7656,759.2344 487.0938,758.7813 487.0938,758.3906 C487.0938,757.9375 486.7031,757.5469 486.2344,757.5469 C486.0156,757.5469 485.8125,757.625 485.625,757.8125 C485.1719,758.2969 485.1719,758.2969 484.9844,758.3906 C484.5625,758.6563 483.875,758.7813 483.1094,758.7813 C481.0625,758.7813 479.7656,757.6875 479.7656,755.9844 L479.7656,754.8906 C479.7656,753.1094 481.0156,751.7969 482.75,751.7969 C483.3281,751.7969 483.9375,751.9531 484.4063,752.2031 C484.8906,752.4844 485.0625,752.7031 485.1563,753.1094 C485.2188,753.5156 485.25,753.6406 485.3906,753.7656 C485.5313,753.9063 485.7656,754.0156 485.9844,754.0156 C486.25,754.0156 486.5156,753.875 486.6875,753.6563 C486.7969,753.5 486.8281,753.3125 486.8281,752.8906 L486.8281,751.4688 C486.8281,751.0313 486.8125,750.9063 486.7188,750.75 C486.5625,750.4844 486.2813,750.3438 485.9844,750.3438 C485.6875,750.3438 485.4844,750.4375 485.2656,750.75 L485.0938,750.6719 Z " fill="#000000"/><text fill="#000000" font-family="sans-serif" font-size="12" lengthAdjust="spacing" textLength="36" x="503.25" y="759.1543">Player</text><line style="stroke:#A80036;stroke-width:1.5;" x1="401" x2="609" y1="771" y2="771"/><text fill="#000000" font-family="sans-serif" font-size="11" lengthAdjust="spacing" textLength="98" x="406" y="785.2104">int[] paperCounts</text><text fill="#000000" font-family="sans-serif" font-size="11" lengthAdjust="spacing" textLength="121" x="406" y="798.0151">int[] paperMaxCounts</text><text fill="#000000" font-family="sans-serif" font-size="11" lengthAdjust="spacing" textLength="198" x="406" y="810.8198">enum SpeciesColor selectedPaper</text><line style="stroke:#A80036;stroke-width:1.5;" x1="401" x2="609" y1="817.4141" y2="817.4141"/><text fill="#000000" font-family="sans-serif" font-size="11" lengthAdjust="spacing" textLength="83" x="406" y="831.6245">collectPapers()</text><text fill="#000000" font-family="sans-serif" font-size="11" lengthAdjust="spacing" textLength="104" x="406" y="844.4292">selectPaperColor()</text><text fill="#000000" font-family="sans-serif" font-size="11" lengthAdjust="spacing" textLength="71" x="406" y="857.2339">throwPaper()</text><text fill="#000000" font-family="sans-serif" font-size="11" lengthAdjust="spacing" textLength="99" x="406" y="870.0386">punchWithPaper()</text><!--MD5=[574ae5e535ab9d722dfd5b5dd8886d51]
class Paper--><rect codeLine="64" fill="#FEFECE" filter="url(#f17fp8q34a9nhm)" height="73.6094" id="Paper" style="stroke:#A80036;stroke-width:1.5;" width="155" x="645.5" y="771"/><ellipse cx="701.75" cy="787" fill="#ADD1B2" rx="11" ry="11" style="stroke:#A80036;stroke-width:1.0;"/><path d="M704.0938,782.6719 C703.1563,782.2344 702.5625,782.0938 701.6875,782.0938 C699.0625,782.0938 697.0625,784.1719 697.0625,786.8906 L697.0625,788.0156 C697.0625,790.5938 699.1719,792.4844 702.0625,792.4844 C703.2813,792.4844 704.4375,792.1875 705.1875,791.6406 C705.7656,791.2344 706.0938,790.7813 706.0938,790.3906 C706.0938,789.9375 705.7031,789.5469 705.2344,789.5469 C705.0156,789.5469 704.8125,789.625 704.625,789.8125 C704.1719,790.2969 704.1719,790.2969 703.9844,790.3906 C703.5625,790.6563 702.875,790.7813 702.1094,790.7813 C700.0625,790.7813 698.7656,789.6875 698.7656,787.9844 L698.7656,786.8906 C698.7656,785.1094 700.0156,783.7969 701.75,783.7969 C702.3281,783.7969 702.9375,783.9531 703.4063,784.2031 C703.8906,784.4844 704.0625,784.7031 704.1563,785.1094 C704.2188,785.5156 704.25,785.6406 704.3906,785.7656 C704.5313,785.9063 704.7656,786.0156 704.9844,786.0156 C705.25,786.0156 705.5156,785.875 705.6875,785.6563 C705.7969,785.5 705.8281,785.3125 705.8281,784.8906 L705.8281,783.4688 C705.8281,783.0313 705.8125,782.9063 705.7188,782.75 C705.5625,782.4844 705.2813,782.3438 704.9844,782.3438 C704.6875,782.3438 704.4844,782.4375 704.2656,782.75 L704.0938,782.6719 Z " fill="#000000"/><text fill="#000000" font-family="sans-serif" font-size="12" lengthAdjust="spacing" textLength="34" x="722.25" y="791.1543">Paper</text><line style="stroke:#A80036;stroke-width:1.5;" x1="646.5" x2="799.5" y1="803" y2="803"/><text fill="#000000" font-family="sans-serif" font-size="11" lengthAdjust="spacing" textLength="143" x="651.5" y="817.2104">enum SpeciesColor color</text><text fill="#000000" font-family="sans-serif" font-size="11" lengthAdjust="spacing" textLength="80" x="651.5" y="830.0151">float[2] speed</text><line style="stroke:#A80036;stroke-width:1.5;" x1="646.5" x2="799.5" y1="836.6094" y2="836.6094"/><!--MD5=[c881b25adf3665c6568c9693d41a70f3]
class Activity--><rect codeLine="69" fill="#FEFECE" filter="url(#f17fp8q34a9nhm)" height="86.4141" id="Activity" style="stroke:#A80036;stroke-width:1.5;" width="75" x="249.5" y="937"/><ellipse cx="264.5" cy="953" fill="#EB937F" rx="11" ry="11" style="stroke:#A80036;stroke-width:1.0;"/><path d="M263.2969,953.875 L264.75,953.875 L264.75,953.9844 C264.75,954.3906 264.7813,954.5469 264.8594,954.7031 C265.0156,954.9531 265.2969,955.1094 265.5938,955.1094 C265.8438,955.1094 266.1094,954.9688 266.2656,954.75 C266.3906,954.5938 266.4219,954.4375 266.4219,953.9844 L266.4219,952.0625 C266.4219,951.9063 266.4219,951.8594 266.4063,951.7031 C266.3438,951.2344 266.0313,950.9219 265.5781,950.9219 C265.3281,950.9219 265.0625,951.0625 264.8906,951.2813 C264.7813,951.4531 264.75,951.6094 264.75,952.0625 L264.75,952.1875 L263.2969,952.1875 L263.2969,949.7813 L267.2813,949.7813 L267.2813,950.6406 C267.2813,951.0469 267.3125,951.2188 267.3906,951.375 C267.5625,951.625 267.8438,951.7813 268.125,951.7813 C268.3906,951.7813 268.6563,951.6406 268.8281,951.4219 C268.9375,951.25 268.9688,951.1094 268.9688,950.6406 L268.9688,948.0938 L261.3438,948.0938 C260.9063,948.0938 260.7813,948.1094 260.625,948.2031 C260.375,948.3594 260.2188,948.6563 260.2188,948.9375 C260.2188,949.2188 260.3594,949.4688 260.5781,949.6406 C260.7344,949.75 260.9219,949.7813 261.3438,949.7813 L261.5938,949.7813 L261.5938,956.2969 L261.3438,956.2969 C260.9375,956.2969 260.7813,956.3125 260.625,956.4219 C260.375,956.5938 260.2188,956.8594 260.2188,957.1563 C260.2188,957.4219 260.3594,957.6719 260.5781,957.8281 C260.7188,957.9531 260.9531,958 261.3438,958 L269.3438,958 L269.3438,955.4219 C269.3438,954.9844 269.3125,954.8438 269.2344,954.6875 C269.0625,954.4375 268.7813,954.2813 268.5,954.2813 C268.2344,954.2813 267.9688,954.3906 267.7969,954.6406 C267.6875,954.7969 267.6563,954.9375 267.6563,955.4219 L267.6563,956.2969 L263.2969,956.2969 L263.2969,953.875 Z " fill="#000000"/><text fill="#000000" font-family="sans-serif" font-size="12" lengthAdjust="spacing" textLength="43" x="278.5" y="957.1543">Activity</text><line style="stroke:#A80036;stroke-width:1.5;" x1="250.5" x2="323.5" y1="969" y2="969"/><text fill="#000000" font-family="sans-serif" font-size="11" lengthAdjust="spacing" textLength="59" x="255.5" y="983.2104">wandering</text><text fill="#000000" font-family="sans-serif" font-size="11" lengthAdjust="spacing" textLength="39" x="255.5" y="996.0151">resting</text><text fill="#000000" font-family="sans-serif" font-size="11" lengthAdjust="spacing" textLength="39" x="255.5" y="1008.8198">hangry</text><line style="stroke:#A80036;stroke-width:1.5;" x1="250.5" x2="323.5" y1="1015.4141" y2="1015.4141"/><!--MD5=[bdc64ea1417373d8993b223e9e2d2b5f]
class SpeciesColor--><rect codeLine="75" fill="#FEFECE" filter="url(#f17fp8q34a9nhm)" height="73.6094" id="SpeciesColor" style="stroke:#A80036;stroke-width:1.5;" width="113" x="448.5" y="943"/><ellipse cx="463.5" cy="959" fill="#EB937F" rx="11" ry="11" style="stroke:#A80036;stroke-width:1.0;"/><path d="M462.2969,959.875 L463.75,959.875 L463.75,959.9844 C463.75,960.3906 463.7813,960.5469 463.8594,960.7031 C464.0156,960.9531 464.2969,961.1094 464.5938,961.1094 C464.8438,961.1094 465.1094,960.9688 465.2656,960.75 C465.3906,960.5938 465.4219,960.4375 465.4219,959.9844 L465.4219,958.0625 C465.4219,957.9063 465.4219,957.8594 465.4063,957.7031 C465.3438,957.2344 465.0313,956.9219 464.5781,956.9219 C464.3281,956.9219 464.0625,957.0625 463.8906,957.2813 C463.7813,957.4531 463.75,957.6094 463.75,958.0625 L463.75,958.1875 L462.2969,958.1875 L462.2969,955.7813 L466.2813,955.7813 L466.2813,956.6406 C466.2813,957.0469 466.3125,957.2188 466.3906,957.375 C466.5625,957.625 466.8438,957.7813 467.125,957.7813 C467.3906,957.7813 467.6563,957.6406 467.8281,957.4219 C467.9375,957.25 467.9688,957.1094 467.9688,956.6406 L467.9688,954.0938 L460.3438,954.0938 C459.9063,954.0938 459.7813,954.1094 459.625,954.2031 C459.375,954.3594 459.2188,954.6563 459.2188,954.9375 C459.2188,955.2188 459.3594,955.4688 459.5781,955.6406 C459.7344,955.75 459.9219,955.7813 460.3438,955.7813 L460.5938,955.7813 L460.5938,962.2969 L460.3438,962.2969 C459.9375,962.2969 459.7813,962.3125 459.625,962.4219 C459.375,962.5938 459.2188,962.8594 459.2188,963.1563 C459.2188,963.4219 459.3594,963.6719 459.5781,963.8281 C459.7188,963.9531 459.9531,964 460.3438,964 L468.3438,964 L468.3438,961.4219 C468.3438,960.9844 468.3125,960.8438 468.2344,960.6875 C468.0625,960.4375 467.7813,960.2813 467.5,960.2813 C467.2344,960.2813 466.9688,960.3906 466.7969,960.6406 C466.6875,960.7969 466.6563,960.9375 466.6563,961.4219 L466.6563,962.2969 L462.2969,962.2969 L462.2969,959.875 Z " fill="#000000"/><text fill="#000000" font-family="sans-serif" font-size="12" lengthAdjust="spacing" textLength="81" x="477.5" y="963.1543">SpeciesColor</text><line style="stroke:#A80036;stroke-width:1.5;" x1="449.5" x2="560.5" y1="975" y2="975"/><text fill="#000000" font-family="sans-serif" font-size="11" lengthAdjust="spacing" textLength="19" x="454.5" y="989.2104">red</text><text fill="#000000" font-family="sans-serif" font-size="11" lengthAdjust="spacing" textLength="25" x="454.5" y="1002.0151">blue</text><line style="stroke:#A80036;stroke-width:1.5;" x1="449.5" x2="560.5" y1="1008.6094" y2="1008.6094"/><!--MD5=[9b42e2c40c5c3250f6f2cff3a893cb2e]
reverse link Entity to Nest--><path d="M315.328,414.782 C298.634,434.411 281.074,455.058 267.325,471.224 " fill="none" id="Entity-backto-Nest" style="stroke:#A80036;stroke-width:1.0;"/><polygon fill="none" points="310.152,410.063,328.442,399.363,320.817,419.133,310.152,410.063" style="stroke:#A80036;stroke-width:1.0;"/><!--MD5=[bf7f4d8930ae200ca6b27288c56a3d7a]
reverse link Entity to Building--><path d="M358.991,419.016 C352.655,456.391 344.147,503.393 335,545 C330.636,564.849 324.984,586.796 320.158,604.69 " fill="none" id="Entity-backto-Building" style="stroke:#A80036;stroke-width:1.0;"/><polygon fill="none" points="352.125,417.637,362.324,399.063,365.933,419.943,352.125,417.637" style="stroke:#A80036;stroke-width:1.0;"/><!--MD5=[544e9875717ef78f0a495c51cccde454]
reverse link Entity to DynamicEntity--><path d="M418.448,415.602 C429.38,430.292 440.702,445.506 450.709,458.952 " fill="none" id="Entity-backto-DynamicEntity" style="stroke:#A80036;stroke-width:1.0;"/><polygon fill="none" points="412.688,419.587,406.363,399.363,423.919,411.229,412.688,419.587" style="stroke:#A80036;stroke-width:1.0;"/><!--MD5=[992b618b077310a5d94725a48563bc7b]
reverse link DynamicEntity to Dino--><path d="M482,565.342 C482,584.077 482,603.473 482,617.936 " fill="none" id="DynamicEntity-backto-Dino" style="stroke:#A80036;stroke-width:1.0;"/><polygon fill="none" points="475,565.154,482,545.154,489,565.154,475,565.154" style="stroke:#A80036;stroke-width:1.0;"/><!--MD5=[baa2962affdb08c86284bf861b27f29c]
reverse link Dino to AI--><path d="M438.915,679.236 C408.804,704.56 368.506,738.451 336.982,764.964 " fill="none" id="Dino-backto-AI" style="stroke:#A80036;stroke-width:1.0;"/><polygon fill="none" points="434.663,673.665,454.475,666.149,443.674,684.38,434.663,673.665" style="stroke:#A80036;stroke-width:1.0;"/><!--MD5=[4aeec6e5b5c55acc33d746391462528e]
reverse link Dino to Player--><path d="M488.062,686.222 C490.326,702.368 492.956,721.12 495.458,738.964 " fill="none" id="Dino-backto-Player" style="stroke:#A80036;stroke-width:1.0;"/><polygon fill="none" points="481.092,686.928,485.247,666.149,494.956,684.983,481.092,686.928" style="stroke:#A80036;stroke-width:1.0;"/><!--MD5=[6cd0be0e1da4a575eaa73052b6316d8e]
reverse link DynamicEntity to Paper--><path d="M527.961,560.976 C576.996,622.829 653.149,718.889 694.289,770.783 " fill="none" id="DynamicEntity-backto-Paper" style="stroke:#A80036;stroke-width:1.0;"/><polygon fill="none" points="522.449,565.291,515.51,545.27,533.42,556.594,522.449,565.291" style="stroke:#A80036;stroke-width:1.0;"/><!--MD5=[2447db2d5398c13e17973605d13e2ad0]
link World to Grid--><path codeLine="80" d="M312.693,106.018 C295.678,125.532 276.397,147.644 260.634,165.722 " fill="none" id="World-Grid" style="stroke:#A80036;stroke-width:1.0;"/><text fill="#000000" font-family="sans-serif" font-size="13" lengthAdjust="spacing" textLength="8" x="297.8917" y="126.4531">0</text><text fill="#000000" font-family="sans-serif" font-size="13" lengthAdjust="spacing" textLength="8" x="257.5563" y="154.8594">1</text><!--MD5=[4002627d21c3ad16fb74c62a082ce548]
link World to DynamicEntity--><path codeLine="81" d="M376.66,106.28 C397.363,154.611 428.135,231.168 447,300 C461.793,353.975 471.658,417.889 477.043,458.914 " fill="none" id="World-DynamicEntity" style="stroke:#A80036;stroke-width:1.0;"/><text fill="#000000" font-family="sans-serif" font-size="13" lengthAdjust="spacing" textLength="8" x="371.1434" y="126.3959">1</text><text fill="#000000" font-family="sans-serif" font-size="13" lengthAdjust="spacing" textLength="7" x="468.6952" y="447.8963">*</text><!--MD5=[d31bdcbbaabb43506266532ce7787e4b]
link Grid to Cell--><path codeLine="82" d="M188.788,240.091 C164.2,262.159 132.854,290.292 108.257,312.369 " fill="none" id="Grid-Cell" style="stroke:#A80036;stroke-width:1.0;"/><text fill="#000000" font-family="sans-serif" font-size="13" lengthAdjust="spacing" textLength="8" x="172.9127" y="242.4754">0</text><text fill="#000000" font-family="sans-serif" font-size="13" lengthAdjust="spacing" textLength="7" x="107.8046" y="301.5326">*</text><!--MD5=[625c4cddad4da778bd8c968c984df8b1]
link Cell to Piece--><path codeLine="83" d="M129.156,349.5 C140.748,349.5 152.34,349.5 163.932,349.5 " fill="none" id="Cell-Piece" style="stroke:#A80036;stroke-width:1.0;"/><text fill="#000000" font-family="sans-serif" font-size="13" lengthAdjust="spacing" textLength="8" x="137.0969" y="345.6847">0</text><text fill="#000000" font-family="sans-serif" font-size="13" lengthAdjust="spacing" textLength="7" x="148.9276" y="345.5402">*</text><!--MD5=[8130f8c65851955adfcb1602526b4bb3]
link Piece to Entity--><path codeLine="84" d="M276.25,349.5 C287.725,349.5 299.199,349.5 310.674,349.5 " fill="none" id="Piece-Entity" style="stroke:#A80036;stroke-width:1.0;"/><text fill="#000000" font-family="sans-serif" font-size="13" lengthAdjust="spacing" textLength="10" x="284.0977" y="345.5879">+</text><text fill="#000000" font-family="sans-serif" font-size="13" lengthAdjust="spacing" textLength="8" x="294.9561" y="345.6476">1</text><!--MD5=[311976ed05cb909bcfa8bded70f9b41d]
link Building to AI--><path codeLine="85" d="M304.896,679.397 C301.349,704.687 296.612,738.463 292.903,764.912 " fill="none" id="Building-AI" style="stroke:#A80036;stroke-width:1.0;"/><text fill="#000000" font-family="sans-serif" font-size="13" lengthAdjust="spacing" textLength="8" x="295.4451" y="698.6611">1</text><text fill="#000000" font-family="sans-serif" font-size="13" lengthAdjust="spacing" textLength="8" x="285.2063" y="753.894">1</text><!--MD5=[678289fa504f8c99d40a55ed50cc38cc]
link AI to Activity--><path codeLine="86" d="M287,851.022 C287,877.177 287,910.698 287,936.8718 " fill="none" id="AI-Activity" style="stroke:#A80036;stroke-width:1.0;"/><!--MD5=[551cf52d423e0769c9b6976e3e85987b]
link AI to SpeciesColor--><path codeLine="87" d="M340.888,851.022 C377.074,879.241 424.259,916.036 458.741,942.9263 " fill="none" id="AI-SpeciesColor" style="stroke:#A80036;stroke-width:1.0;"/><!--MD5=[e75a45a3ef897ffd12f1bd18f7d46960]
link Player to SpeciesColor--><path codeLine="88" d="M505,877.166 C505,899.52 505,923.493 505,942.5601 " fill="none" id="Player-SpeciesColor" style="stroke:#A80036;stroke-width:1.0;"/><!--MD5=[99cc7005e9ebf5af8f8ecf140a4a427c]
link Paper to SpeciesColor--><path codeLine="89" d="M676.768,845.053 C639.772,873.902 588.143,914.163 551.166,942.9993 " fill="none" id="Paper-SpeciesColor" style="stroke:#A80036;stroke-width:1.0;"/><!--MD5=[25c2f49218dc65008cdd413ca72f534b]
@startuml
class World {
	static Color[] colors
	List<DynamicEntity> dynamicEntities
	update()
	render()
}

class Grid {
	Cell[][] cells
	render()
}

class Cell {
	List<Piece> pieces
	render()
}

class Piece {
	Entity entity
	boolean walkable
	render()
}

class Entity {
	static Image sprite
	Piece[][] pieces
	int[2] position
	Entity(World world)
}

class Nest extends Entity {
	float[] paperProbabilities
}

class Building extends Entity {
	int type // 0: House
	AI dino
}

class DynamicEntity extends Entity {
	World world
	update()
	move()
}

class Dino extends DynamicEntity

class AI extends Dino {
	enum SpeciesColor color
	enum Activity activity
	Building building
}

class Player extends Dino {
	int[] paperCounts
	int[] paperMaxCounts
	enum SpeciesColor selectedPaper
	collectPapers()
	selectPaperColor()
	throwPaper()
	punchWithPaper()
}

class Paper extends DynamicEntity {
	enum SpeciesColor color
	float[2] speed
}

enum Activity {
	wandering
	resting
	hangry
}

enum SpeciesColor {
	red
	blue
}

World "0"- -down"1" Grid
World "1"- -down"*" DynamicEntity
Grid "0"- -down"*" Cell
Cell "0"- -right"*" Piece
Piece "+"- -right"1" Entity
Building "1"- -"1" AI
AI - - Activity
AI - - SpeciesColor
Player - - SpeciesColor
Paper - - SpeciesColor
@enduml

PlantUML version 1.2021.2beta2(Unknown compile time)
(GPL source distribution)
Java Runtime: Java(TM) SE Runtime Environment
JVM: Java HotSpot(TM) 64-Bit Server VM
Default Encoding: UTF-8
Language: en
Country: US
--></g></svg>