<?xml version="1.0" encoding="UTF-8" standalone="no"?><svg xmlns="http://www.w3.org/2000/svg" xmlns:xlink="http://www.w3.org/1999/xlink" contentScriptType="application/ecmascript" contentStyleType="text/css" height="1152px" preserveAspectRatio="none" style="width:939px;height:1152px;" version="1.1" viewBox="0 0 939 1152" width="939px" zoomAndPan="magnify">
    <defs>
        <filter height="300%" id="f1ptaocwia48p0" width="300%" x="-1" y="-1">
            <feGaussianBlur result="blurOut" stdDeviation="2.0" />
            <feColorMatrix in="blurOut" result="blurOut2" type="matrix" values="0 0 0 0 0 0 0 0 0 0 0 0 0 0 0 0 0 0 .4 0" />
            <feOffset dx="4.0" dy="4.0" in="blurOut2" result="blurOut3" />
            <feBlend in="SourceGraphic" in2="blurOut3" mode="normal" />
        </filter>
    </defs>
    <g>
        <!--MD5=[2a013135f1f90689be40a3c084fed702]
cluster entities-->
        <polygon fill="#FFFFFF" filter="url(#f1ptaocwia48p0)" points="22,448,81,448,88,471.6094,883,471.6094,883,1036,22,1036,22,448" style="stroke: #000000; stroke-width: 1.5;" />
        <line style="stroke: #000000; stroke-width: 1.5;" x1="22" x2="88" y1="471.6094" y2="471.6094" /><text fill="#000000" font-family="sans-serif" font-size="14" font-weight="bold" lengthAdjust="spacingAndGlyphs" textLength="53" x="26" y="464.5332">entities</text>
        <!--MD5=[efcbed1fd1e0b4524ff82ab934a6aa1b]
cluster stationary-->
        <polygon fill="#FFFFFF" filter="url(#f1ptaocwia48p0)" points="509,611,584,611,591,634.6094,859,634.6094,859,753,509,753,509,611" style="stroke: #000000; stroke-width: 1.5;" />
        <line style="stroke: #000000; stroke-width: 1.5;" x1="509" x2="591" y1="634.6094" y2="634.6094" /><text fill="#000000" font-family="sans-serif" font-size="14" font-weight="bold" lengthAdjust="spacingAndGlyphs" textLength="69" x="513" y="627.5332">stationary</text>
        <!--MD5=[f2e08e0b22987c606f6efdecb21fca7b]
cluster dynamic-->
        <polygon fill="#FFFFFF" filter="url(#f1ptaocwia48p0)" points="46,611,109,611,116,634.6094,485,634.6094,485,1012,46,1012,46,611" style="stroke: #000000; stroke-width: 1.5;" />
        <line style="stroke: #000000; stroke-width: 1.5;" x1="46" x2="116" y1="634.6094" y2="634.6094" /><text fill="#000000" font-family="sans-serif" font-size="14" font-weight="bold" lengthAdjust="spacingAndGlyphs" textLength="57" x="50" y="627.5332">dynamic</text>
        <!--MD5=[e8fde4a48cb0b04cf8ca51574c841ea1]
cluster dinos-->
        <polygon fill="#FFFFFF" filter="url(#f1ptaocwia48p0)" points="70,777,115,777,122,800.6094,461,800.6094,461,988,70,988,70,777" style="stroke: #000000; stroke-width: 1.5;" />
        <line style="stroke: #000000; stroke-width: 1.5;" x1="70" x2="122" y1="800.6094" y2="800.6094" /><text fill="#000000" font-family="sans-serif" font-size="14" font-weight="bold" lengthAdjust="spacingAndGlyphs" textLength="39" x="74" y="793.5332">dinos</text>
        <!--MD5=[a9d92df23f780163d0221e16483f0121]
class StationaryEntity-->
        <rect fill="#FEFECE" filter="url(#f1ptaocwia48p0)" height="61.8359" id="StationaryEntity" style="stroke: #A80036; stroke-width: 1.5;" width="152" x="513" y="504.5" />
        <ellipse cx="543.75" cy="520.5" fill="#A9DCDF" rx="11" ry="11" style="stroke: #A80036; stroke-width: 1.0;" />
        <path d="M545.9375,522.2656 L541.7969,522.2656 L541.375,523.2969 L541.7969,523.2969 Q542.4063,523.2969 542.6719,523.5313 Q542.9375,523.7656 542.9375,524.1563 Q542.9375,524.5313 542.6719,524.7656 Q542.4063,525 541.7969,525 L539.5,525 Q538.8906,525 538.6328,524.7656 Q538.375,524.5313 538.375,524.1406 Q538.375,523.7656 538.6484,523.5234 Q538.9219,523.2813 539.5469,523.2969 L542.2188,516.6406 L541.1094,516.6406 Q540.5,516.6406 540.2344,516.4063 Q539.9688,516.1719 539.9688,515.7813 Q539.9688,515.4063 540.2344,515.1719 Q540.5,514.9375 541.1094,514.9375 L544.7813,514.9375 L548.1719,523.2969 Q548.7656,523.2969 548.9531,523.4375 Q549.3438,523.7031 549.3438,524.1563 Q549.3438,524.5313 549.0859,524.7656 Q548.8281,525 548.2188,525 L545.9219,525 Q545.3125,525 545.0469,524.7656 Q544.7813,524.5313 544.7813,524.1406 Q544.7813,523.7656 545.0469,523.5313 Q545.3125,523.2969 545.9219,523.2969 L546.3438,523.2969 L545.9375,522.2656 Z M545.2188,520.5625 L543.8594,517.1875 L542.4844,520.5625 L545.2188,520.5625 Z " /><text fill="#000000" font-family="sans-serif" font-size="12" font-style="italic" lengthAdjust="spacingAndGlyphs" textLength="85" x="561.25" y="525.4102">StationaryEntity</text>
        <line style="stroke: #A80036; stroke-width: 1.5;" x1="514" x2="664" y1="536.5" y2="536.5" />
        <line style="stroke: #A80036; stroke-width: 1.5;" x1="514" x2="664" y1="544.5" y2="544.5" /><text fill="#000000" font-family="sans-serif" font-size="11" lengthAdjust="spacingAndGlyphs" textLength="140" x="519" y="559.9189">StationaryEntity(int[] position)</text>
        <!--MD5=[fb4c30fb1fb270e3f19f5aaa9eb17fad]
class DynamicEntity-->
        <rect fill="#FEFECE" filter="url(#f1ptaocwia48p0)" height="103.3438" id="DynamicEntity" style="stroke: #A80036; stroke-width: 1.5;" width="146" x="296" y="484" />
        <ellipse cx="326.75" cy="500" fill="#A9DCDF" rx="11" ry="11" style="stroke: #A80036; stroke-width: 1.0;" />
        <path d="M328.9375,501.7656 L324.7969,501.7656 L324.375,502.7969 L324.7969,502.7969 Q325.4063,502.7969 325.6719,503.0313 Q325.9375,503.2656 325.9375,503.6563 Q325.9375,504.0313 325.6719,504.2656 Q325.4063,504.5 324.7969,504.5 L322.5,504.5 Q321.8906,504.5 321.6328,504.2656 Q321.375,504.0313 321.375,503.6406 Q321.375,503.2656 321.6484,503.0234 Q321.9219,502.7813 322.5469,502.7969 L325.2188,496.1406 L324.1094,496.1406 Q323.5,496.1406 323.2344,495.9063 Q322.9688,495.6719 322.9688,495.2813 Q322.9688,494.9063 323.2344,494.6719 Q323.5,494.4375 324.1094,494.4375 L327.7813,494.4375 L331.1719,502.7969 Q331.7656,502.7969 331.9531,502.9375 Q332.3438,503.2031 332.3438,503.6563 Q332.3438,504.0313 332.0859,504.2656 Q331.8281,504.5 331.2188,504.5 L328.9219,504.5 Q328.3125,504.5 328.0469,504.2656 Q327.7813,504.0313 327.7813,503.6406 Q327.7813,503.2656 328.0469,503.0313 Q328.3125,502.7969 328.9219,502.7969 L329.3438,502.7969 L328.9375,501.7656 Z M328.2188,500.0625 L326.8594,496.6875 L325.4844,500.0625 L328.2188,500.0625 Z " /><text fill="#000000" font-family="sans-serif" font-size="12" font-style="italic" lengthAdjust="spacingAndGlyphs" textLength="79" x="344.25" y="504.9102">DynamicEntity</text>
        <line style="stroke: #A80036; stroke-width: 1.5;" x1="297" x2="441" y1="516" y2="516" /><text fill="#000000" font-family="sans-serif" font-size="11" lengthAdjust="spacingAndGlyphs" textLength="59" x="302" y="531.4189">World world</text>
        <line style="stroke: #A80036; stroke-width: 1.5;" x1="297" x2="441" y1="537.8359" y2="537.8359" /><text fill="#000000" font-family="sans-serif" font-size="11" lengthAdjust="spacingAndGlyphs" textLength="134" x="302" y="553.2549">DynamicEntity(World world)</text><text fill="#000000" font-family="sans-serif" font-size="11" lengthAdjust="spacingAndGlyphs" textLength="41" x="302" y="567.0908">update()</text><text fill="#000000" font-family="sans-serif" font-size="11" lengthAdjust="spacingAndGlyphs" textLength="34" x="302" y="580.9268">move()</text>
        <!--MD5=[222513e4f8ac55ee2a6ad0b0f8e14e8f]
class Nest-->
        <rect fill="#FEFECE" filter="url(#f1ptaocwia48p0)" height="75.6719" id="Nest" style="stroke: #A80036; stroke-width: 1.5;" width="127" x="525.5" y="654" />
        <ellipse cx="571.75" cy="670" fill="#ADD1B2" rx="11" ry="11" style="stroke: #A80036; stroke-width: 1.0;" />
        <path d="M574.5156,665.875 Q574.6719,665.6563 574.8594,665.5469 Q575.0469,665.4375 575.2656,665.4375 Q575.6406,665.4375 575.875,665.6953 Q576.1094,665.9531 576.1094,666.5625 L576.1094,668.0156 Q576.1094,668.625 575.875,668.8906 Q575.6406,669.1563 575.2656,669.1563 Q574.9219,669.1563 574.7188,668.9531 Q574.5156,668.7656 574.4063,668.25 Q574.3594,667.8906 574.1719,667.7031 Q573.8438,667.3281 573.2344,667.1094 Q572.625,666.8906 572,666.8906 Q571.2344,666.8906 570.6016,667.2188 Q569.9688,667.5469 569.4766,668.2969 Q568.9844,669.0469 568.9844,670.0781 L568.9844,671.1719 Q568.9844,672.4063 569.875,673.2266 Q570.7656,674.0469 572.3594,674.0469 Q573.2969,674.0469 573.9531,673.7969 Q574.3438,673.6406 574.7656,673.2031 Q575.0313,672.9375 575.1797,672.8594 Q575.3281,672.7813 575.5313,672.7813 Q575.8594,672.7813 576.1172,673.0391 Q576.375,673.2969 576.375,673.6406 Q576.375,673.9844 576.0313,674.3906 Q575.5313,674.9688 574.7344,675.2969 Q573.6563,675.75 572.3594,675.75 Q570.8438,675.75 569.6406,675.125 Q568.6563,674.625 567.9688,673.5547 Q567.2813,672.4844 567.2813,671.2031 L567.2813,670.0469 Q567.2813,668.7188 567.8984,667.5703 Q568.5156,666.4219 569.6094,665.8047 Q570.7031,665.1875 571.9375,665.1875 Q572.6719,665.1875 573.3203,665.3516 Q573.9688,665.5156 574.5156,665.875 Z " /><text fill="#000000" font-family="sans-serif" font-size="12" lengthAdjust="spacingAndGlyphs" textLength="26" x="592.25" y="674.9102">Nest</text>
        <line style="stroke: #A80036; stroke-width: 1.5;" x1="526.5" x2="651.5" y1="686" y2="686" /><text fill="#000000" font-family="sans-serif" font-size="11" lengthAdjust="spacingAndGlyphs" textLength="115" x="531.5" y="701.4189">float[] paperProbabilities</text>
        <line style="stroke: #A80036; stroke-width: 1.5;" x1="526.5" x2="651.5" y1="707.8359" y2="707.8359" /><text fill="#000000" font-family="sans-serif" font-size="11" lengthAdjust="spacingAndGlyphs" textLength="87" x="531.5" y="723.2549">Nest(int[] position)</text>
        <!--MD5=[8560f289a30852a9f75d64e53f926853]
class Building-->
        <rect fill="#FEFECE" filter="url(#f1ptaocwia48p0)" height="89.5078" id="Building" style="stroke: #A80036; stroke-width: 1.5;" width="155" x="687.5" y="647" />
        <ellipse cx="738.25" cy="663" fill="#ADD1B2" rx="11" ry="11" style="stroke: #A80036; stroke-width: 1.0;" />
        <path d="M741.0156,658.875 Q741.1719,658.6563 741.3594,658.5469 Q741.5469,658.4375 741.7656,658.4375 Q742.1406,658.4375 742.375,658.6953 Q742.6094,658.9531 742.6094,659.5625 L742.6094,661.0156 Q742.6094,661.625 742.375,661.8906 Q742.1406,662.1563 741.7656,662.1563 Q741.4219,662.1563 741.2188,661.9531 Q741.0156,661.7656 740.9063,661.25 Q740.8594,660.8906 740.6719,660.7031 Q740.3438,660.3281 739.7344,660.1094 Q739.125,659.8906 738.5,659.8906 Q737.7344,659.8906 737.1016,660.2188 Q736.4688,660.5469 735.9766,661.2969 Q735.4844,662.0469 735.4844,663.0781 L735.4844,664.1719 Q735.4844,665.4063 736.375,666.2266 Q737.2656,667.0469 738.8594,667.0469 Q739.7969,667.0469 740.4531,666.7969 Q740.8438,666.6406 741.2656,666.2031 Q741.5313,665.9375 741.6797,665.8594 Q741.8281,665.7813 742.0313,665.7813 Q742.3594,665.7813 742.6172,666.0391 Q742.875,666.2969 742.875,666.6406 Q742.875,666.9844 742.5313,667.3906 Q742.0313,667.9688 741.2344,668.2969 Q740.1563,668.75 738.8594,668.75 Q737.3438,668.75 736.1406,668.125 Q735.1563,667.625 734.4688,666.5547 Q733.7813,665.4844 733.7813,664.2031 L733.7813,663.0469 Q733.7813,661.7188 734.3984,660.5703 Q735.0156,659.4219 736.1094,658.8047 Q737.2031,658.1875 738.4375,658.1875 Q739.1719,658.1875 739.8203,658.3516 Q740.4688,658.5156 741.0156,658.875 Z " /><text fill="#000000" font-family="sans-serif" font-size="12" lengthAdjust="spacingAndGlyphs" textLength="45" x="758.75" y="667.9102">Building</text>
        <line style="stroke: #A80036; stroke-width: 1.5;" x1="688.5" x2="841.5" y1="679" y2="679" /><text fill="#000000" font-family="sans-serif" font-size="11" lengthAdjust="spacingAndGlyphs" textLength="33" x="693.5" y="694.4189">AI dino</text><text fill="#000000" font-family="sans-serif" font-size="11" lengthAdjust="spacingAndGlyphs" textLength="90" x="693.5" y="708.2549">int type // 0: House</text>
        <line style="stroke: #A80036; stroke-width: 1.5;" x1="688.5" x2="841.5" y1="714.6719" y2="714.6719" /><text fill="#000000" font-family="sans-serif" font-size="11" lengthAdjust="spacingAndGlyphs" textLength="143" x="693.5" y="730.0908">Building(int type, int[] position)</text>
        <!--MD5=[0b747b16fd15de0ba6a1fc1f13282ea0]
class Dino-->
        <rect fill="#FEFECE" filter="url(#f1ptaocwia48p0)" height="61.8359" id="Dino" style="stroke: #A80036; stroke-width: 1.5;" width="163" x="277.5" y="661" />
        <ellipse cx="341.75" cy="677" fill="#ADD1B2" rx="11" ry="11" style="stroke: #A80036; stroke-width: 1.0;" />
        <path d="M344.5156,672.875 Q344.6719,672.6563 344.8594,672.5469 Q345.0469,672.4375 345.2656,672.4375 Q345.6406,672.4375 345.875,672.6953 Q346.1094,672.9531 346.1094,673.5625 L346.1094,675.0156 Q346.1094,675.625 345.875,675.8906 Q345.6406,676.1563 345.2656,676.1563 Q344.9219,676.1563 344.7188,675.9531 Q344.5156,675.7656 344.4063,675.25 Q344.3594,674.8906 344.1719,674.7031 Q343.8438,674.3281 343.2344,674.1094 Q342.625,673.8906 342,673.8906 Q341.2344,673.8906 340.6016,674.2188 Q339.9688,674.5469 339.4766,675.2969 Q338.9844,676.0469 338.9844,677.0781 L338.9844,678.1719 Q338.9844,679.4063 339.875,680.2266 Q340.7656,681.0469 342.3594,681.0469 Q343.2969,681.0469 343.9531,680.7969 Q344.3438,680.6406 344.7656,680.2031 Q345.0313,679.9375 345.1797,679.8594 Q345.3281,679.7813 345.5313,679.7813 Q345.8594,679.7813 346.1172,680.0391 Q346.375,680.2969 346.375,680.6406 Q346.375,680.9844 346.0313,681.3906 Q345.5313,681.9688 344.7344,682.2969 Q343.6563,682.75 342.3594,682.75 Q340.8438,682.75 339.6406,682.125 Q338.6563,681.625 337.9688,680.5547 Q337.2813,679.4844 337.2813,678.2031 L337.2813,677.0469 Q337.2813,675.7188 337.8984,674.5703 Q338.5156,673.4219 339.6094,672.8047 Q340.7031,672.1875 341.9375,672.1875 Q342.6719,672.1875 343.3203,672.3516 Q343.9688,672.5156 344.5156,672.875 Z " /><text fill="#000000" font-family="sans-serif" font-size="12" lengthAdjust="spacingAndGlyphs" textLength="26" x="362.25" y="681.9102">Dino</text>
        <line style="stroke: #A80036; stroke-width: 1.5;" x1="278.5" x2="439.5" y1="693" y2="693" />
        <line style="stroke: #A80036; stroke-width: 1.5;" x1="278.5" x2="439.5" y1="701" y2="701" /><text fill="#000000" font-family="sans-serif" font-size="11" lengthAdjust="spacingAndGlyphs" textLength="151" x="283.5" y="716.4189">Dino(World world, int[] position)</text>
        <!--MD5=[574ae5e535ab9d722dfd5b5dd8886d51]
class Paper-->
        <rect fill="#FEFECE" filter="url(#f1ptaocwia48p0)" height="89.5078" id="Paper" style="stroke: #A80036; stroke-width: 1.5;" width="170" x="67" y="647" />
        <ellipse cx="131.25" cy="663" fill="#ADD1B2" rx="11" ry="11" style="stroke: #A80036; stroke-width: 1.0;" />
        <path d="M134.0156,658.875 Q134.1719,658.6563 134.3594,658.5469 Q134.5469,658.4375 134.7656,658.4375 Q135.1406,658.4375 135.375,658.6953 Q135.6094,658.9531 135.6094,659.5625 L135.6094,661.0156 Q135.6094,661.625 135.375,661.8906 Q135.1406,662.1563 134.7656,662.1563 Q134.4219,662.1563 134.2188,661.9531 Q134.0156,661.7656 133.9063,661.25 Q133.8594,660.8906 133.6719,660.7031 Q133.3438,660.3281 132.7344,660.1094 Q132.125,659.8906 131.5,659.8906 Q130.7344,659.8906 130.1016,660.2188 Q129.4688,660.5469 128.9766,661.2969 Q128.4844,662.0469 128.4844,663.0781 L128.4844,664.1719 Q128.4844,665.4063 129.375,666.2266 Q130.2656,667.0469 131.8594,667.0469 Q132.7969,667.0469 133.4531,666.7969 Q133.8438,666.6406 134.2656,666.2031 Q134.5313,665.9375 134.6797,665.8594 Q134.8281,665.7813 135.0313,665.7813 Q135.3594,665.7813 135.6172,666.0391 Q135.875,666.2969 135.875,666.6406 Q135.875,666.9844 135.5313,667.3906 Q135.0313,667.9688 134.2344,668.2969 Q133.1563,668.75 131.8594,668.75 Q130.3438,668.75 129.1406,668.125 Q128.1563,667.625 127.4688,666.5547 Q126.7813,665.4844 126.7813,664.2031 L126.7813,663.0469 Q126.7813,661.7188 127.3984,660.5703 Q128.0156,659.4219 129.1094,658.8047 Q130.2031,658.1875 131.4375,658.1875 Q132.1719,658.1875 132.8203,658.3516 Q133.4688,658.5156 134.0156,658.875 Z " /><text fill="#000000" font-family="sans-serif" font-size="12" lengthAdjust="spacingAndGlyphs" textLength="33" x="151.75" y="667.9102">Paper</text>
        <line style="stroke: #A80036; stroke-width: 1.5;" x1="68" x2="236" y1="679" y2="679" /><text fill="#000000" font-family="sans-serif" font-size="11" lengthAdjust="spacingAndGlyphs" textLength="91" x="73" y="694.4189">SpeciesColor color</text><text fill="#000000" font-family="sans-serif" font-size="11" lengthAdjust="spacingAndGlyphs" textLength="66" x="73" y="708.2549">float[2] speed</text>
        <line style="stroke: #A80036; stroke-width: 1.5;" x1="68" x2="236" y1="714.6719" y2="714.6719" /><text fill="#000000" font-family="sans-serif" font-size="11" lengthAdjust="spacingAndGlyphs" textLength="158" x="73" y="730.0908">Paper(World world, int[] position)</text>
        <!--MD5=[d755c5174fbc4166a0b82a39f0ad1a0e]
class AI-->
        <rect fill="#FEFECE" filter="url(#f1ptaocwia48p0)" height="117.1797" id="AI" style="stroke: #A80036; stroke-width: 1.5;" width="152" x="86" y="834" />
        <ellipse cx="152.75" cy="850" fill="#ADD1B2" rx="11" ry="11" style="stroke: #A80036; stroke-width: 1.0;" />
        <path d="M155.5156,845.875 Q155.6719,845.6563 155.8594,845.5469 Q156.0469,845.4375 156.2656,845.4375 Q156.6406,845.4375 156.875,845.6953 Q157.1094,845.9531 157.1094,846.5625 L157.1094,848.0156 Q157.1094,848.625 156.875,848.8906 Q156.6406,849.1563 156.2656,849.1563 Q155.9219,849.1563 155.7188,848.9531 Q155.5156,848.7656 155.4063,848.25 Q155.3594,847.8906 155.1719,847.7031 Q154.8438,847.3281 154.2344,847.1094 Q153.625,846.8906 153,846.8906 Q152.2344,846.8906 151.6016,847.2188 Q150.9688,847.5469 150.4766,848.2969 Q149.9844,849.0469 149.9844,850.0781 L149.9844,851.1719 Q149.9844,852.4063 150.875,853.2266 Q151.7656,854.0469 153.3594,854.0469 Q154.2969,854.0469 154.9531,853.7969 Q155.3438,853.6406 155.7656,853.2031 Q156.0313,852.9375 156.1797,852.8594 Q156.3281,852.7813 156.5313,852.7813 Q156.8594,852.7813 157.1172,853.0391 Q157.375,853.2969 157.375,853.6406 Q157.375,853.9844 157.0313,854.3906 Q156.5313,854.9688 155.7344,855.2969 Q154.6563,855.75 153.3594,855.75 Q151.8438,855.75 150.6406,855.125 Q149.6563,854.625 148.9688,853.5547 Q148.2813,852.4844 148.2813,851.2031 L148.2813,850.0469 Q148.2813,848.7188 148.8984,847.5703 Q149.5156,846.4219 150.6094,845.8047 Q151.7031,845.1875 152.9375,845.1875 Q153.6719,845.1875 154.3203,845.3516 Q154.9688,845.5156 155.5156,845.875 Z " /><text fill="#000000" font-family="sans-serif" font-size="12" lengthAdjust="spacingAndGlyphs" textLength="10" x="173.25" y="854.9102">AI</text>
        <line style="stroke: #A80036; stroke-width: 1.5;" x1="87" x2="237" y1="866" y2="866" /><text fill="#000000" font-family="sans-serif" font-size="11" lengthAdjust="spacingAndGlyphs" textLength="76" x="92" y="881.4189">Building building</text><text fill="#000000" font-family="sans-serif" font-size="11" lengthAdjust="spacingAndGlyphs" textLength="91" x="92" y="895.2549">SpeciesColor color</text><text fill="#000000" font-family="sans-serif" font-size="11" lengthAdjust="spacingAndGlyphs" textLength="73" x="92" y="909.0908">Activity activity</text><text fill="#000000" font-family="sans-serif" font-size="11" lengthAdjust="spacingAndGlyphs" textLength="79" x="92" y="922.9268">boolean pacified</text>
        <line style="stroke: #A80036; stroke-width: 1.5;" x1="87" x2="237" y1="929.3438" y2="929.3438" /><text fill="#000000" font-family="sans-serif" font-size="11" lengthAdjust="spacingAndGlyphs" textLength="140" x="92" y="944.7627">AI(World world, int[] position)</text>
        <!--MD5=[2cb47ba637a0d19583e6199456f6ad0b]
class Player-->
        <rect fill="#FEFECE" filter="url(#f1ptaocwia48p0)" height="158.6875" id="Player" style="stroke: #A80036; stroke-width: 1.5;" width="172" x="273" y="813" />
        <ellipse cx="337.75" cy="829" fill="#ADD1B2" rx="11" ry="11" style="stroke: #A80036; stroke-width: 1.0;" />
        <path d="M340.5156,824.875 Q340.6719,824.6563 340.8594,824.5469 Q341.0469,824.4375 341.2656,824.4375 Q341.6406,824.4375 341.875,824.6953 Q342.1094,824.9531 342.1094,825.5625 L342.1094,827.0156 Q342.1094,827.625 341.875,827.8906 Q341.6406,828.1563 341.2656,828.1563 Q340.9219,828.1563 340.7188,827.9531 Q340.5156,827.7656 340.4063,827.25 Q340.3594,826.8906 340.1719,826.7031 Q339.8438,826.3281 339.2344,826.1094 Q338.625,825.8906 338,825.8906 Q337.2344,825.8906 336.6016,826.2188 Q335.9688,826.5469 335.4766,827.2969 Q334.9844,828.0469 334.9844,829.0781 L334.9844,830.1719 Q334.9844,831.4063 335.875,832.2266 Q336.7656,833.0469 338.3594,833.0469 Q339.2969,833.0469 339.9531,832.7969 Q340.3438,832.6406 340.7656,832.2031 Q341.0313,831.9375 341.1797,831.8594 Q341.3281,831.7813 341.5313,831.7813 Q341.8594,831.7813 342.1172,832.0391 Q342.375,832.2969 342.375,832.6406 Q342.375,832.9844 342.0313,833.3906 Q341.5313,833.9688 340.7344,834.2969 Q339.6563,834.75 338.3594,834.75 Q336.8438,834.75 335.6406,834.125 Q334.6563,833.625 333.9688,832.5547 Q333.2813,831.4844 333.2813,830.2031 L333.2813,829.0469 Q333.2813,827.7188 333.8984,826.5703 Q334.5156,825.4219 335.6094,824.8047 Q336.7031,824.1875 337.9375,824.1875 Q338.6719,824.1875 339.3203,824.3516 Q339.9688,824.5156 340.5156,824.875 Z " /><text fill="#000000" font-family="sans-serif" font-size="12" lengthAdjust="spacingAndGlyphs" textLength="34" x="358.25" y="833.9102">Player</text>
        <line style="stroke: #A80036; stroke-width: 1.5;" x1="274" x2="444" y1="845" y2="845" /><text fill="#000000" font-family="sans-serif" font-size="11" lengthAdjust="spacingAndGlyphs" textLength="82" x="279" y="860.4189">int[] paperCounts</text><text fill="#000000" font-family="sans-serif" font-size="11" lengthAdjust="spacingAndGlyphs" textLength="102" x="279" y="874.2549">int[] paperMaxCounts</text><text fill="#000000" font-family="sans-serif" font-size="11" lengthAdjust="spacingAndGlyphs" textLength="136" x="279" y="888.0908">SpeciesColor selectedPaper</text>
        <line style="stroke: #A80036; stroke-width: 1.5;" x1="274" x2="444" y1="894.5078" y2="894.5078" /><text fill="#000000" font-family="sans-serif" font-size="11" lengthAdjust="spacingAndGlyphs" textLength="73" x="279" y="909.9268">collectPapers()</text><text fill="#000000" font-family="sans-serif" font-size="11" lengthAdjust="spacingAndGlyphs" textLength="65" x="279" y="923.7627">selectPaper()</text><text fill="#000000" font-family="sans-serif" font-size="11" lengthAdjust="spacingAndGlyphs" textLength="65" x="279" y="937.5986">throwPaper()</text><text fill="#000000" font-family="sans-serif" font-size="11" lengthAdjust="spacingAndGlyphs" textLength="87" x="279" y="951.4346">punchWithPaper()</text><text fill="#000000" font-family="sans-serif" font-size="11" lengthAdjust="spacingAndGlyphs" textLength="160" x="279" y="965.2705">Player(World world, int[] position)</text>
        <!--MD5=[1b1562314ef50edf921bad0cd204186a]
class World-->
        <rect fill="#FEFECE" filter="url(#f1ptaocwia48p0)" height="117.1797" id="World" style="stroke: #A80036; stroke-width: 1.5;" width="201" x="383.5" y="8" />
        <ellipse cx="463.75" cy="24" fill="#ADD1B2" rx="11" ry="11" style="stroke: #A80036; stroke-width: 1.0;" />
        <path d="M466.5156,19.875 Q466.6719,19.6563 466.8594,19.5469 Q467.0469,19.4375 467.2656,19.4375 Q467.6406,19.4375 467.875,19.6953 Q468.1094,19.9531 468.1094,20.5625 L468.1094,22.0156 Q468.1094,22.625 467.875,22.8906 Q467.6406,23.1563 467.2656,23.1563 Q466.9219,23.1563 466.7188,22.9531 Q466.5156,22.7656 466.4063,22.25 Q466.3594,21.8906 466.1719,21.7031 Q465.8438,21.3281 465.2344,21.1094 Q464.625,20.8906 464,20.8906 Q463.2344,20.8906 462.6016,21.2188 Q461.9688,21.5469 461.4766,22.2969 Q460.9844,23.0469 460.9844,24.0781 L460.9844,25.1719 Q460.9844,26.4063 461.875,27.2266 Q462.7656,28.0469 464.3594,28.0469 Q465.2969,28.0469 465.9531,27.7969 Q466.3438,27.6406 466.7656,27.2031 Q467.0313,26.9375 467.1797,26.8594 Q467.3281,26.7813 467.5313,26.7813 Q467.8594,26.7813 468.1172,27.0391 Q468.375,27.2969 468.375,27.6406 Q468.375,27.9844 468.0313,28.3906 Q467.5313,28.9688 466.7344,29.2969 Q465.6563,29.75 464.3594,29.75 Q462.8438,29.75 461.6406,29.125 Q460.6563,28.625 459.9688,27.5547 Q459.2813,26.4844 459.2813,25.2031 L459.2813,24.0469 Q459.2813,22.7188 459.8984,21.5703 Q460.5156,20.4219 461.6094,19.8047 Q462.7031,19.1875 463.9375,19.1875 Q464.6719,19.1875 465.3203,19.3516 Q465.9688,19.5156 466.5156,19.875 Z " /><text fill="#000000" font-family="sans-serif" font-size="12" lengthAdjust="spacingAndGlyphs" textLength="32" x="484.25" y="28.9102">World</text>
        <line style="stroke: #A80036; stroke-width: 1.5;" x1="384.5" x2="583.5" y1="40" y2="40" /><text fill="#000000" font-family="sans-serif" font-size="11" lengthAdjust="spacingAndGlyphs" textLength="173" x="389.5" y="55.4189">List&lt;DynamicEntity&gt; dynamicEntities</text><text fill="#000000" font-family="sans-serif" font-size="11" lengthAdjust="spacingAndGlyphs" textLength="189" x="389.5" y="69.2549">List&lt;StationaryEntity&gt; stationaryEntities</text><text fill="#000000" font-family="sans-serif" font-size="11" lengthAdjust="spacingAndGlyphs" textLength="63" x="389.5" y="83.0908">Player player</text>
        <line style="stroke: #A80036; stroke-width: 1.5;" x1="384.5" x2="583.5" y1="89.5078" y2="89.5078" /><text fill="#000000" font-family="sans-serif" font-size="11" lengthAdjust="spacingAndGlyphs" textLength="41" x="389.5" y="104.9268">update()</text><text fill="#000000" font-family="sans-serif" font-size="11" lengthAdjust="spacingAndGlyphs" textLength="40" x="389.5" y="118.7627">render()</text>
        <!--MD5=[1f24f7b92150e3316908f7910ce81742]
class Grid-->
        <rect fill="#FEFECE" filter="url(#f1ptaocwia48p0)" height="75.6719" id="Grid" style="stroke: #A80036; stroke-width: 1.5;" width="66" x="186" y="185" />
        <ellipse cx="205.95" cy="201" fill="#ADD1B2" rx="11" ry="11" style="stroke: #A80036; stroke-width: 1.0;" />
        <path d="M208.7156,196.875 Q208.8719,196.6563 209.0594,196.5469 Q209.2469,196.4375 209.4656,196.4375 Q209.8406,196.4375 210.075,196.6953 Q210.3094,196.9531 210.3094,197.5625 L210.3094,199.0156 Q210.3094,199.625 210.075,199.8906 Q209.8406,200.1563 209.4656,200.1563 Q209.1219,200.1563 208.9188,199.9531 Q208.7156,199.7656 208.6063,199.25 Q208.5594,198.8906 208.3719,198.7031 Q208.0438,198.3281 207.4344,198.1094 Q206.825,197.8906 206.2,197.8906 Q205.4344,197.8906 204.8016,198.2188 Q204.1688,198.5469 203.6766,199.2969 Q203.1844,200.0469 203.1844,201.0781 L203.1844,202.1719 Q203.1844,203.4063 204.075,204.2266 Q204.9656,205.0469 206.5594,205.0469 Q207.4969,205.0469 208.1531,204.7969 Q208.5438,204.6406 208.9656,204.2031 Q209.2313,203.9375 209.3797,203.8594 Q209.5281,203.7813 209.7313,203.7813 Q210.0594,203.7813 210.3172,204.0391 Q210.575,204.2969 210.575,204.6406 Q210.575,204.9844 210.2313,205.3906 Q209.7313,205.9688 208.9344,206.2969 Q207.8563,206.75 206.5594,206.75 Q205.0438,206.75 203.8406,206.125 Q202.8563,205.625 202.1688,204.5547 Q201.4813,203.4844 201.4813,202.2031 L201.4813,201.0469 Q201.4813,199.7188 202.0984,198.5703 Q202.7156,197.4219 203.8094,196.8047 Q204.9031,196.1875 206.1375,196.1875 Q206.8719,196.1875 207.5203,196.3516 Q208.1688,196.5156 208.7156,196.875 Z " /><text fill="#000000" font-family="sans-serif" font-size="12" lengthAdjust="spacingAndGlyphs" textLength="23" x="221.05" y="205.9102">Grid</text>
        <line style="stroke: #A80036; stroke-width: 1.5;" x1="187" x2="251" y1="217" y2="217" /><text fill="#000000" font-family="sans-serif" font-size="11" lengthAdjust="spacingAndGlyphs" textLength="54" x="192" y="232.4189">Cell[][] cells</text>
        <line style="stroke: #A80036; stroke-width: 1.5;" x1="187" x2="251" y1="238.8359" y2="238.8359" /><text fill="#000000" font-family="sans-serif" font-size="11" lengthAdjust="spacingAndGlyphs" textLength="40" x="192" y="254.2549">render()</text>
        <!--MD5=[fea3dc74c7473bae0133d22265a91e2f]
class Cell-->
        <rect fill="#FEFECE" filter="url(#f1ptaocwia48p0)" height="75.6719" id="Cell" style="stroke: #A80036; stroke-width: 1.5;" width="102" x="93" y="334.5" />
        <ellipse cx="129.6" cy="350.5" fill="#ADD1B2" rx="11" ry="11" style="stroke: #A80036; stroke-width: 1.0;" />
        <path d="M132.3656,346.375 Q132.5219,346.1563 132.7094,346.0469 Q132.8969,345.9375 133.1156,345.9375 Q133.4906,345.9375 133.725,346.1953 Q133.9594,346.4531 133.9594,347.0625 L133.9594,348.5156 Q133.9594,349.125 133.725,349.3906 Q133.4906,349.6563 133.1156,349.6563 Q132.7719,349.6563 132.5688,349.4531 Q132.3656,349.2656 132.2563,348.75 Q132.2094,348.3906 132.0219,348.2031 Q131.6938,347.8281 131.0844,347.6094 Q130.475,347.3906 129.85,347.3906 Q129.0844,347.3906 128.4516,347.7188 Q127.8188,348.0469 127.3266,348.7969 Q126.8344,349.5469 126.8344,350.5781 L126.8344,351.6719 Q126.8344,352.9063 127.725,353.7266 Q128.6156,354.5469 130.2094,354.5469 Q131.1469,354.5469 131.8031,354.2969 Q132.1938,354.1406 132.6156,353.7031 Q132.8813,353.4375 133.0297,353.3594 Q133.1781,353.2813 133.3813,353.2813 Q133.7094,353.2813 133.9672,353.5391 Q134.225,353.7969 134.225,354.1406 Q134.225,354.4844 133.8813,354.8906 Q133.3813,355.4688 132.5844,355.7969 Q131.5063,356.25 130.2094,356.25 Q128.6938,356.25 127.4906,355.625 Q126.5063,355.125 125.8188,354.0547 Q125.1313,352.9844 125.1313,351.7031 L125.1313,350.5469 Q125.1313,349.2188 125.7484,348.0703 Q126.3656,346.9219 127.4594,346.3047 Q128.5531,345.6875 129.7875,345.6875 Q130.5219,345.6875 131.1703,345.8516 Q131.8188,346.0156 132.3656,346.375 Z " /><text fill="#000000" font-family="sans-serif" font-size="12" lengthAdjust="spacingAndGlyphs" textLength="22" x="148.4" y="355.4102">Cell</text>
        <line style="stroke: #A80036; stroke-width: 1.5;" x1="94" x2="194" y1="366.5" y2="366.5" /><text fill="#000000" font-family="sans-serif" font-size="11" lengthAdjust="spacingAndGlyphs" textLength="90" x="99" y="381.9189">List&lt;Piece&gt; pieces</text>
        <line style="stroke: #A80036; stroke-width: 1.5;" x1="94" x2="194" y1="388.3359" y2="388.3359" /><text fill="#000000" font-family="sans-serif" font-size="11" lengthAdjust="spacingAndGlyphs" textLength="40" x="99" y="403.7549">render()</text>
        <!--MD5=[e05bacf3ff4416a0580578814d41bbf6]
class Piece-->
        <rect fill="#FEFECE" filter="url(#f1ptaocwia48p0)" height="89.5078" id="Piece" style="stroke: #A80036; stroke-width: 1.5;" width="96" x="230" y="327.5" />
        <ellipse cx="259.85" cy="343.5" fill="#ADD1B2" rx="11" ry="11" style="stroke: #A80036; stroke-width: 1.0;" />
        <path d="M262.6156,339.375 Q262.7719,339.1563 262.9594,339.0469 Q263.1469,338.9375 263.3656,338.9375 Q263.7406,338.9375 263.975,339.1953 Q264.2094,339.4531 264.2094,340.0625 L264.2094,341.5156 Q264.2094,342.125 263.975,342.3906 Q263.7406,342.6563 263.3656,342.6563 Q263.0219,342.6563 262.8188,342.4531 Q262.6156,342.2656 262.5063,341.75 Q262.4594,341.3906 262.2719,341.2031 Q261.9438,340.8281 261.3344,340.6094 Q260.725,340.3906 260.1,340.3906 Q259.3344,340.3906 258.7016,340.7188 Q258.0688,341.0469 257.5766,341.7969 Q257.0844,342.5469 257.0844,343.5781 L257.0844,344.6719 Q257.0844,345.9063 257.975,346.7266 Q258.8656,347.5469 260.4594,347.5469 Q261.3969,347.5469 262.0531,347.2969 Q262.4438,347.1406 262.8656,346.7031 Q263.1313,346.4375 263.2797,346.3594 Q263.4281,346.2813 263.6313,346.2813 Q263.9594,346.2813 264.2172,346.5391 Q264.475,346.7969 264.475,347.1406 Q264.475,347.4844 264.1313,347.8906 Q263.6313,348.4688 262.8344,348.7969 Q261.7563,349.25 260.4594,349.25 Q258.9438,349.25 257.7406,348.625 Q256.7563,348.125 256.0688,347.0547 Q255.3813,345.9844 255.3813,344.7031 L255.3813,343.5469 Q255.3813,342.2188 255.9984,341.0703 Q256.6156,339.9219 257.7094,339.3047 Q258.8031,338.6875 260.0375,338.6875 Q260.7719,338.6875 261.4203,338.8516 Q262.0688,339.0156 262.6156,339.375 Z " /><text fill="#000000" font-family="sans-serif" font-size="12" lengthAdjust="spacingAndGlyphs" textLength="31" x="277.15" y="348.4102">Piece</text>
        <line style="stroke: #A80036; stroke-width: 1.5;" x1="231" x2="325" y1="359.5" y2="359.5" /><text fill="#000000" font-family="sans-serif" font-size="11" lengthAdjust="spacingAndGlyphs" textLength="55" x="236" y="374.9189">Entity entity</text><text fill="#000000" font-family="sans-serif" font-size="11" lengthAdjust="spacingAndGlyphs" textLength="84" x="236" y="388.7549">boolean walkable</text>
        <line style="stroke: #A80036; stroke-width: 1.5;" x1="231" x2="325" y1="395.1719" y2="395.1719" /><text fill="#000000" font-family="sans-serif" font-size="11" lengthAdjust="spacingAndGlyphs" textLength="40" x="236" y="410.5908">render()</text>
        <!--MD5=[be996cdb8e6bf2fc7cb89c555f2cd144]
class Entity-->
        <rect fill="#FEFECE" filter="url(#f1ptaocwia48p0)" height="103.3438" id="Entity" style="stroke: #A80036; stroke-width: 1.5;" width="103" x="432.5" y="321" />
        <ellipse cx="465.95" cy="337" fill="#A9DCDF" rx="11" ry="11" style="stroke: #A80036; stroke-width: 1.0;" />
        <path d="M468.1375,338.7656 L463.9969,338.7656 L463.575,339.7969 L463.9969,339.7969 Q464.6063,339.7969 464.8719,340.0313 Q465.1375,340.2656 465.1375,340.6563 Q465.1375,341.0313 464.8719,341.2656 Q464.6063,341.5 463.9969,341.5 L461.7,341.5 Q461.0906,341.5 460.8328,341.2656 Q460.575,341.0313 460.575,340.6406 Q460.575,340.2656 460.8484,340.0234 Q461.1219,339.7813 461.7469,339.7969 L464.4188,333.1406 L463.3094,333.1406 Q462.7,333.1406 462.4344,332.9063 Q462.1688,332.6719 462.1688,332.2813 Q462.1688,331.9063 462.4344,331.6719 Q462.7,331.4375 463.3094,331.4375 L466.9813,331.4375 L470.3719,339.7969 Q470.9656,339.7969 471.1531,339.9375 Q471.5438,340.2031 471.5438,340.6563 Q471.5438,341.0313 471.2859,341.2656 Q471.0281,341.5 470.4188,341.5 L468.1219,341.5 Q467.5125,341.5 467.2469,341.2656 Q466.9813,341.0313 466.9813,340.6406 Q466.9813,340.2656 467.2469,340.0313 Q467.5125,339.7969 468.1219,339.7969 L468.5438,339.7969 L468.1375,338.7656 Z M467.4188,337.0625 L466.0594,333.6875 L464.6844,337.0625 L467.4188,337.0625 Z " /><text fill="#000000" font-family="sans-serif" font-size="12" font-style="italic" lengthAdjust="spacingAndGlyphs" textLength="30" x="484.05" y="341.9102">Entity</text>
        <line style="stroke: #A80036; stroke-width: 1.5;" x1="433.5" x2="534.5" y1="353" y2="353" /><text fill="#000000" font-family="sans-serif" font-size="11" lengthAdjust="spacingAndGlyphs" textLength="87" x="438.5" y="368.4189">static Image sprite</text><text fill="#000000" font-family="sans-serif" font-size="11" lengthAdjust="spacingAndGlyphs" textLength="73" x="438.5" y="382.2549">Piece[][] pieces</text><text fill="#000000" font-family="sans-serif" font-size="11" lengthAdjust="spacingAndGlyphs" textLength="63" x="438.5" y="396.0908">int[2] position</text>
        <line style="stroke: #A80036; stroke-width: 1.5;" x1="433.5" x2="534.5" y1="402.5078" y2="402.5078" /><text fill="#000000" font-family="sans-serif" font-size="11" lengthAdjust="spacingAndGlyphs" textLength="91" x="438.5" y="417.9268">Entity(int[] position)</text>
        <!--MD5=[c881b25adf3665c6568c9693d41a70f3]
class Activity-->
        <rect fill="#FEFECE" filter="url(#f1ptaocwia48p0)" height="89.5078" id="Activity" style="stroke: #A80036; stroke-width: 1.5;" width="67" x="67.5" y="1052" />
        <ellipse cx="82.5" cy="1068" fill="#EB937F" rx="11" ry="11" style="stroke: #A80036; stroke-width: 1.0;" />
        <path d="M81.3594,1068.7969 L81.3594,1071.2969 L85.6875,1071.2969 L85.6875,1070.375 Q85.6875,1069.7656 85.9297,1069.5 Q86.1719,1069.2344 86.5469,1069.2344 Q86.9219,1069.2344 87.1563,1069.5 Q87.3906,1069.7656 87.3906,1070.375 L87.3906,1073 L79.3906,1073 Q78.7656,1073 78.5078,1072.7656 Q78.25,1072.5313 78.25,1072.1406 Q78.25,1071.7656 78.5156,1071.5313 Q78.7813,1071.2969 79.3906,1071.2969 L79.6563,1071.2969 L79.6563,1064.6406 L79.3906,1064.6406 Q78.7656,1064.6406 78.5078,1064.4063 Q78.25,1064.1719 78.25,1063.7813 Q78.25,1063.4063 78.5078,1063.1719 Q78.7656,1062.9375 79.3906,1062.9375 L87.0156,1062.9375 L87.0156,1065.5313 Q87.0156,1066.1406 86.7891,1066.3984 Q86.5625,1066.6563 86.1719,1066.6563 Q85.7969,1066.6563 85.5625,1066.3984 Q85.3281,1066.1406 85.3281,1065.5313 L85.3281,1064.6406 L81.3594,1064.6406 L81.3594,1067.0938 L82.8438,1067.0938 Q82.8438,1066.4375 82.9688,1066.25 Q83.2344,1065.8438 83.7031,1065.8438 Q84.0781,1065.8438 84.3125,1066.1016 Q84.5469,1066.3594 84.5469,1066.9688 L84.5469,1068.9375 Q84.5469,1069.4844 84.4219,1069.6719 Q84.1563,1070.0625 83.7031,1070.0625 Q83.2344,1070.0625 82.9688,1069.6563 Q82.8438,1069.4688 82.8438,1068.7969 L81.3594,1068.7969 Z " /><text fill="#000000" font-family="sans-serif" font-size="12" lengthAdjust="spacingAndGlyphs" textLength="35" x="96.5" y="1072.9102">Activity</text>
        <line style="stroke: #A80036; stroke-width: 1.5;" x1="68.5" x2="133.5" y1="1084" y2="1084" /><text fill="#000000" font-family="sans-serif" font-size="11" lengthAdjust="spacingAndGlyphs" textLength="52" x="73.5" y="1099.4189">wandering</text><text fill="#000000" font-family="sans-serif" font-size="11" lengthAdjust="spacingAndGlyphs" textLength="33" x="73.5" y="1113.2549">resting</text><text fill="#000000" font-family="sans-serif" font-size="11" lengthAdjust="spacingAndGlyphs" textLength="34" x="73.5" y="1127.0908">hangry</text>
        <line style="stroke: #A80036; stroke-width: 1.5;" x1="68.5" x2="133.5" y1="1133.5078" y2="1133.5078" />
        <!--MD5=[bdc64ea1417373d8993b223e9e2d2b5f]
class SpeciesColor-->
        <rect fill="#FEFECE" filter="url(#f1ptaocwia48p0)" height="75.6719" id="SpeciesColor" style="stroke: #A80036; stroke-width: 1.5;" width="107" x="169.5" y="1059" />
        <ellipse cx="184.5" cy="1075" fill="#EB937F" rx="11" ry="11" style="stroke: #A80036; stroke-width: 1.0;" />
        <path d="M183.3594,1075.7969 L183.3594,1078.2969 L187.6875,1078.2969 L187.6875,1077.375 Q187.6875,1076.7656 187.9297,1076.5 Q188.1719,1076.2344 188.5469,1076.2344 Q188.9219,1076.2344 189.1563,1076.5 Q189.3906,1076.7656 189.3906,1077.375 L189.3906,1080 L181.3906,1080 Q180.7656,1080 180.5078,1079.7656 Q180.25,1079.5313 180.25,1079.1406 Q180.25,1078.7656 180.5156,1078.5313 Q180.7813,1078.2969 181.3906,1078.2969 L181.6563,1078.2969 L181.6563,1071.6406 L181.3906,1071.6406 Q180.7656,1071.6406 180.5078,1071.4063 Q180.25,1071.1719 180.25,1070.7813 Q180.25,1070.4063 180.5078,1070.1719 Q180.7656,1069.9375 181.3906,1069.9375 L189.0156,1069.9375 L189.0156,1072.5313 Q189.0156,1073.1406 188.7891,1073.3984 Q188.5625,1073.6563 188.1719,1073.6563 Q187.7969,1073.6563 187.5625,1073.3984 Q187.3281,1073.1406 187.3281,1072.5313 L187.3281,1071.6406 L183.3594,1071.6406 L183.3594,1074.0938 L184.8438,1074.0938 Q184.8438,1073.4375 184.9688,1073.25 Q185.2344,1072.8438 185.7031,1072.8438 Q186.0781,1072.8438 186.3125,1073.1016 Q186.5469,1073.3594 186.5469,1073.9688 L186.5469,1075.9375 Q186.5469,1076.4844 186.4219,1076.6719 Q186.1563,1077.0625 185.7031,1077.0625 Q185.2344,1077.0625 184.9688,1076.6563 Q184.8438,1076.4688 184.8438,1075.7969 L183.3594,1075.7969 Z " /><text fill="#000000" font-family="sans-serif" font-size="12" lengthAdjust="spacingAndGlyphs" textLength="75" x="198.5" y="1079.9102">SpeciesColor</text>
        <line style="stroke: #A80036; stroke-width: 1.5;" x1="170.5" x2="275.5" y1="1091" y2="1091" /><text fill="#000000" font-family="sans-serif" font-size="11" lengthAdjust="spacingAndGlyphs" textLength="16" x="175.5" y="1106.4189">red</text><text fill="#000000" font-family="sans-serif" font-size="11" lengthAdjust="spacingAndGlyphs" textLength="20" x="175.5" y="1120.2549">blue</text>
        <line style="stroke: #A80036; stroke-width: 1.5;" x1="170.5" x2="275.5" y1="1126.6719" y2="1126.6719" />
        <!--MD5=[68cb7de483df9e038dce65b78a534b80]
reverse link Entity to StationaryEntity-->
        <path d="M528.148,441.194 C542.418,463.074 557.531,486.248 569.127,504.028 " fill="none" id="Entity&lt;-StationaryEntity" style="stroke: #A80036; stroke-width: 1.0;" />
        <polygon fill="none" points="522.285,445.018,517.223,424.441,534.011,437.37,522.285,445.018" style="stroke: #A80036; stroke-width: 1.0;" />
        <!--MD5=[4d35ad448a0fa2c085b27e87d55c06ca]
reverse link StationaryEntity to Nest-->
        <path d="M589,586.703 C589,608.549 589,633.696 589,653.824 " fill="none" id="StationaryEntity&lt;-Nest" style="stroke: #A80036; stroke-width: 1.0;" />
        <polygon fill="none" points="582,586.656,589,566.656,596,586.656,582,586.656" style="stroke: #A80036; stroke-width: 1.0;" />
        <!--MD5=[d505af35f4f5468766796e2572c8b05c]
reverse link StationaryEntity to Building-->
        <path d="M642.573,579.723 C651.8,587.383 661.237,595.356 670,603 C685.926,616.892 702.964,632.446 718.152,646.57 " fill="none" id="StationaryEntity&lt;-Building" style="stroke: #A80036; stroke-width: 1.0;" />
        <polygon fill="none" points="637.895,584.94,626.894,566.829,646.788,574.127,637.895,584.94" style="stroke: #A80036; stroke-width: 1.0;" />
        <!--MD5=[544e9875717ef78f0a495c51cccde454]
reverse link Entity to DynamicEntity-->
        <path d="M435.826,440.944 C425.556,455.322 414.878,470.271 405.15,483.89 " fill="none" id="Entity&lt;-DynamicEntity" style="stroke: #A80036; stroke-width: 1.0;" />
        <polygon fill="none" points="430.292,436.647,447.613,424.441,441.685,444.785,430.292,436.647" style="stroke: #A80036; stroke-width: 1.0;" />
        <!--MD5=[992b618b077310a5d94725a48563bc7b]
reverse link DynamicEntity to Dino-->
        <path d="M364.432,607.08 C363.214,625.892 361.962,645.235 360.967,660.603 " fill="none" id="DynamicEntity&lt;-Dino" style="stroke: #A80036; stroke-width: 1.0;" />
        <polygon fill="none" points="357.448,606.595,365.726,587.089,371.419,607.499,357.448,606.595" style="stroke: #A80036; stroke-width: 1.0;" />
        <!--MD5=[6cd0be0e1da4a575eaa73052b6316d8e]
reverse link DynamicEntity to Paper-->
        <path d="M279.115,589.987 C272.579,594.287 266.146,598.652 260,603 C240.947,616.48 220.912,632.302 203.343,646.785 " fill="none" id="DynamicEntity&lt;-Paper" style="stroke: #A80036; stroke-width: 1.0;" />
        <polygon fill="none" points="275.383,584.064,295.994,579.146,282.948,595.844,275.383,584.064" style="stroke: #A80036; stroke-width: 1.0;" />
        <!--MD5=[baa2962affdb08c86284bf861b27f29c]
reverse link Dino to AI-->
        <path d="M295.952,735.164 C282.186,745.537 268.122,757.104 256,769 C236.102,788.527 216.857,812.406 201.019,833.878 " fill="none" id="Dino&lt;-AI" style="stroke: #A80036; stroke-width: 1.0;" />
        <polygon fill="none" points="292.156,729.269,312.446,723.16,300.394,740.588,292.156,729.269" style="stroke: #A80036; stroke-width: 1.0;" />
        <!--MD5=[4aeec6e5b5c55acc33d746391462528e]
reverse link Dino to Player-->
        <path d="M359,743.48 C359,764.572 359,789.573 359,812.967 " fill="none" id="Dino&lt;-Player" style="stroke: #A80036; stroke-width: 1.0;" />
        <polygon fill="none" points="352,743.148,359,723.148,366,743.148,352,743.148" style="stroke: #A80036; stroke-width: 1.0;" />
        <!--MD5=[2447db2d5398c13e17973605d13e2ad0]
link World to Grid-->
        <path d="M385.324,125.03 C338.381,152.398 285.369,183.306 252.073,202.718 " fill="none" id="World-Grid" style="stroke: #A80036; stroke-width: 1.0;" /><text fill="#000000" font-family="sans-serif" font-size="13" lengthAdjust="spacingAndGlyphs" textLength="7" x="368.5854" y="144.8744">0</text><text fill="#000000" font-family="sans-serif" font-size="13" lengthAdjust="spacingAndGlyphs" textLength="7" x="260.0733" y="194.1008">1</text>
        <!--MD5=[4002627d21c3ad16fb74c62a082ce548]
link World to DynamicEntity-->
        <path d="M467.358,125.16 C452.799,176.397 431.465,253.419 415,321 C401.492,376.443 387.968,440.486 379.116,483.855 " fill="none" id="World-DynamicEntity" style="stroke: #A80036; stroke-width: 1.0;" /><text fill="#000000" font-family="sans-serif" font-size="13" lengthAdjust="spacingAndGlyphs" textLength="7" x="457.9032" y="146.7898">1</text><text fill="#000000" font-family="sans-serif" font-size="13" lengthAdjust="spacingAndGlyphs" textLength="5" x="375.187" y="472.9631">*</text>
        <!--MD5=[c9f8a5aea65a544f88edfe22fb04589a]
link World to StationaryEntity-->
        <path d="M501.466,125.24 C516.509,176.363 538.089,253.176 553,321 C567.245,385.798 578.96,462.732 584.862,504.266 " fill="none" id="World-StationaryEntity" style="stroke: #A80036; stroke-width: 1.0;" /><text fill="#000000" font-family="sans-serif" font-size="13" lengthAdjust="spacingAndGlyphs" textLength="7" x="496.1681" y="146.8795">1</text><text fill="#000000" font-family="sans-serif" font-size="13" lengthAdjust="spacingAndGlyphs" textLength="5" x="578.4929" y="493.7223">*</text>
        <!--MD5=[aca5a173d2d190bf3d99ef9c47e1596c]
link World to Player-->
        <path d="M584.523,93.73 C706.486,132.34 896,217.162 896,371.5 C896,371.5 896,371.5 896,536.5 C896,637.624 927.143,686.284 859,761 C803.798,821.527 572.901,862.109 445.076,880.4 " fill="none" id="World-Player" style="stroke: #A80036; stroke-width: 1.0;" /><text fill="#000000" font-family="sans-serif" font-size="13" lengthAdjust="spacingAndGlyphs" textLength="7" x="592.4873" y="92.704">0</text><text fill="#000000" font-family="sans-serif" font-size="13" lengthAdjust="spacingAndGlyphs" textLength="7" x="453.0539" y="876.1345">1</text>
        <!--MD5=[d31bdcbbaabb43506266532ce7787e4b]
link Grid to Cell-->
        <path d="M200.074,261.22 C188.705,283.58 174.288,311.934 162.92,334.291 " fill="none" id="Grid-Cell" style="stroke: #A80036; stroke-width: 1.0;" /><text fill="#000000" font-family="sans-serif" font-size="13" lengthAdjust="spacingAndGlyphs" textLength="7" x="189.4999" y="282.1356">0</text><text fill="#000000" font-family="sans-serif" font-size="13" lengthAdjust="spacingAndGlyphs" textLength="5" x="160.8448" y="323.6157">*</text>
        <!--MD5=[625c4cddad4da778bd8c968c984df8b1]
link Cell to Piece-->
        <path d="M195.035,372.5 C206.594,372.5 218.153,372.5 229.712,372.5 " fill="none" id="Cell-Piece" style="stroke: #A80036; stroke-width: 1.0;" /><text fill="#000000" font-family="sans-serif" font-size="13" lengthAdjust="spacingAndGlyphs" textLength="7" x="203.0448" y="368.87">0</text><text fill="#000000" font-family="sans-serif" font-size="13" lengthAdjust="spacingAndGlyphs" textLength="5" x="216.9351" y="368.8347">*</text>
        <!--MD5=[8130f8c65851955adfcb1602526b4bb3]
link Piece to Entity-->
        <path d="M326.281,372.5 C361.604,372.5 396.926,372.5 432.249,372.5 " fill="none" id="Piece-Entity" style="stroke: #A80036; stroke-width: 1.0;" /><text fill="#000000" font-family="sans-serif" font-size="13" lengthAdjust="spacingAndGlyphs" textLength="8" x="333.9598" y="368.8821">+</text><text fill="#000000" font-family="sans-serif" font-size="13" lengthAdjust="spacingAndGlyphs" textLength="7" x="417.4793" y="368.8707">1</text>
        <!--MD5=[311976ed05cb909bcfa8bded70f9b41d]
link Building to AI-->
        <path d="M714.875,737.282 C701.206,746.905 685.786,755.764 670,761 C648.166,768.243 276.533,758.627 256,769 C228.364,782.962 206.531,809.261 190.89,833.923 " fill="none" id="Building-AI" style="stroke: #A80036; stroke-width: 1.0;" /><text fill="#000000" font-family="sans-serif" font-size="13" lengthAdjust="spacingAndGlyphs" textLength="7" x="700.6691" y="757.9936">1</text><text fill="#000000" font-family="sans-serif" font-size="13" lengthAdjust="spacingAndGlyphs" textLength="7" x="186.9844" y="823.3145">1</text>
        <!--MD5=[678289fa504f8c99d40a55ed50cc38cc]
link AI to Activity-->
        <path d="M144.601,951.257 C134.988,983.171 123.23,1022.203 114.348,1051.6891 " fill="none" id="AI-Activity" style="stroke: #A80036; stroke-width: 1.0;" />
        <!--MD5=[551cf52d423e0769c9b6976e3e85987b]
link AI to SpeciesColor-->
        <path d="M179.399,951.257 C189.822,985.86 202.766,1028.831 211.833,1058.9283 " fill="none" id="AI-SpeciesColor" style="stroke: #A80036; stroke-width: 1.0;" />
        <!--MD5=[e75a45a3ef897ffd12f1bd18f7d46960]
link Player to SpeciesColor-->
        <path d="M306.224,972.082 C286.139,1001.988 264.186,1034.675 247.872,1058.9656 " fill="none" id="Player-SpeciesColor" style="stroke: #A80036; stroke-width: 1.0;" />
        <!--MD5=[99cc7005e9ebf5af8f8ecf140a4a427c]
link Paper to SpeciesColor-->
        <path d="M92.0118,737.049 C83.0595,746.521 75.1262,757.26 70,769 C21.0931,881.011 -12.1211,953.477 70,1044 C82.3016,1057.5602 134.656,1046.1361 152,1052 C157.77,1053.9507 163.557,1056.4456 169.202,1059.2537 " fill="none" id="Paper-SpeciesColor" style="stroke: #A80036; stroke-width: 1.0;" />
        <!--MD5=[c509e74cacefcafe7d3b43dfbe0e6566]
@startuml

class World {
	List<DynamicEntity> dynamicEntities
	List<StationaryEntity> stationaryEntities
	Player player
	update()
	render()
}

class Grid {
	Cell[][] cells
	render()
}

class Cell {
	List<Piece> pieces
	render()
}

class Piece {
	Entity entity
	boolean walkable
	render()
}

abstract class Entity {
	static Image sprite
	Piece[][] pieces
	int[2] position
	Entity(int[] position)
}

package entities{

	abstract class StationaryEntity extends Entity{
		StationaryEntity(int[] position)
	}

	package stationary {
		class Nest extends StationaryEntity {
			Nest(int[] position)
			float[] paperProbabilities
		}

		class Building extends StationaryEntity {
			AI dino
			int type // 0: House
			Building(int type, int[] position)
		}
	}


	abstract class DynamicEntity extends Entity {
		World world
		DynamicEntity(World world)
		update()
		move()
	}

	package dynamic{
		class Dino extends DynamicEntity{
			Dino(World world, int[] position)
		}

		class Paper extends DynamicEntity {
			SpeciesColor color
			float[2] speed
			Paper(World world, int[] position)
		}

		package dinos{
			class AI extends Dino {
				Building building
				SpeciesColor color
				Activity activity
				boolean pacified
				AI(World world, int[] position)
			}

			class Player extends Dino {
				int[] paperCounts
				int[] paperMaxCounts
				SpeciesColor selectedPaper
				collectPapers()
				selectPaper()
				throwPaper()
				punchWithPaper()
				Player(World world, int[] position)
			}
		}
	}
}

enum Activity {
	wandering
	resting
	hangry
}

enum SpeciesColor {
	red
	blue
}

World "0"- -down"1" Grid
World "1"- -down"*" DynamicEntity
World "1"- -down"*" StationaryEntity
World "0"- -"1" Player
Grid "0"- -down"*" Cell
Cell "0"- -right"*" Piece
Piece "+"- -right"1" Entity
Building "1"- -"1" AI
AI - - Activity
AI - - SpeciesColor
Player - - SpeciesColor
Paper - - SpeciesColor

@enduml

PlantUML version 1.2020.10(Sun May 17 11:35:57 CEST 2020)
(GPL source distribution)
Java Runtime: Java(TM) SE Runtime Environment
JVM: Java HotSpot(TM) 64-Bit Server VM
Java Version: 1.8.0_221-b11
Operating System: Windows 10
Default Encoding: Cp1252
Language: fr
Country: FR
-->
    </g>
</svg>