<?xml version="1.0" encoding="UTF-8" standalone="no"?><svg xmlns="http://www.w3.org/2000/svg" xmlns:xlink="http://www.w3.org/1999/xlink" contentScriptType="application/ecmascript" contentStyleType="text/css" height="1081px" preserveAspectRatio="none" style="width:709px;height:1081px;" version="1.1" viewBox="0 0 709 1081" width="709px" zoomAndPan="magnify">
    <defs>
        <filter height="300%" id="f1ksnaz6c3dk0b" width="300%" x="-1" y="-1">
            <feGaussianBlur result="blurOut" stdDeviation="2.0" />
            <feColorMatrix in="blurOut" result="blurOut2" type="matrix" values="0 0 0 0 0 0 0 0 0 0 0 0 0 0 0 0 0 0 .4 0" />
            <feOffset dx="4.0" dy="4.0" in="blurOut2" result="blurOut3" />
            <feBlend in="SourceGraphic" in2="blurOut3" mode="normal" />
        </filter>
    </defs>
    <g>
        <!--MD5=[2a013135f1f90689be40a3c084fed702]
cluster entities-->
        <polygon fill="#FFFFFF" filter="url(#f1ksnaz6c3dk0b)" points="162,421,221,421,228,444.6094,687,444.6094,687,965,162,965,162,421" style="stroke: #000000; stroke-width: 1.5;" />
        <line style="stroke: #000000; stroke-width: 1.5;" x1="162" x2="228" y1="444.6094" y2="444.6094" /><text fill="#000000" font-family="sans-serif" font-size="14" font-weight="bold" lengthAdjust="spacingAndGlyphs" textLength="53" x="166" y="437.5332">entities</text>
        <!--MD5=[f2e08e0b22987c606f6efdecb21fca7b]
cluster dynamic-->
        <polygon fill="#FFFFFF" filter="url(#f1ksnaz6c3dk0b)" points="296,584,359,584,366,607.6094,663,607.6094,663,941,296,941,296,584" style="stroke: #000000; stroke-width: 1.5;" />
        <line style="stroke: #000000; stroke-width: 1.5;" x1="296" x2="366" y1="607.6094" y2="607.6094" /><text fill="#000000" font-family="sans-serif" font-size="14" font-weight="bold" lengthAdjust="spacingAndGlyphs" textLength="57" x="300" y="600.5332">dynamic</text>
        <!--MD5=[e8fde4a48cb0b04cf8ca51574c841ea1]
cluster dinos-->
        <polygon fill="#FFFFFF" filter="url(#f1ksnaz6c3dk0b)" points="320,720,365,720,372,743.6094,639,743.6094,639,917,320,917,320,720" style="stroke: #000000; stroke-width: 1.5;" />
        <line style="stroke: #000000; stroke-width: 1.5;" x1="320" x2="372" y1="743.6094" y2="743.6094" /><text fill="#000000" font-family="sans-serif" font-size="14" font-weight="bold" lengthAdjust="spacingAndGlyphs" textLength="39" x="324" y="736.5332">dinos</text>
        <!--MD5=[222513e4f8ac55ee2a6ad0b0f8e14e8f]
class Nest-->
        <rect fill="#FEFECE" filter="url(#f1ksnaz6c3dk0b)" height="61.8359" id="Nest" style="stroke: #A80036; stroke-width: 1.5;" width="127" x="225.5" y="477.5" />
        <ellipse cx="271.75" cy="493.5" fill="#ADD1B2" rx="11" ry="11" style="stroke: #A80036; stroke-width: 1.0;" />
        <path d="M274.5156,489.375 Q274.6719,489.1563 274.8594,489.0469 Q275.0469,488.9375 275.2656,488.9375 Q275.6406,488.9375 275.875,489.1953 Q276.1094,489.4531 276.1094,490.0625 L276.1094,491.5156 Q276.1094,492.125 275.875,492.3906 Q275.6406,492.6563 275.2656,492.6563 Q274.9219,492.6563 274.7188,492.4531 Q274.5156,492.2656 274.4063,491.75 Q274.3594,491.3906 274.1719,491.2031 Q273.8438,490.8281 273.2344,490.6094 Q272.625,490.3906 272,490.3906 Q271.2344,490.3906 270.6016,490.7188 Q269.9688,491.0469 269.4766,491.7969 Q268.9844,492.5469 268.9844,493.5781 L268.9844,494.6719 Q268.9844,495.9063 269.875,496.7266 Q270.7656,497.5469 272.3594,497.5469 Q273.2969,497.5469 273.9531,497.2969 Q274.3438,497.1406 274.7656,496.7031 Q275.0313,496.4375 275.1797,496.3594 Q275.3281,496.2813 275.5313,496.2813 Q275.8594,496.2813 276.1172,496.5391 Q276.375,496.7969 276.375,497.1406 Q276.375,497.4844 276.0313,497.8906 Q275.5313,498.4688 274.7344,498.7969 Q273.6563,499.25 272.3594,499.25 Q270.8438,499.25 269.6406,498.625 Q268.6563,498.125 267.9688,497.0547 Q267.2813,495.9844 267.2813,494.7031 L267.2813,493.5469 Q267.2813,492.2188 267.8984,491.0703 Q268.5156,489.9219 269.6094,489.3047 Q270.7031,488.6875 271.9375,488.6875 Q272.6719,488.6875 273.3203,488.8516 Q273.9688,489.0156 274.5156,489.375 Z " /><text fill="#000000" font-family="sans-serif" font-size="12" lengthAdjust="spacingAndGlyphs" textLength="26" x="292.25" y="498.4102">Nest</text>
        <line style="stroke: #A80036; stroke-width: 1.5;" x1="226.5" x2="351.5" y1="509.5" y2="509.5" /><text fill="#000000" font-family="sans-serif" font-size="11" lengthAdjust="spacingAndGlyphs" textLength="115" x="231.5" y="524.9189">float[] paperProbabilities</text>
        <line style="stroke: #A80036; stroke-width: 1.5;" x1="226.5" x2="351.5" y1="531.3359" y2="531.3359" />
        <!--MD5=[8560f289a30852a9f75d64e53f926853]
class Building-->
        <rect fill="#FEFECE" filter="url(#f1ksnaz6c3dk0b)" height="75.6719" id="Building" style="stroke: #A80036; stroke-width: 1.5;" width="102" x="178" y="620" />
        <ellipse cx="204.25" cy="636" fill="#ADD1B2" rx="11" ry="11" style="stroke: #A80036; stroke-width: 1.0;" />
        <path d="M207.0156,631.875 Q207.1719,631.6563 207.3594,631.5469 Q207.5469,631.4375 207.7656,631.4375 Q208.1406,631.4375 208.375,631.6953 Q208.6094,631.9531 208.6094,632.5625 L208.6094,634.0156 Q208.6094,634.625 208.375,634.8906 Q208.1406,635.1563 207.7656,635.1563 Q207.4219,635.1563 207.2188,634.9531 Q207.0156,634.7656 206.9063,634.25 Q206.8594,633.8906 206.6719,633.7031 Q206.3438,633.3281 205.7344,633.1094 Q205.125,632.8906 204.5,632.8906 Q203.7344,632.8906 203.1016,633.2188 Q202.4688,633.5469 201.9766,634.2969 Q201.4844,635.0469 201.4844,636.0781 L201.4844,637.1719 Q201.4844,638.4063 202.375,639.2266 Q203.2656,640.0469 204.8594,640.0469 Q205.7969,640.0469 206.4531,639.7969 Q206.8438,639.6406 207.2656,639.2031 Q207.5313,638.9375 207.6797,638.8594 Q207.8281,638.7813 208.0313,638.7813 Q208.3594,638.7813 208.6172,639.0391 Q208.875,639.2969 208.875,639.6406 Q208.875,639.9844 208.5313,640.3906 Q208.0313,640.9688 207.2344,641.2969 Q206.1563,641.75 204.8594,641.75 Q203.3438,641.75 202.1406,641.125 Q201.1563,640.625 200.4688,639.5547 Q199.7813,638.4844 199.7813,637.2031 L199.7813,636.0469 Q199.7813,634.7188 200.3984,633.5703 Q201.0156,632.4219 202.1094,631.8047 Q203.2031,631.1875 204.4375,631.1875 Q205.1719,631.1875 205.8203,631.3516 Q206.4688,631.5156 207.0156,631.875 Z " /><text fill="#000000" font-family="sans-serif" font-size="12" lengthAdjust="spacingAndGlyphs" textLength="45" x="220.75" y="640.9102">Building</text>
        <line style="stroke: #A80036; stroke-width: 1.5;" x1="179" x2="279" y1="652" y2="652" /><text fill="#000000" font-family="sans-serif" font-size="11" lengthAdjust="spacingAndGlyphs" textLength="33" x="184" y="667.4189">AI dino</text><text fill="#000000" font-family="sans-serif" font-size="11" lengthAdjust="spacingAndGlyphs" textLength="90" x="184" y="681.2549">int type // 0: House</text>
        <line style="stroke: #A80036; stroke-width: 1.5;" x1="179" x2="279" y1="687.6719" y2="687.6719" />
        <!--MD5=[fb4c30fb1fb270e3f19f5aaa9eb17fad]
class DynamicEntity-->
        <rect fill="#FEFECE" filter="url(#f1ksnaz6c3dk0b)" height="103.3438" id="DynamicEntity" style="stroke: #A80036; stroke-width: 1.5;" width="146" x="388" y="457" />
        <ellipse cx="418.75" cy="473" fill="#A9DCDF" rx="11" ry="11" style="stroke: #A80036; stroke-width: 1.0;" />
        <path d="M420.9375,474.7656 L416.7969,474.7656 L416.375,475.7969 L416.7969,475.7969 Q417.4063,475.7969 417.6719,476.0313 Q417.9375,476.2656 417.9375,476.6563 Q417.9375,477.0313 417.6719,477.2656 Q417.4063,477.5 416.7969,477.5 L414.5,477.5 Q413.8906,477.5 413.6328,477.2656 Q413.375,477.0313 413.375,476.6406 Q413.375,476.2656 413.6484,476.0234 Q413.9219,475.7813 414.5469,475.7969 L417.2188,469.1406 L416.1094,469.1406 Q415.5,469.1406 415.2344,468.9063 Q414.9688,468.6719 414.9688,468.2813 Q414.9688,467.9063 415.2344,467.6719 Q415.5,467.4375 416.1094,467.4375 L419.7813,467.4375 L423.1719,475.7969 Q423.7656,475.7969 423.9531,475.9375 Q424.3438,476.2031 424.3438,476.6563 Q424.3438,477.0313 424.0859,477.2656 Q423.8281,477.5 423.2188,477.5 L420.9219,477.5 Q420.3125,477.5 420.0469,477.2656 Q419.7813,477.0313 419.7813,476.6406 Q419.7813,476.2656 420.0469,476.0313 Q420.3125,475.7969 420.9219,475.7969 L421.3438,475.7969 L420.9375,474.7656 Z M420.2188,473.0625 L418.8594,469.6875 L417.4844,473.0625 L420.2188,473.0625 Z " /><text fill="#000000" font-family="sans-serif" font-size="12" font-style="italic" lengthAdjust="spacingAndGlyphs" textLength="79" x="436.25" y="477.9102">DynamicEntity</text>
        <line style="stroke: #A80036; stroke-width: 1.5;" x1="389" x2="533" y1="489" y2="489" /><text fill="#000000" font-family="sans-serif" font-size="11" lengthAdjust="spacingAndGlyphs" textLength="59" x="394" y="504.4189">World world</text>
        <line style="stroke: #A80036; stroke-width: 1.5;" x1="389" x2="533" y1="510.8359" y2="510.8359" /><text fill="#000000" font-family="sans-serif" font-size="11" lengthAdjust="spacingAndGlyphs" textLength="134" x="394" y="526.2549">DynamicEntity(World world)</text><text fill="#000000" font-family="sans-serif" font-size="11" lengthAdjust="spacingAndGlyphs" textLength="41" x="394" y="540.0908">update()</text><text fill="#000000" font-family="sans-serif" font-size="11" lengthAdjust="spacingAndGlyphs" textLength="34" x="394" y="553.9268">move()</text>
        <!--MD5=[0b747b16fd15de0ba6a1fc1f13282ea0]
class Dino-->
        <rect fill="#FEFECE" filter="url(#f1ksnaz6c3dk0b)" height="48" id="Dino" style="stroke: #A80036; stroke-width: 1.5;" width="58" x="454" y="634" />
        <ellipse cx="469" cy="650" fill="#ADD1B2" rx="11" ry="11" style="stroke: #A80036; stroke-width: 1.0;" />
        <path d="M471.7656,645.875 Q471.9219,645.6563 472.1094,645.5469 Q472.2969,645.4375 472.5156,645.4375 Q472.8906,645.4375 473.125,645.6953 Q473.3594,645.9531 473.3594,646.5625 L473.3594,648.0156 Q473.3594,648.625 473.125,648.8906 Q472.8906,649.1563 472.5156,649.1563 Q472.1719,649.1563 471.9688,648.9531 Q471.7656,648.7656 471.6563,648.25 Q471.6094,647.8906 471.4219,647.7031 Q471.0938,647.3281 470.4844,647.1094 Q469.875,646.8906 469.25,646.8906 Q468.4844,646.8906 467.8516,647.2188 Q467.2188,647.5469 466.7266,648.2969 Q466.2344,649.0469 466.2344,650.0781 L466.2344,651.1719 Q466.2344,652.4063 467.125,653.2266 Q468.0156,654.0469 469.6094,654.0469 Q470.5469,654.0469 471.2031,653.7969 Q471.5938,653.6406 472.0156,653.2031 Q472.2813,652.9375 472.4297,652.8594 Q472.5781,652.7813 472.7813,652.7813 Q473.1094,652.7813 473.3672,653.0391 Q473.625,653.2969 473.625,653.6406 Q473.625,653.9844 473.2813,654.3906 Q472.7813,654.9688 471.9844,655.2969 Q470.9063,655.75 469.6094,655.75 Q468.0938,655.75 466.8906,655.125 Q465.9063,654.625 465.2188,653.5547 Q464.5313,652.4844 464.5313,651.2031 L464.5313,650.0469 Q464.5313,648.7188 465.1484,647.5703 Q465.7656,646.4219 466.8594,645.8047 Q467.9531,645.1875 469.1875,645.1875 Q469.9219,645.1875 470.5703,645.3516 Q471.2188,645.5156 471.7656,645.875 Z " /><text fill="#000000" font-family="sans-serif" font-size="12" lengthAdjust="spacingAndGlyphs" textLength="26" x="483" y="654.9102">Dino</text>
        <line style="stroke: #A80036; stroke-width: 1.5;" x1="455" x2="511" y1="666" y2="666" />
        <line style="stroke: #A80036; stroke-width: 1.5;" x1="455" x2="511" y1="674" y2="674" />
        <!--MD5=[574ae5e535ab9d722dfd5b5dd8886d51]
class Paper-->
        <rect fill="#FEFECE" filter="url(#f1ksnaz6c3dk0b)" height="75.6719" id="Paper" style="stroke: #A80036; stroke-width: 1.5;" width="103" x="315.5" y="620" />
        <ellipse cx="347.6" cy="636" fill="#ADD1B2" rx="11" ry="11" style="stroke: #A80036; stroke-width: 1.0;" />
        <path d="M350.3656,631.875 Q350.5219,631.6563 350.7094,631.5469 Q350.8969,631.4375 351.1156,631.4375 Q351.4906,631.4375 351.725,631.6953 Q351.9594,631.9531 351.9594,632.5625 L351.9594,634.0156 Q351.9594,634.625 351.725,634.8906 Q351.4906,635.1563 351.1156,635.1563 Q350.7719,635.1563 350.5688,634.9531 Q350.3656,634.7656 350.2563,634.25 Q350.2094,633.8906 350.0219,633.7031 Q349.6938,633.3281 349.0844,633.1094 Q348.475,632.8906 347.85,632.8906 Q347.0844,632.8906 346.4516,633.2188 Q345.8188,633.5469 345.3266,634.2969 Q344.8344,635.0469 344.8344,636.0781 L344.8344,637.1719 Q344.8344,638.4063 345.725,639.2266 Q346.6156,640.0469 348.2094,640.0469 Q349.1469,640.0469 349.8031,639.7969 Q350.1938,639.6406 350.6156,639.2031 Q350.8813,638.9375 351.0297,638.8594 Q351.1781,638.7813 351.3813,638.7813 Q351.7094,638.7813 351.9672,639.0391 Q352.225,639.2969 352.225,639.6406 Q352.225,639.9844 351.8813,640.3906 Q351.3813,640.9688 350.5844,641.2969 Q349.5063,641.75 348.2094,641.75 Q346.6938,641.75 345.4906,641.125 Q344.5063,640.625 343.8188,639.5547 Q343.1313,638.4844 343.1313,637.2031 L343.1313,636.0469 Q343.1313,634.7188 343.7484,633.5703 Q344.3656,632.4219 345.4594,631.8047 Q346.5531,631.1875 347.7875,631.1875 Q348.5219,631.1875 349.1703,631.3516 Q349.8188,631.5156 350.3656,631.875 Z " /><text fill="#000000" font-family="sans-serif" font-size="12" lengthAdjust="spacingAndGlyphs" textLength="33" x="365.4" y="640.9102">Paper</text>
        <line style="stroke: #A80036; stroke-width: 1.5;" x1="316.5" x2="417.5" y1="652" y2="652" /><text fill="#000000" font-family="sans-serif" font-size="11" lengthAdjust="spacingAndGlyphs" textLength="91" x="321.5" y="667.4189">SpeciesColor color</text><text fill="#000000" font-family="sans-serif" font-size="11" lengthAdjust="spacingAndGlyphs" textLength="66" x="321.5" y="681.2549">float[2] speed</text>
        <line style="stroke: #A80036; stroke-width: 1.5;" x1="316.5" x2="417.5" y1="687.6719" y2="687.6719" />
        <!--MD5=[d755c5174fbc4166a0b82a39f0ad1a0e]
class AI-->
        <rect fill="#FEFECE" filter="url(#f1ksnaz6c3dk0b)" height="103.3438" id="AI" style="stroke: #A80036; stroke-width: 1.5;" width="103" x="336.5" y="777" />
        <ellipse cx="378.95" cy="793" fill="#ADD1B2" rx="11" ry="11" style="stroke: #A80036; stroke-width: 1.0;" />
        <path d="M381.7156,788.875 Q381.8719,788.6563 382.0594,788.5469 Q382.2469,788.4375 382.4656,788.4375 Q382.8406,788.4375 383.075,788.6953 Q383.3094,788.9531 383.3094,789.5625 L383.3094,791.0156 Q383.3094,791.625 383.075,791.8906 Q382.8406,792.1563 382.4656,792.1563 Q382.1219,792.1563 381.9188,791.9531 Q381.7156,791.7656 381.6063,791.25 Q381.5594,790.8906 381.3719,790.7031 Q381.0438,790.3281 380.4344,790.1094 Q379.825,789.8906 379.2,789.8906 Q378.4344,789.8906 377.8016,790.2188 Q377.1688,790.5469 376.6766,791.2969 Q376.1844,792.0469 376.1844,793.0781 L376.1844,794.1719 Q376.1844,795.4063 377.075,796.2266 Q377.9656,797.0469 379.5594,797.0469 Q380.4969,797.0469 381.1531,796.7969 Q381.5438,796.6406 381.9656,796.2031 Q382.2313,795.9375 382.3797,795.8594 Q382.5281,795.7813 382.7313,795.7813 Q383.0594,795.7813 383.3172,796.0391 Q383.575,796.2969 383.575,796.6406 Q383.575,796.9844 383.2313,797.3906 Q382.7313,797.9688 381.9344,798.2969 Q380.8563,798.75 379.5594,798.75 Q378.0438,798.75 376.8406,798.125 Q375.8563,797.625 375.1688,796.5547 Q374.4813,795.4844 374.4813,794.2031 L374.4813,793.0469 Q374.4813,791.7188 375.0984,790.5703 Q375.7156,789.4219 376.8094,788.8047 Q377.9031,788.1875 379.1375,788.1875 Q379.8719,788.1875 380.5203,788.3516 Q381.1688,788.5156 381.7156,788.875 Z " /><text fill="#000000" font-family="sans-serif" font-size="12" lengthAdjust="spacingAndGlyphs" textLength="10" x="399.05" y="797.9102">AI</text>
        <line style="stroke: #A80036; stroke-width: 1.5;" x1="337.5" x2="438.5" y1="809" y2="809" /><text fill="#000000" font-family="sans-serif" font-size="11" lengthAdjust="spacingAndGlyphs" textLength="76" x="342.5" y="824.4189">Building building</text><text fill="#000000" font-family="sans-serif" font-size="11" lengthAdjust="spacingAndGlyphs" textLength="91" x="342.5" y="838.2549">SpeciesColor color</text><text fill="#000000" font-family="sans-serif" font-size="11" lengthAdjust="spacingAndGlyphs" textLength="73" x="342.5" y="852.0908">Activity activity</text><text fill="#000000" font-family="sans-serif" font-size="11" lengthAdjust="spacingAndGlyphs" textLength="79" x="342.5" y="865.9268">boolean pacified</text>
        <line style="stroke: #A80036; stroke-width: 1.5;" x1="337.5" x2="438.5" y1="872.3438" y2="872.3438" />
        <!--MD5=[2cb47ba637a0d19583e6199456f6ad0b]
class Player-->
        <rect fill="#FEFECE" filter="url(#f1ksnaz6c3dk0b)" height="144.8516" id="Player" style="stroke: #A80036; stroke-width: 1.5;" width="148" x="475" y="756" />
        <ellipse cx="527.75" cy="772" fill="#ADD1B2" rx="11" ry="11" style="stroke: #A80036; stroke-width: 1.0;" />
        <path d="M530.5156,767.875 Q530.6719,767.6563 530.8594,767.5469 Q531.0469,767.4375 531.2656,767.4375 Q531.6406,767.4375 531.875,767.6953 Q532.1094,767.9531 532.1094,768.5625 L532.1094,770.0156 Q532.1094,770.625 531.875,770.8906 Q531.6406,771.1563 531.2656,771.1563 Q530.9219,771.1563 530.7188,770.9531 Q530.5156,770.7656 530.4063,770.25 Q530.3594,769.8906 530.1719,769.7031 Q529.8438,769.3281 529.2344,769.1094 Q528.625,768.8906 528,768.8906 Q527.2344,768.8906 526.6016,769.2188 Q525.9688,769.5469 525.4766,770.2969 Q524.9844,771.0469 524.9844,772.0781 L524.9844,773.1719 Q524.9844,774.4063 525.875,775.2266 Q526.7656,776.0469 528.3594,776.0469 Q529.2969,776.0469 529.9531,775.7969 Q530.3438,775.6406 530.7656,775.2031 Q531.0313,774.9375 531.1797,774.8594 Q531.3281,774.7813 531.5313,774.7813 Q531.8594,774.7813 532.1172,775.0391 Q532.375,775.2969 532.375,775.6406 Q532.375,775.9844 532.0313,776.3906 Q531.5313,776.9688 530.7344,777.2969 Q529.6563,777.75 528.3594,777.75 Q526.8438,777.75 525.6406,777.125 Q524.6563,776.625 523.9688,775.5547 Q523.2813,774.4844 523.2813,773.2031 L523.2813,772.0469 Q523.2813,770.7188 523.8984,769.5703 Q524.5156,768.4219 525.6094,767.8047 Q526.7031,767.1875 527.9375,767.1875 Q528.6719,767.1875 529.3203,767.3516 Q529.9688,767.5156 530.5156,767.875 Z " /><text fill="#000000" font-family="sans-serif" font-size="12" lengthAdjust="spacingAndGlyphs" textLength="34" x="548.25" y="776.9102">Player</text>
        <line style="stroke: #A80036; stroke-width: 1.5;" x1="476" x2="622" y1="788" y2="788" /><text fill="#000000" font-family="sans-serif" font-size="11" lengthAdjust="spacingAndGlyphs" textLength="82" x="481" y="803.4189">int[] paperCounts</text><text fill="#000000" font-family="sans-serif" font-size="11" lengthAdjust="spacingAndGlyphs" textLength="102" x="481" y="817.2549">int[] paperMaxCounts</text><text fill="#000000" font-family="sans-serif" font-size="11" lengthAdjust="spacingAndGlyphs" textLength="136" x="481" y="831.0908">SpeciesColor selectedPaper</text>
        <line style="stroke: #A80036; stroke-width: 1.5;" x1="476" x2="622" y1="837.5078" y2="837.5078" /><text fill="#000000" font-family="sans-serif" font-size="11" lengthAdjust="spacingAndGlyphs" textLength="73" x="481" y="852.9268">collectPapers()</text><text fill="#000000" font-family="sans-serif" font-size="11" lengthAdjust="spacingAndGlyphs" textLength="65" x="481" y="866.7627">selectPaper()</text><text fill="#000000" font-family="sans-serif" font-size="11" lengthAdjust="spacingAndGlyphs" textLength="65" x="481" y="880.5986">throwPaper()</text><text fill="#000000" font-family="sans-serif" font-size="11" lengthAdjust="spacingAndGlyphs" textLength="87" x="481" y="894.4346">punchWithPaper()</text>
        <!--MD5=[1b1562314ef50edf921bad0cd204186a]
class World-->
        <rect fill="#FEFECE" filter="url(#f1ksnaz6c3dk0b)" height="103.3438" id="World" style="stroke: #A80036; stroke-width: 1.5;" width="185" x="368.5" y="8" />
        <ellipse cx="440.75" cy="24" fill="#ADD1B2" rx="11" ry="11" style="stroke: #A80036; stroke-width: 1.0;" />
        <path d="M443.5156,19.875 Q443.6719,19.6563 443.8594,19.5469 Q444.0469,19.4375 444.2656,19.4375 Q444.6406,19.4375 444.875,19.6953 Q445.1094,19.9531 445.1094,20.5625 L445.1094,22.0156 Q445.1094,22.625 444.875,22.8906 Q444.6406,23.1563 444.2656,23.1563 Q443.9219,23.1563 443.7188,22.9531 Q443.5156,22.7656 443.4063,22.25 Q443.3594,21.8906 443.1719,21.7031 Q442.8438,21.3281 442.2344,21.1094 Q441.625,20.8906 441,20.8906 Q440.2344,20.8906 439.6016,21.2188 Q438.9688,21.5469 438.4766,22.2969 Q437.9844,23.0469 437.9844,24.0781 L437.9844,25.1719 Q437.9844,26.4063 438.875,27.2266 Q439.7656,28.0469 441.3594,28.0469 Q442.2969,28.0469 442.9531,27.7969 Q443.3438,27.6406 443.7656,27.2031 Q444.0313,26.9375 444.1797,26.8594 Q444.3281,26.7813 444.5313,26.7813 Q444.8594,26.7813 445.1172,27.0391 Q445.375,27.2969 445.375,27.6406 Q445.375,27.9844 445.0313,28.3906 Q444.5313,28.9688 443.7344,29.2969 Q442.6563,29.75 441.3594,29.75 Q439.8438,29.75 438.6406,29.125 Q437.6563,28.625 436.9688,27.5547 Q436.2813,26.4844 436.2813,25.2031 L436.2813,24.0469 Q436.2813,22.7188 436.8984,21.5703 Q437.5156,20.4219 438.6094,19.8047 Q439.7031,19.1875 440.9375,19.1875 Q441.6719,19.1875 442.3203,19.3516 Q442.9688,19.5156 443.5156,19.875 Z " /><text fill="#000000" font-family="sans-serif" font-size="12" lengthAdjust="spacingAndGlyphs" textLength="32" x="461.25" y="28.9102">World</text>
        <line style="stroke: #A80036; stroke-width: 1.5;" x1="369.5" x2="552.5" y1="40" y2="40" /><text fill="#000000" font-family="sans-serif" font-size="11" lengthAdjust="spacingAndGlyphs" textLength="173" x="374.5" y="55.4189">List&lt;DynamicEntity&gt; dynamicEntities</text><text fill="#000000" font-family="sans-serif" font-size="11" lengthAdjust="spacingAndGlyphs" textLength="63" x="374.5" y="69.2549">Player player</text>
        <line style="stroke: #A80036; stroke-width: 1.5;" x1="369.5" x2="552.5" y1="75.6719" y2="75.6719" /><text fill="#000000" font-family="sans-serif" font-size="11" lengthAdjust="spacingAndGlyphs" textLength="41" x="374.5" y="91.0908">update()</text><text fill="#000000" font-family="sans-serif" font-size="11" lengthAdjust="spacingAndGlyphs" textLength="40" x="374.5" y="104.9268">render()</text>
        <!--MD5=[1f24f7b92150e3316908f7910ce81742]
class Grid-->
        <rect fill="#FEFECE" filter="url(#f1ksnaz6c3dk0b)" height="75.6719" id="Grid" style="stroke: #A80036; stroke-width: 1.5;" width="66" x="183" y="171" />
        <ellipse cx="202.95" cy="187" fill="#ADD1B2" rx="11" ry="11" style="stroke: #A80036; stroke-width: 1.0;" />
        <path d="M205.7156,182.875 Q205.8719,182.6563 206.0594,182.5469 Q206.2469,182.4375 206.4656,182.4375 Q206.8406,182.4375 207.075,182.6953 Q207.3094,182.9531 207.3094,183.5625 L207.3094,185.0156 Q207.3094,185.625 207.075,185.8906 Q206.8406,186.1563 206.4656,186.1563 Q206.1219,186.1563 205.9188,185.9531 Q205.7156,185.7656 205.6063,185.25 Q205.5594,184.8906 205.3719,184.7031 Q205.0438,184.3281 204.4344,184.1094 Q203.825,183.8906 203.2,183.8906 Q202.4344,183.8906 201.8016,184.2188 Q201.1688,184.5469 200.6766,185.2969 Q200.1844,186.0469 200.1844,187.0781 L200.1844,188.1719 Q200.1844,189.4063 201.075,190.2266 Q201.9656,191.0469 203.5594,191.0469 Q204.4969,191.0469 205.1531,190.7969 Q205.5438,190.6406 205.9656,190.2031 Q206.2313,189.9375 206.3797,189.8594 Q206.5281,189.7813 206.7313,189.7813 Q207.0594,189.7813 207.3172,190.0391 Q207.575,190.2969 207.575,190.6406 Q207.575,190.9844 207.2313,191.3906 Q206.7313,191.9688 205.9344,192.2969 Q204.8563,192.75 203.5594,192.75 Q202.0438,192.75 200.8406,192.125 Q199.8563,191.625 199.1688,190.5547 Q198.4813,189.4844 198.4813,188.2031 L198.4813,187.0469 Q198.4813,185.7188 199.0984,184.5703 Q199.7156,183.4219 200.8094,182.8047 Q201.9031,182.1875 203.1375,182.1875 Q203.8719,182.1875 204.5203,182.3516 Q205.1688,182.5156 205.7156,182.875 Z " /><text fill="#000000" font-family="sans-serif" font-size="12" lengthAdjust="spacingAndGlyphs" textLength="23" x="218.05" y="191.9102">Grid</text>
        <line style="stroke: #A80036; stroke-width: 1.5;" x1="184" x2="248" y1="203" y2="203" /><text fill="#000000" font-family="sans-serif" font-size="11" lengthAdjust="spacingAndGlyphs" textLength="54" x="189" y="218.4189">Cell[][] cells</text>
        <line style="stroke: #A80036; stroke-width: 1.5;" x1="184" x2="248" y1="224.8359" y2="224.8359" /><text fill="#000000" font-family="sans-serif" font-size="11" lengthAdjust="spacingAndGlyphs" textLength="40" x="189" y="240.2549">render()</text>
        <!--MD5=[fea3dc74c7473bae0133d22265a91e2f]
class Cell-->
        <rect fill="#FEFECE" filter="url(#f1ksnaz6c3dk0b)" height="75.6719" id="Cell" style="stroke: #A80036; stroke-width: 1.5;" width="102" x="6" y="314" />
        <ellipse cx="42.6" cy="330" fill="#ADD1B2" rx="11" ry="11" style="stroke: #A80036; stroke-width: 1.0;" />
        <path d="M45.3656,325.875 Q45.5219,325.6563 45.7094,325.5469 Q45.8969,325.4375 46.1156,325.4375 Q46.4906,325.4375 46.725,325.6953 Q46.9594,325.9531 46.9594,326.5625 L46.9594,328.0156 Q46.9594,328.625 46.725,328.8906 Q46.4906,329.1563 46.1156,329.1563 Q45.7719,329.1563 45.5688,328.9531 Q45.3656,328.7656 45.2563,328.25 Q45.2094,327.8906 45.0219,327.7031 Q44.6938,327.3281 44.0844,327.1094 Q43.475,326.8906 42.85,326.8906 Q42.0844,326.8906 41.4516,327.2188 Q40.8188,327.5469 40.3266,328.2969 Q39.8344,329.0469 39.8344,330.0781 L39.8344,331.1719 Q39.8344,332.4063 40.725,333.2266 Q41.6156,334.0469 43.2094,334.0469 Q44.1469,334.0469 44.8031,333.7969 Q45.1938,333.6406 45.6156,333.2031 Q45.8813,332.9375 46.0297,332.8594 Q46.1781,332.7813 46.3813,332.7813 Q46.7094,332.7813 46.9672,333.0391 Q47.225,333.2969 47.225,333.6406 Q47.225,333.9844 46.8813,334.3906 Q46.3813,334.9688 45.5844,335.2969 Q44.5063,335.75 43.2094,335.75 Q41.6938,335.75 40.4906,335.125 Q39.5063,334.625 38.8188,333.5547 Q38.1313,332.4844 38.1313,331.2031 L38.1313,330.0469 Q38.1313,328.7188 38.7484,327.5703 Q39.3656,326.4219 40.4594,325.8047 Q41.5531,325.1875 42.7875,325.1875 Q43.5219,325.1875 44.1703,325.3516 Q44.8188,325.5156 45.3656,325.875 Z " /><text fill="#000000" font-family="sans-serif" font-size="12" lengthAdjust="spacingAndGlyphs" textLength="22" x="61.4" y="334.9102">Cell</text>
        <line style="stroke: #A80036; stroke-width: 1.5;" x1="7" x2="107" y1="346" y2="346" /><text fill="#000000" font-family="sans-serif" font-size="11" lengthAdjust="spacingAndGlyphs" textLength="90" x="12" y="361.4189">List&lt;Piece&gt; pieces</text>
        <line style="stroke: #A80036; stroke-width: 1.5;" x1="7" x2="107" y1="367.8359" y2="367.8359" /><text fill="#000000" font-family="sans-serif" font-size="11" lengthAdjust="spacingAndGlyphs" textLength="40" x="12" y="383.2549">render()</text>
        <!--MD5=[e05bacf3ff4416a0580578814d41bbf6]
class Piece-->
        <rect fill="#FEFECE" filter="url(#f1ksnaz6c3dk0b)" height="89.5078" id="Piece" style="stroke: #A80036; stroke-width: 1.5;" width="96" x="143" y="307" />
        <ellipse cx="172.85" cy="323" fill="#ADD1B2" rx="11" ry="11" style="stroke: #A80036; stroke-width: 1.0;" />
        <path d="M175.6156,318.875 Q175.7719,318.6563 175.9594,318.5469 Q176.1469,318.4375 176.3656,318.4375 Q176.7406,318.4375 176.975,318.6953 Q177.2094,318.9531 177.2094,319.5625 L177.2094,321.0156 Q177.2094,321.625 176.975,321.8906 Q176.7406,322.1563 176.3656,322.1563 Q176.0219,322.1563 175.8188,321.9531 Q175.6156,321.7656 175.5063,321.25 Q175.4594,320.8906 175.2719,320.7031 Q174.9438,320.3281 174.3344,320.1094 Q173.725,319.8906 173.1,319.8906 Q172.3344,319.8906 171.7016,320.2188 Q171.0688,320.5469 170.5766,321.2969 Q170.0844,322.0469 170.0844,323.0781 L170.0844,324.1719 Q170.0844,325.4063 170.975,326.2266 Q171.8656,327.0469 173.4594,327.0469 Q174.3969,327.0469 175.0531,326.7969 Q175.4438,326.6406 175.8656,326.2031 Q176.1313,325.9375 176.2797,325.8594 Q176.4281,325.7813 176.6313,325.7813 Q176.9594,325.7813 177.2172,326.0391 Q177.475,326.2969 177.475,326.6406 Q177.475,326.9844 177.1313,327.3906 Q176.6313,327.9688 175.8344,328.2969 Q174.7563,328.75 173.4594,328.75 Q171.9438,328.75 170.7406,328.125 Q169.7563,327.625 169.0688,326.5547 Q168.3813,325.4844 168.3813,324.2031 L168.3813,323.0469 Q168.3813,321.7188 168.9984,320.5703 Q169.6156,319.4219 170.7094,318.8047 Q171.8031,318.1875 173.0375,318.1875 Q173.7719,318.1875 174.4203,318.3516 Q175.0688,318.5156 175.6156,318.875 Z " /><text fill="#000000" font-family="sans-serif" font-size="12" lengthAdjust="spacingAndGlyphs" textLength="31" x="190.15" y="327.9102">Piece</text>
        <line style="stroke: #A80036; stroke-width: 1.5;" x1="144" x2="238" y1="339" y2="339" /><text fill="#000000" font-family="sans-serif" font-size="11" lengthAdjust="spacingAndGlyphs" textLength="55" x="149" y="354.4189">Entity entity</text><text fill="#000000" font-family="sans-serif" font-size="11" lengthAdjust="spacingAndGlyphs" textLength="84" x="149" y="368.2549">boolean walkable</text>
        <line style="stroke: #A80036; stroke-width: 1.5;" x1="144" x2="238" y1="374.6719" y2="374.6719" /><text fill="#000000" font-family="sans-serif" font-size="11" lengthAdjust="spacingAndGlyphs" textLength="40" x="149" y="390.0908">render()</text>
        <!--MD5=[be996cdb8e6bf2fc7cb89c555f2cd144]
class Entity-->
        <rect fill="#FEFECE" filter="url(#f1ksnaz6c3dk0b)" height="89.5078" id="Entity" style="stroke: #A80036; stroke-width: 1.5;" width="99" x="274.5" y="307" />
        <ellipse cx="306.15" cy="323" fill="#A9DCDF" rx="11" ry="11" style="stroke: #A80036; stroke-width: 1.0;" />
        <path d="M308.3375,324.7656 L304.1969,324.7656 L303.775,325.7969 L304.1969,325.7969 Q304.8063,325.7969 305.0719,326.0313 Q305.3375,326.2656 305.3375,326.6563 Q305.3375,327.0313 305.0719,327.2656 Q304.8063,327.5 304.1969,327.5 L301.9,327.5 Q301.2906,327.5 301.0328,327.2656 Q300.775,327.0313 300.775,326.6406 Q300.775,326.2656 301.0484,326.0234 Q301.3219,325.7813 301.9469,325.7969 L304.6188,319.1406 L303.5094,319.1406 Q302.9,319.1406 302.6344,318.9063 Q302.3688,318.6719 302.3688,318.2813 Q302.3688,317.9063 302.6344,317.6719 Q302.9,317.4375 303.5094,317.4375 L307.1813,317.4375 L310.5719,325.7969 Q311.1656,325.7969 311.3531,325.9375 Q311.7438,326.2031 311.7438,326.6563 Q311.7438,327.0313 311.4859,327.2656 Q311.2281,327.5 310.6188,327.5 L308.3219,327.5 Q307.7125,327.5 307.4469,327.2656 Q307.1813,327.0313 307.1813,326.6406 Q307.1813,326.2656 307.4469,326.0313 Q307.7125,325.7969 308.3219,325.7969 L308.7438,325.7969 L308.3375,324.7656 Z M307.6188,323.0625 L306.2594,319.6875 L304.8844,323.0625 L307.6188,323.0625 Z " /><text fill="#000000" font-family="sans-serif" font-size="12" font-style="italic" lengthAdjust="spacingAndGlyphs" textLength="30" x="323.85" y="327.9102">Entity</text>
        <line style="stroke: #A80036; stroke-width: 1.5;" x1="275.5" x2="372.5" y1="339" y2="339" /><text fill="#000000" font-family="sans-serif" font-size="11" lengthAdjust="spacingAndGlyphs" textLength="87" x="280.5" y="354.4189">static Image sprite</text><text fill="#000000" font-family="sans-serif" font-size="11" lengthAdjust="spacingAndGlyphs" textLength="73" x="280.5" y="368.2549">Piece[][] pieces</text><text fill="#000000" font-family="sans-serif" font-size="11" lengthAdjust="spacingAndGlyphs" textLength="63" x="280.5" y="382.0908">int[2] position</text>
        <line style="stroke: #A80036; stroke-width: 1.5;" x1="275.5" x2="372.5" y1="388.5078" y2="388.5078" />
        <!--MD5=[c881b25adf3665c6568c9693d41a70f3]
class Activity-->
        <rect fill="#FEFECE" filter="url(#f1ksnaz6c3dk0b)" height="89.5078" id="Activity" style="stroke: #A80036; stroke-width: 1.5;" width="67" x="423.5" y="981" />
        <ellipse cx="438.5" cy="997" fill="#EB937F" rx="11" ry="11" style="stroke: #A80036; stroke-width: 1.0;" />
        <path d="M437.3594,997.7969 L437.3594,1000.2969 L441.6875,1000.2969 L441.6875,999.375 Q441.6875,998.7656 441.9297,998.5 Q442.1719,998.2344 442.5469,998.2344 Q442.9219,998.2344 443.1563,998.5 Q443.3906,998.7656 443.3906,999.375 L443.3906,1002 L435.3906,1002 Q434.7656,1002 434.5078,1001.7656 Q434.25,1001.5313 434.25,1001.1406 Q434.25,1000.7656 434.5156,1000.5313 Q434.7813,1000.2969 435.3906,1000.2969 L435.6563,1000.2969 L435.6563,993.6406 L435.3906,993.6406 Q434.7656,993.6406 434.5078,993.4063 Q434.25,993.1719 434.25,992.7813 Q434.25,992.4063 434.5078,992.1719 Q434.7656,991.9375 435.3906,991.9375 L443.0156,991.9375 L443.0156,994.5313 Q443.0156,995.1406 442.7891,995.3984 Q442.5625,995.6563 442.1719,995.6563 Q441.7969,995.6563 441.5625,995.3984 Q441.3281,995.1406 441.3281,994.5313 L441.3281,993.6406 L437.3594,993.6406 L437.3594,996.0938 L438.8438,996.0938 Q438.8438,995.4375 438.9688,995.25 Q439.2344,994.8438 439.7031,994.8438 Q440.0781,994.8438 440.3125,995.1016 Q440.5469,995.3594 440.5469,995.9688 L440.5469,997.9375 Q440.5469,998.4844 440.4219,998.6719 Q440.1563,999.0625 439.7031,999.0625 Q439.2344,999.0625 438.9688,998.6563 Q438.8438,998.4688 438.8438,997.7969 L437.3594,997.7969 Z " /><text fill="#000000" font-family="sans-serif" font-size="12" lengthAdjust="spacingAndGlyphs" textLength="35" x="452.5" y="1001.9102">Activity</text>
        <line style="stroke: #A80036; stroke-width: 1.5;" x1="424.5" x2="489.5" y1="1013" y2="1013" /><text fill="#000000" font-family="sans-serif" font-size="11" lengthAdjust="spacingAndGlyphs" textLength="52" x="429.5" y="1028.4189">wandering</text><text fill="#000000" font-family="sans-serif" font-size="11" lengthAdjust="spacingAndGlyphs" textLength="33" x="429.5" y="1042.2549">resting</text><text fill="#000000" font-family="sans-serif" font-size="11" lengthAdjust="spacingAndGlyphs" textLength="34" x="429.5" y="1056.0908">hangry</text>
        <line style="stroke: #A80036; stroke-width: 1.5;" x1="424.5" x2="489.5" y1="1062.5078" y2="1062.5078" />
        <!--MD5=[bdc64ea1417373d8993b223e9e2d2b5f]
class SpeciesColor-->
        <rect fill="#FEFECE" filter="url(#f1ksnaz6c3dk0b)" height="75.6719" id="SpeciesColor" style="stroke: #A80036; stroke-width: 1.5;" width="107" x="281.5" y="988" />
        <ellipse cx="296.5" cy="1004" fill="#EB937F" rx="11" ry="11" style="stroke: #A80036; stroke-width: 1.0;" />
        <path d="M295.3594,1004.7969 L295.3594,1007.2969 L299.6875,1007.2969 L299.6875,1006.375 Q299.6875,1005.7656 299.9297,1005.5 Q300.1719,1005.2344 300.5469,1005.2344 Q300.9219,1005.2344 301.1563,1005.5 Q301.3906,1005.7656 301.3906,1006.375 L301.3906,1009 L293.3906,1009 Q292.7656,1009 292.5078,1008.7656 Q292.25,1008.5313 292.25,1008.1406 Q292.25,1007.7656 292.5156,1007.5313 Q292.7813,1007.2969 293.3906,1007.2969 L293.6563,1007.2969 L293.6563,1000.6406 L293.3906,1000.6406 Q292.7656,1000.6406 292.5078,1000.4063 Q292.25,1000.1719 292.25,999.7813 Q292.25,999.4063 292.5078,999.1719 Q292.7656,998.9375 293.3906,998.9375 L301.0156,998.9375 L301.0156,1001.5313 Q301.0156,1002.1406 300.7891,1002.3984 Q300.5625,1002.6563 300.1719,1002.6563 Q299.7969,1002.6563 299.5625,1002.3984 Q299.3281,1002.1406 299.3281,1001.5313 L299.3281,1000.6406 L295.3594,1000.6406 L295.3594,1003.0938 L296.8438,1003.0938 Q296.8438,1002.4375 296.9688,1002.25 Q297.2344,1001.8438 297.7031,1001.8438 Q298.0781,1001.8438 298.3125,1002.1016 Q298.5469,1002.3594 298.5469,1002.9688 L298.5469,1004.9375 Q298.5469,1005.4844 298.4219,1005.6719 Q298.1563,1006.0625 297.7031,1006.0625 Q297.2344,1006.0625 296.9688,1005.6563 Q296.8438,1005.4688 296.8438,1004.7969 L295.3594,1004.7969 Z " /><text fill="#000000" font-family="sans-serif" font-size="12" lengthAdjust="spacingAndGlyphs" textLength="75" x="310.5" y="1008.9102">SpeciesColor</text>
        <line style="stroke: #A80036; stroke-width: 1.5;" x1="282.5" x2="387.5" y1="1020" y2="1020" /><text fill="#000000" font-family="sans-serif" font-size="11" lengthAdjust="spacingAndGlyphs" textLength="16" x="287.5" y="1035.4189">red</text><text fill="#000000" font-family="sans-serif" font-size="11" lengthAdjust="spacingAndGlyphs" textLength="20" x="287.5" y="1049.2549">blue</text>
        <line style="stroke: #A80036; stroke-width: 1.5;" x1="282.5" x2="387.5" y1="1055.6719" y2="1055.6719" />
        <!--MD5=[9b42e2c40c5c3250f6f2cff3a893cb2e]
reverse link Entity to Nest-->
        <path d="M309.479,417.099 C304.744,438.002 299.709,460.23 295.816,477.413 " fill="none" id="Entity&lt;-Nest" style="stroke: #A80036; stroke-width: 1.0;" />
        <polygon fill="none" points="302.725,415.233,313.97,397.273,316.379,418.326,302.725,415.233" style="stroke: #A80036; stroke-width: 1.0;" />
        <!--MD5=[bf7f4d8930ae200ca6b27288c56a3d7a]
reverse link Entity to Building-->
        <path d="M256.571,396.725 C256.38,396.817 256.19,396.909 256,397 C235.732,406.741 221.149,394.757 208,413 C163.748,474.396 191.187,568.377 212.015,619.948 " fill="none" id="Entity&lt;-Building" style="stroke: #A80036; stroke-width: 1.0;" />
        <polygon fill="none" points="253.397,390.483,274.323,387.149,260.044,402.805,253.397,390.483" style="stroke: #A80036; stroke-width: 1.0;" />
        <!--MD5=[544e9875717ef78f0a495c51cccde454]
reverse link Entity to DynamicEntity-->
        <path d="M376.925,412.685 C389.89,427.307 403.642,442.815 416.185,456.96 " fill="none" id="Entity&lt;-DynamicEntity" style="stroke: #A80036; stroke-width: 1.0;" />
        <polygon fill="none" points="371.29,416.882,363.259,397.273,381.765,407.593,371.29,416.882" style="stroke: #A80036; stroke-width: 1.0;" />
        <!--MD5=[992b618b077310a5d94725a48563bc7b]
reverse link DynamicEntity to Dino-->
        <path d="M471.538,580.152 C474.432,599.556 477.369,619.245 479.545,633.837 " fill="none" id="DynamicEntity&lt;-Dino" style="stroke: #A80036; stroke-width: 1.0;" />
        <polygon fill="none" points="464.598,581.075,468.571,560.261,478.445,579.01,464.598,581.075" style="stroke: #A80036; stroke-width: 1.0;" />
        <!--MD5=[6cd0be0e1da4a575eaa73052b6316d8e]
reverse link DynamicEntity to Paper-->
        <path d="M417.894,577.14 C408.574,591.764 399.049,606.71 390.798,619.657 " fill="none" id="DynamicEntity&lt;-Paper" style="stroke: #A80036; stroke-width: 1.0;" />
        <polygon fill="none" points="411.999,573.365,428.651,560.261,423.805,580.889,411.999,573.365" style="stroke: #A80036; stroke-width: 1.0;" />
        <!--MD5=[baa2962affdb08c86284bf861b27f29c]
reverse link Dino to AI-->
        <path d="M460.158,699.515 C447.087,722.698 430.57,751.994 416.638,776.706 " fill="none" id="Dino&lt;-AI" style="stroke: #A80036; stroke-width: 1.0;" />
        <polygon fill="none" points="454.07,696.06,469.99,682.076,466.265,702.936,454.07,696.06" style="stroke: #A80036; stroke-width: 1.0;" />
        <!--MD5=[4aeec6e5b5c55acc33d746391462528e]
reverse link Dino to Player-->
        <path d="M499.429,700.944 C505.942,717.571 513.617,737.166 520.958,755.907 " fill="none" id="Dino&lt;-Player" style="stroke: #A80036; stroke-width: 1.0;" />
        <polygon fill="none" points="492.815,703.251,492.039,682.076,505.851,698.145,492.815,703.251" style="stroke: #A80036; stroke-width: 1.0;" />
        <!--MD5=[2447db2d5398c13e17973605d13e2ad0]
link World to Grid-->
        <path d="M377.028,111.055 C333.117,137.491 281.852,168.354 249.173,188.029 " fill="none" id="World-Grid" style="stroke: #A80036; stroke-width: 1.0;" /><text fill="#000000" font-family="sans-serif" font-size="13" lengthAdjust="spacingAndGlyphs" textLength="7" x="357.7273" y="132.9256">0</text><text fill="#000000" font-family="sans-serif" font-size="13" lengthAdjust="spacingAndGlyphs" textLength="7" x="257.1952" y="179.2611">1</text>
        <!--MD5=[4002627d21c3ad16fb74c62a082ce548]
link World to DynamicEntity-->
        <path d="M461,111.341 C461,197.38 461,370.7 461,456.706 " fill="none" id="World-DynamicEntity" style="stroke: #A80036; stroke-width: 1.0;" /><text fill="#000000" font-family="sans-serif" font-size="13" lengthAdjust="spacingAndGlyphs" textLength="7" x="453.5297" y="132.8778">1</text><text fill="#000000" font-family="sans-serif" font-size="13" lengthAdjust="spacingAndGlyphs" textLength="5" x="455.6641" y="446.1668">*</text>
        <!--MD5=[aca5a173d2d190bf3d99ef9c47e1596c]
link World to Player-->
        <path d="M498.123,111.157 C535.29,166.978 587,260.843 587,351 C587,351 587,351 587,509.5 C587,594.57 573.427,691.542 562.504,755.803 " fill="none" id="World-Player" style="stroke: #A80036; stroke-width: 1.0;" /><text fill="#000000" font-family="sans-serif" font-size="13" lengthAdjust="spacingAndGlyphs" textLength="7" x="495.6411" y="132.6691">0</text><text fill="#000000" font-family="sans-serif" font-size="13" lengthAdjust="spacingAndGlyphs" textLength="7" x="556.5357" y="745.002">1</text>
        <!--MD5=[d31bdcbbaabb43506266532ce7787e4b]
link Grid to Cell-->
        <path d="M182.668,239.558 C158.264,261.2 124.976,290.719 98.7916,313.94 " fill="none" id="Grid-Cell" style="stroke: #A80036; stroke-width: 1.0;" /><text fill="#000000" font-family="sans-serif" font-size="13" lengthAdjust="spacingAndGlyphs" textLength="7" x="168.0714" y="241.7758">0</text><text fill="#000000" font-family="sans-serif" font-size="13" lengthAdjust="spacingAndGlyphs" textLength="5" x="101.036" y="303.0055">*</text>
        <!--MD5=[625c4cddad4da778bd8c968c984df8b1]
link Cell to Piece-->
        <path d="M108.035,352 C119.594,352 131.153,352 142.712,352 " fill="none" id="Cell-Piece" style="stroke: #A80036; stroke-width: 1.0;" /><text fill="#000000" font-family="sans-serif" font-size="13" lengthAdjust="spacingAndGlyphs" textLength="7" x="116.0448" y="348.37">0</text><text fill="#000000" font-family="sans-serif" font-size="13" lengthAdjust="spacingAndGlyphs" textLength="5" x="129.9351" y="348.3347">*</text>
        <!--MD5=[8130f8c65851955adfcb1602526b4bb3]
link Piece to Entity-->
        <path d="M239.057,352 C250.781,352 262.505,352 274.229,352 " fill="none" id="Piece-Entity" style="stroke: #A80036; stroke-width: 1.0;" /><text fill="#000000" font-family="sans-serif" font-size="13" lengthAdjust="spacingAndGlyphs" textLength="8" x="247.0282" y="348.3347">+</text><text fill="#000000" font-family="sans-serif" font-size="13" lengthAdjust="spacingAndGlyphs" textLength="7" x="259.4048" y="348.3821">1</text>
        <!--MD5=[311976ed05cb909bcfa8bded70f9b41d]
link Building to AI-->
        <path d="M264.287,696.396 C286.611,720.053 315.754,750.937 340.147,776.787 " fill="none" id="Building-AI" style="stroke: #A80036; stroke-width: 1.0;" /><text fill="#000000" font-family="sans-serif" font-size="13" lengthAdjust="spacingAndGlyphs" textLength="7" x="262.1544" y="717.0475">1</text><text fill="#000000" font-family="sans-serif" font-size="13" lengthAdjust="spacingAndGlyphs" textLength="7" x="326.2464" y="766.2587">1</text>
        <!--MD5=[678289fa504f8c99d40a55ed50cc38cc]
link AI to Activity-->
        <path d="M405.859,880.1 C416.88,911.326 430.88,950.993 441.444,980.9261 " fill="none" id="AI-Activity" style="stroke: #A80036; stroke-width: 1.0;" />
        <!--MD5=[551cf52d423e0769c9b6976e3e85987b]
link AI to SpeciesColor-->
        <path d="M374.282,880.1 C365.142,913.815 353.334,957.37 345.061,987.8893 " fill="none" id="AI-SpeciesColor" style="stroke: #A80036; stroke-width: 1.0;" />
        <!--MD5=[e75a45a3ef897ffd12f1bd18f7d46960]
link Player to SpeciesColor-->
        <path d="M518.732,901.163 C503.942,927.788 483.519,955.696 457,973 C437.785,985.5381 427.512,973.0208 406,981 C400.154,983.1686 394.268,985.85 388.521,988.8109 " fill="none" id="Player-SpeciesColor" style="stroke: #A80036; stroke-width: 1.0;" />
        <!--MD5=[99cc7005e9ebf5af8f8ecf140a4a427c]
link Paper to SpeciesColor-->
        <path d="M328.486,696.179 C325.056,701.168 322.095,706.481 320,712 C278.839,820.452 303.765,858.142 320,973 C320.684,977.8378 321.709,982.8557 322.908,987.781 " fill="none" id="Paper-SpeciesColor" style="stroke: #A80036; stroke-width: 1.0;" />
        <!--MD5=[0c8def24a1b5e58d7829037a2f629745]
@startuml

class World {
	List<DynamicEntity> dynamicEntities
	Player player
	update()
	render()
}

class Grid {
	Cell[][] cells
	render()
}

class Cell {
	List<Piece> pieces
	render()
}

class Piece {
	Entity entity
	boolean walkable
	render()
}

abstract class Entity {
	static Image sprite
	Piece[][] pieces
	int[2] position
}

package entities{

	class Nest extends Entity {
		float[] paperProbabilities
	}

	class Building extends Entity {
		AI dino
		int type // 0: House
	}

	abstract class DynamicEntity extends Entity {
		World world
		DynamicEntity(World world)
		update()
		move()
	}

	package dynamic{
		class Dino extends DynamicEntity

		class Paper extends DynamicEntity {
			SpeciesColor color
			float[2] speed
		}

		package dinos{
			class AI extends Dino {
				Building building
				SpeciesColor color
				Activity activity
				boolean pacified
			}

			class Player extends Dino {
				int[] paperCounts
				int[] paperMaxCounts
				SpeciesColor selectedPaper
				collectPapers()
				selectPaper()
				throwPaper()
				punchWithPaper()
			}
		}
	}
}

enum Activity {
	wandering
	resting
	hangry
}

enum SpeciesColor {
	red
	blue
}

World "0"- -down"1" Grid
World "1"- -down"*" DynamicEntity
World "0"- -"1" Player
Grid "0"- -down"*" Cell
Cell "0"- -right"*" Piece
Piece "+"- -right"1" Entity
Building "1"- -"1" AI
AI - - Activity
AI - - SpeciesColor
Player - - SpeciesColor
Paper - - SpeciesColor

@enduml

PlantUML version 1.2020.10(Sun May 17 11:35:57 CEST 2020)
(GPL source distribution)
Java Runtime: Java(TM) SE Runtime Environment
JVM: Java HotSpot(TM) 64-Bit Server VM
Java Version: 1.8.0_221-b11
Operating System: Windows 10
Default Encoding: Cp1252
Language: fr
Country: FR
-->
    </g>
</svg>